<svg width="246" height="68" viewBox="0 0 246 68" fill="none" xmlns="http://www.w3.org/2000/svg">
<g clip-path="url(#clip0_887_24918)">
<path d="M74.64 1.12012C64.33 1.45012 58.42 7.89012 58.42 18.7301V47.1801H67.9V26.4701H74.63V18.6201H67.9V18.5601C67.9 12.4901 69.77 9.65012 74.63 9.28012V1.12012H74.64Z" fill="white"/>
<path d="M90.83 3.99023H81.89V48.0802H90.83V3.99023Z" fill="white"/>
<path d="M118.75 32.66C118.75 37.2 116.15 40.37 112.46 40.37C108.77 40.37 106.12 37.2 106.12 32.66V15.04H97.18V31.23C97.18 41.92 103.47 48.79 112.46 48.79C121.45 48.79 127.69 41.92 127.69 31.23V15.04H118.75V32.66Z" fill="white"/>
<path d="M145.3 48.7898C153.43 48.7898 159.01 44.9098 159.01 37.9798C159.01 32.2998 155.87 29.1998 146.82 27.3498C142.32 26.4498 141.29 25.7398 141.29 24.3598C141.29 22.9798 142.32 22.1498 144.7 22.1498C148.28 22.1498 152.02 23.2298 155 24.8398L158.03 17.7298C154.94 15.6998 149.36 14.3198 145.19 14.3198C137.6 14.3198 132.67 18.0798 132.67 24.9498C132.67 30.5698 135.7 33.4298 144.43 34.9898C149.04 35.8298 150.5 36.5398 150.5 38.2798C150.5 40.3098 148.66 40.9098 145.84 40.9098C142.05 40.9098 138.42 39.9498 134.73 37.9198L131.75 45.0298C135.22 47.0598 140.04 48.7898 145.3 48.7898Z" fill="white"/>
<path fill-rule="evenodd" clip-rule="evenodd" d="M182.1 38.8801C181.02 39.6001 179.55 40.3701 177.55 40.3701C175.92 40.3701 174.24 39.5301 174.24 35.3501V23.1601H183.78V15.0401L174.53 15.0601V4.85008L165.4 4.83008V15.0401H160.53V23.1601H165.3V35.2301C165.3 44.9701 169.74 48.7901 176.03 48.7901C179.88 48.7901 182.86 47.6501 185.13 45.6801L182.1 38.8701V38.8801Z" fill="white"/>
<path d="M198.19 48.0801V29.8001C198.19 24.8401 200.14 22.7501 203.72 22.7501C206.21 22.7501 208.11 24.0001 209.14 24.9601L213.26 18.1501C210.77 15.8801 207.24 14.3301 202.69 14.3301C195.43 14.3301 189.25 19.7701 189.25 30.1001V48.0801H198.19Z" fill="white"/>
<path d="M237.39 27.7801L221.41 27.8801C221.52 27.5501 221.64 27.2301 221.78 26.9201C223.33 24.2201 226.15 22.4201 229.37 22.4201C232.79 22.4201 236.01 24.6701 237.39 27.7801ZM229.21 40.7901C225.25 40.7901 222.11 38.5801 221.19 34.3401C229.34 34.3901 237.41 34.3901 245.49 34.3901C245.62 33.5101 245.69 32.6101 245.69 31.7001C245.69 26.4201 243.41 21.7001 239.82 18.5601C236.83 15.6401 233 14.3301 228.94 14.3301C219.62 14.3301 212.41 21.4401 212.41 31.6001C212.41 41.7601 219.62 48.8101 228.94 48.8101C233.82 48.8101 238.32 46.9001 241.4 42.7801L235.87 37.4601C233.81 39.9701 231.81 40.8101 229.2 40.8101L229.21 40.7901Z" fill="white"/>
<path d="M237.79 62.3498C238.08 60.9198 239.54 59.6698 241.04 59.6698C242.7 59.6698 243.65 61.0298 243.65 62.1898C243.65 62.2398 243.63 62.2398 243.63 62.2998V62.3498H237.78H237.79ZM243.01 65.1898C242.8 65.3998 242.56 65.5798 242.29 65.7398C241.84 66.0098 241.22 66.2798 240.45 66.2798C238.86 66.2798 237.59 65.1398 237.59 63.4198H244.72L244.79 63.0398C244.84 62.8098 244.88 62.4998 244.88 62.1598C244.88 60.0698 243.32 58.4998 241.18 58.4998C238.84 58.4998 236.39 60.5598 236.39 63.4198C236.39 65.6498 237.96 67.4398 240.29 67.4398C241.31 67.4398 242.13 67.0998 242.72 66.7598C243.06 66.5598 243.36 66.3298 243.63 66.0798L243 65.1898H243.01ZM225.78 67.2698H227.03L228.03 62.5298C228.46 60.5798 229.85 59.7598 231.01 59.7598H231.83L232.1 58.5098H231.4C230.54 58.5098 229.85 58.8098 229.36 59.0998C229.07 59.2798 228.82 59.4798 228.63 59.6898L228.84 58.6898H227.59L225.77 67.2698H225.78ZM216.19 64.5698C216.14 64.8398 216.1 65.0698 216.1 65.3398C216.1 66.5698 216.83 67.4498 218.41 67.4498C218.64 67.4498 218.84 67.4298 219 67.3998L219.25 67.3298L219.52 66.1498L219.23 66.2198C219.03 66.2698 218.85 66.2898 218.59 66.2898C217.8 66.2898 217.36 65.9098 217.36 65.2198C217.36 65.0998 217.38 64.9298 217.41 64.7698L218.46 59.8498H220.34L220.59 58.6898H218.71L219.32 55.8298H218.16L217.73 57.7998C217.61 58.3898 217.32 58.6898 216.84 58.6898H215.86L215.61 59.8498H217.22L216.2 64.5698H216.19ZM202.54 65.5898C202.54 65.5898 203.29 67.4298 205.81 67.4498C207.72 67.4498 209.03 66.2198 209.03 64.6998C209.03 62.2498 205.17 62.4698 205.17 60.9498C205.17 60.3098 205.83 59.6798 206.81 59.6798C208.24 59.6798 208.72 60.7898 208.72 60.7498L209.79 59.9598C209.79 60.0098 208.97 58.5098 206.91 58.5098C205.14 58.5098 203.89 59.7098 203.89 61.0698C203.89 63.3598 207.75 63.2698 207.75 64.8398C207.75 65.6798 207.05 66.2898 205.91 66.2898C204.25 66.2898 203.6 64.8098 203.6 64.8098L202.53 65.5998L202.54 65.5898ZM189.18 63.4598C189.11 63.7998 189.07 64.1398 189.07 64.4398C189.07 66.2498 190.27 67.4398 192.05 67.4398C192.96 67.4398 193.64 67.1498 194.12 66.8098C194.39 66.6298 194.62 66.4198 194.82 66.1798L194.61 67.2498H195.86L197.68 58.6698H196.43L195.39 63.5898C195.01 65.2898 193.66 66.2698 192.32 66.2698C191.05 66.2698 190.32 65.4498 190.32 64.2298C190.32 63.9998 190.34 63.7698 190.39 63.5698L191.43 58.6698H190.18L189.18 63.4398V63.4598ZM179.83 67.2698H181.08L183.73 54.7598H182.48L179.83 67.2698ZM164.96 66.2798C163.44 66.2798 162.39 65.0498 162.39 63.5098C162.39 61.2898 164.05 59.6698 165.77 59.6698C167.29 59.6698 168.4 60.9198 168.4 62.6198C168.4 64.6798 166.63 66.2798 164.97 66.2798H164.96ZM167.46 67.2698H168.71L171.36 54.7598H170.11L168.91 60.4798C168.77 60.1198 168.55 59.7998 168.27 59.4998C167.79 59.0198 167 58.5198 165.77 58.5198C163.54 58.5198 161.14 60.6298 161.14 63.5198C161.14 65.8998 162.69 67.4498 164.79 67.4498C165.72 67.4498 166.43 67.1098 166.93 66.7698C167.23 66.5698 167.48 66.3398 167.7 66.0898L167.47 67.2698H167.46ZM152.34 67.2698H153.59L156.24 54.7598H154.99L152.34 67.2698ZM141.67 67.2698H142.92L143.92 62.5298C144.35 60.5798 145.74 59.7598 146.9 59.7598H147.72L147.99 58.5098H147.29C146.43 58.5098 145.73 58.8098 145.25 59.0998C144.96 59.2798 144.71 59.4798 144.52 59.6898L144.73 58.6898H143.48L141.66 67.2698H141.67ZM131.21 66.2798C129.55 66.2798 128.39 64.9798 128.39 63.4198C128.39 61.2198 130.05 59.6698 131.93 59.6698C133.59 59.6698 134.75 60.9698 134.75 62.5298C134.75 64.7298 133.09 66.2798 131.21 66.2798ZM131.12 67.4498C133.77 67.4498 136 65.3398 136 62.5298C136 60.2998 134.37 58.5098 132.01 58.5098C129.36 58.5098 127.13 60.6198 127.13 63.4298C127.13 65.6598 128.76 67.4498 131.12 67.4498ZM111.1 67.2698H112.26L115.78 60.7498L116.55 67.2698H117.71L122.48 58.6898H121.09L117.44 65.2998L116.71 58.6898H115.64L112.08 65.2998L111.26 58.6898H109.97L111.1 67.2698ZM93.37 62.3498C93.66 60.9198 95.12 59.6698 96.62 59.6698C98.28 59.6698 99.23 61.0298 99.23 62.1898C99.23 62.2398 99.21 62.2398 99.21 62.2998V62.3498H93.36H93.37ZM98.59 65.1898C98.38 65.3998 98.14 65.5798 97.88 65.7398C97.43 66.0098 96.81 66.2798 96.04 66.2798C94.45 66.2798 93.18 65.1398 93.18 63.4198H100.31L100.38 63.0398C100.43 62.8098 100.47 62.4998 100.47 62.1598C100.47 60.0698 98.91 58.4998 96.77 58.4998C94.43 58.4998 91.98 60.5598 91.98 63.4198C91.98 65.6498 93.55 67.4398 95.88 67.4398C96.9 67.4398 97.72 67.0998 98.31 66.7598C98.65 66.5598 98.95 66.3298 99.22 66.0798L98.59 65.1898ZM77.06 67.2698H78.31L79.35 62.3498C79.67 60.6498 81.1 59.6698 82.42 59.6698C83.74 59.6698 84.42 60.4898 84.42 61.7098C84.42 61.9398 84.4 62.1698 84.35 62.3698L83.31 67.2698H84.56L85.56 62.4998C85.63 62.1598 85.67 61.8398 85.67 61.5198C85.67 59.7098 84.47 58.5198 82.69 58.5198C81.76 58.5198 81.1 58.8398 80.62 59.1498C80.35 59.3498 80.12 59.5398 79.92 59.7798L80.96 54.7798H79.71L77.06 67.2898V67.2698ZM67.39 64.5698C67.34 64.8398 67.3 65.0698 67.3 65.3398C67.3 66.5698 68.03 67.4498 69.61 67.4498C69.84 67.4498 70.04 67.4298 70.2 67.3998L70.45 67.3298L70.72 66.1498L70.43 66.2198C70.23 66.2698 70.05 66.2898 69.79 66.2898C69 66.2898 68.56 65.9098 68.56 65.2198C68.56 65.0998 68.58 64.9298 68.61 64.7698L69.66 59.8498H71.54L71.79 58.6898H69.91L70.52 55.8298H69.36L68.93 57.7998C68.8 58.3898 68.52 58.6898 68.04 58.6898H67.06L66.81 59.8498H68.42L67.4 64.5698H67.39ZM49.73 62.3498C50.02 60.9198 51.48 59.6698 52.98 59.6698C54.64 59.6698 55.59 61.0298 55.59 62.1898C55.59 62.2398 55.57 62.2398 55.57 62.2998V62.3498H49.72H49.73ZM54.95 65.1898C54.74 65.3998 54.5 65.5798 54.24 65.7398C53.79 66.0098 53.17 66.2798 52.4 66.2798C50.81 66.2798 49.54 65.1398 49.54 63.4198H56.67L56.74 63.0398C56.79 62.8098 56.83 62.4998 56.83 62.1598C56.83 60.0698 55.28 58.4998 53.13 58.4998C50.79 58.4998 48.34 60.5598 48.34 63.4198C48.34 65.6498 49.91 67.4398 52.24 67.4398C53.26 67.4398 54.08 67.0998 54.67 66.7598C55.01 66.5598 55.31 66.3298 55.58 66.0798L54.95 65.1898ZM34.86 67.2698H36.11L36.56 65.0898L38.74 63.1798L40.85 67.2698H42.28L39.76 62.2998L43.94 58.6898H42.22L36.95 63.2498L38.76 54.7598H37.51L34.87 67.2698H34.86ZM27.17 63.6398C26.79 65.1398 25.65 66.2898 23.92 66.2898C22.92 66.2898 22.31 65.7398 22.31 65.0398C22.31 64.3398 22.77 63.6798 24.19 63.4498L27.34 62.9298L27.18 63.6398H27.17ZM26.42 67.2698H27.67L28.72 62.2698C28.79 61.9698 28.81 61.6798 28.81 61.4098C28.81 59.5998 27.49 58.5098 25.7 58.5098C24.77 58.5098 24.02 58.8298 23.47 59.1398C23.17 59.3398 22.88 59.5298 22.61 59.7698L23.25 60.6598C23.45 60.4798 23.68 60.3198 23.91 60.1798C24.32 59.9098 24.91 59.6798 25.61 59.6798C26.88 59.6798 27.59 60.4798 27.59 61.4998C27.59 61.5898 27.57 61.6998 27.55 61.8198L23.78 62.4098C22.06 62.6798 21.05 63.7498 21.05 65.0398C21.05 66.3298 22.07 67.4498 23.82 67.4498C24.75 67.4498 25.45 67.1598 25.93 66.8198C26.2 66.6398 26.43 66.4298 26.63 66.1898L26.42 67.2598V67.2698ZM0.820007 67.2698H2.16001L4.32001 57.0798L7.91001 63.6898L14.33 57.0798L12.17 67.2698H13.51L16.16 54.7598H14.87L8.26001 61.5498L4.51001 54.7598H3.47001L0.820007 67.2698Z" fill="white"/>
<path fill-rule="evenodd" clip-rule="evenodd" d="M30.42 0H48.59V48.58H30.42V39.39H39.4V9.19H30.42V0ZM0 0H18.17V9.19H9.19V39.4H18.17V48.59H0V0Z" fill="white"/>
<path d="M30.46 18.5298H18.12V30.8698H30.46V18.5298Z" fill="white"/>
</g>
<defs>
<clipPath id="clip0_887_24918">
<rect width="245.69" height="67.45" fill="white"/>
</clipPath>
</defs>
</svg>
