<svg width="28" height="28" viewBox="0 0 28 28" fill="none" xmlns="http://www.w3.org/2000/svg">
<g clip-path="url(#clip0_1475_7936)">
<path d="M14 28C21.732 28 28 21.732 28 14C28 6.26801 21.732 0 14 0C6.26801 0 0 6.26801 0 14C0 21.732 6.26801 28 14 28Z" fill="#F0F0F0"/>
<path d="M14 0C11.1904 0 8.57457 0.828242 6.38204 2.25302L9.98261 4.66632L5.47827 6.99962L9.98261 9.33291L5.47827 11.6662L9.98261 13.9992L5.47827 16.3325L9.98261 18.6657L5.47827 20.9992L9.98261 23.3325L6.3816 25.7466C8.57424 27.1716 11.1902 28 14 28C21.7319 28 28 21.7319 28 14C28 6.26806 21.7319 0 14 0V0Z" fill="#D80027"/>
</g>
<defs>
<clipPath id="clip0_1475_7936">
<rect width="28" height="28" fill="white"/>
</clipPath>
</defs>
</svg>
