<svg width="44" height="44" viewBox="0 0 44 44" fill="none" xmlns="http://www.w3.org/2000/svg">
<path d="M12.5 13H15.5755L17.8822 26.3043H30.1842M17.8822 23.1739H29.869C29.9579 23.174 30.0441 23.1427 30.1128 23.0853C30.1816 23.028 30.2288 22.9481 30.2462 22.8594L31.6302 15.8159C31.6414 15.7591 31.64 15.7005 31.6262 15.6443C31.6124 15.5881 31.5865 15.5357 31.5505 15.491C31.5144 15.4462 31.469 15.4101 31.4175 15.3854C31.3661 15.3606 31.3099 15.3478 31.253 15.3478H16.3444M19.4197 30.2174C19.4197 30.6496 19.0755 31 18.6508 31C18.2262 31 17.882 30.6496 17.882 30.2174C17.882 29.7852 18.2262 29.4348 18.6508 29.4348C19.0755 29.4348 19.4197 29.7852 19.4197 30.2174ZM30.1842 30.2174C30.1842 30.6496 29.84 31 29.4153 31C28.9907 31 28.6465 30.6496 28.6465 30.2174C28.6465 29.7852 28.9907 29.4348 29.4153 29.4348C29.84 29.4348 30.1842 29.7852 30.1842 30.2174Z" stroke="#333333" stroke-width="1.5" stroke-linecap="round" stroke-linejoin="round"/>
</svg>
