<svg width="72" height="73" viewBox="0 0 72 73" fill="none" xmlns="http://www.w3.org/2000/svg">
<rect y="0.59375" width="72" height="72" rx="36" fill="#2B73B8" fill-opacity="0.08"/>
<path d="M40.2459 41.0217L39.7894 40.4267L39.7893 40.4268L40.2459 41.0217ZM40.5782 40.6895L39.9832 40.2328L39.9832 40.2329L40.5782 40.6895ZM40.5782 35.498L39.9832 35.9546L39.9832 35.9547L40.5782 35.498ZM40.2459 35.1658L39.7893 35.7607L39.7894 35.7608L40.2459 35.1658ZM33.2544 35.1658L33.711 35.7608L33.711 35.7607L33.2544 35.1658ZM32.9222 35.498L33.5171 35.9546L33.5172 35.9546L32.9222 35.498ZM32.9222 40.6895L33.5172 40.2329L33.5171 40.2329L32.9222 40.6895ZM33.2544 41.0217L33.711 40.4268L33.711 40.4267L33.2544 41.0217ZM47.0653 28.5361L46.4668 28.9881L46.4668 28.9881L47.0653 28.5361ZM43.291 26.9591L43.4961 26.2377V26.2377L43.291 26.9591ZM39.417 25.5517L39.7213 24.8662L39.7212 24.8662L39.417 25.5517ZM34.0834 25.5517L33.7792 24.8662L33.7791 24.8662L34.0834 25.5517ZM30.2094 26.9591L30.4145 27.6805L30.4145 27.6805L30.2094 26.9591ZM26.4351 28.5361L27.0336 28.9881L27.0336 28.9881L26.4351 28.5361ZM35.063 48.017L34.7129 48.6803L34.7129 48.6803L35.063 48.017ZM38.4374 48.017L38.7875 48.6803L38.7875 48.6803L38.4374 48.017ZM34.3502 34.7938H35.1002V32.9938H34.3502H33.6002V34.7938H34.3502ZM34.3502 32.9938H35.1002C35.1002 32.0825 35.8389 31.3438 36.7502 31.3438V30.5938V29.8438C35.0105 29.8438 33.6002 31.2541 33.6002 32.9938H34.3502ZM36.7502 30.5938V31.3438C37.6615 31.3438 38.4002 32.0825 38.4002 32.9938H39.1502H39.9002C39.9002 31.2541 38.4899 29.8438 36.7502 29.8438V30.5938ZM39.1502 32.9938H38.4002V34.7938H39.1502H39.9002V32.9938H39.1502ZM35.8502 41.3938V42.1438H37.6502V41.3938V40.6438H35.8502V41.3938ZM37.6502 41.3938V42.1438C38.3364 42.1438 38.9139 42.1449 39.3781 42.0925C39.8574 42.0385 40.3079 41.9196 40.7026 41.6167L40.2459 41.0217L39.7893 40.4268C39.6993 40.4959 39.5556 40.563 39.21 40.602C38.8494 40.6426 38.3713 40.6438 37.6502 40.6438V41.3938ZM40.2459 41.0217L40.7025 41.6168C40.8793 41.4811 41.0376 41.3228 41.1732 41.146L40.5782 40.6895L39.9832 40.2329C39.9273 40.3057 39.8621 40.3709 39.7894 40.4267L40.2459 41.0217ZM40.5782 40.6895L41.1732 41.1461C41.4761 40.7514 41.5949 40.301 41.649 39.8216C41.7013 39.3574 41.7002 38.78 41.7002 38.0938H40.9502H40.2002C40.2002 38.8149 40.1991 39.2929 40.1584 39.6536C40.1195 39.9991 40.0523 40.1428 39.9832 40.2328L40.5782 40.6895ZM40.9502 38.0938H41.7002C41.7002 37.4075 41.7013 36.8301 41.649 36.3659C41.5949 35.8865 41.4761 35.4361 41.1732 35.0414L40.5782 35.498L39.9832 35.9547C40.0523 36.0447 40.1195 36.1884 40.1584 36.5339C40.1991 36.8946 40.2002 37.3726 40.2002 38.0938H40.9502ZM40.5782 35.498L41.1732 35.0415C41.0376 34.8647 40.8793 34.7064 40.7025 34.5707L40.2459 35.1658L39.7894 35.7608C39.8621 35.8166 39.9273 35.8818 39.9832 35.9546L40.5782 35.498ZM40.2459 35.1658L40.7026 34.5708C40.3079 34.2679 39.8574 34.149 39.3781 34.095C38.9139 34.0426 38.3364 34.0438 37.6502 34.0438V34.7938V35.5438C38.3713 35.5438 38.8494 35.5449 39.21 35.5855C39.5556 35.6245 39.6993 35.6916 39.7893 35.7607L40.2459 35.1658ZM37.6502 34.7938V34.0438H35.8502V34.7938V35.5438H37.6502V34.7938ZM35.8502 34.7938V34.0438C35.164 34.0438 34.5865 34.0426 34.1223 34.095C33.643 34.149 33.1925 34.2679 32.7978 34.5708L33.2544 35.1658L33.711 35.7607C33.8011 35.6916 33.9448 35.6245 34.2904 35.5855C34.651 35.5449 35.1291 35.5438 35.8502 35.5438V34.7938ZM33.2544 35.1658L32.7979 34.5707C32.621 34.7064 32.4628 34.8647 32.3271 35.0415L32.9222 35.498L33.5172 35.9546C33.5731 35.8818 33.6382 35.8166 33.711 35.7608L33.2544 35.1658ZM32.9222 35.498L32.3272 35.0414C32.0243 35.4361 31.9054 35.8866 31.8514 36.3659C31.7991 36.8301 31.8002 37.4075 31.8002 38.0938H32.5502H33.3002C33.3002 37.3726 33.3013 36.8946 33.342 36.5339C33.3809 36.1884 33.4481 36.0446 33.5171 35.9546L32.9222 35.498ZM32.5502 38.0938H31.8002C31.8002 38.78 31.7991 39.3574 31.8514 39.8216C31.9054 40.3009 32.0243 40.7514 32.3272 41.1461L32.9222 40.6895L33.5171 40.2329C33.4481 40.1429 33.3809 39.9991 33.342 39.6536C33.3013 39.2929 33.3002 38.8149 33.3002 38.0938H32.5502ZM32.9222 40.6895L32.3271 41.146C32.4628 41.3228 32.621 41.4811 32.7979 41.6168L33.2544 41.0217L33.711 40.4267C33.6382 40.3709 33.5731 40.3057 33.5172 40.2329L32.9222 40.6895ZM33.2544 41.0217L32.7978 41.6167C33.1925 41.9196 33.643 42.0385 34.1223 42.0925C34.5865 42.1449 35.164 42.1438 35.8502 42.1438V41.3938V40.6438C35.1291 40.6438 34.651 40.6426 34.2904 40.602C33.9448 40.563 33.8011 40.4959 33.711 40.4268L33.2544 41.0217ZM47.5502 35.6137H48.3002V32.1301H47.5502H46.8002V35.6137H47.5502ZM47.5502 32.1301H48.3002C48.3002 31.1627 48.3012 30.3778 48.2354 29.7568C48.1686 29.1263 48.025 28.5623 47.6637 28.0841L47.0653 28.5361L46.4668 28.9881C46.5905 29.1519 46.6893 29.4009 46.7438 29.9148C46.7992 30.4383 46.8002 31.1295 46.8002 32.1301H47.5502ZM47.0653 28.5361L47.6637 28.0841C47.2921 27.592 46.7341 27.2911 46.0898 27.0413C45.4406 26.7896 44.578 26.5452 43.4961 26.2377L43.291 26.9591L43.086 27.6805C44.1969 27.9963 44.979 28.2194 45.5475 28.4399C46.1209 28.6622 46.3536 28.8382 46.4668 28.9881L47.0653 28.5361ZM43.291 26.9591L43.4961 26.2377C42.038 25.8232 40.7507 25.3232 39.7213 24.8662L39.417 25.5517L39.1126 26.2372C40.1935 26.717 41.5477 27.2432 43.086 27.6805L43.291 26.9591ZM39.417 25.5517L39.7212 24.8662C39.0103 24.5506 38.4477 24.3005 37.9996 24.1315C37.5607 23.9659 37.1473 23.8438 36.7502 23.8438V24.5938V25.3438C36.8619 25.3438 37.0626 25.3812 37.4702 25.535C37.8686 25.6853 38.3849 25.9141 39.1127 26.2372L39.417 25.5517ZM36.7502 24.5938V23.8438C36.3531 23.8438 35.9397 23.9659 35.5008 24.1315C35.0527 24.3005 34.4901 24.5506 33.7792 24.8662L34.0834 25.5517L34.3877 26.2372C35.1155 25.9141 35.6318 25.6853 36.0302 25.535C36.4378 25.3812 36.6385 25.3438 36.7502 25.3438V24.5938ZM34.0834 25.5517L33.7791 24.8662C32.7497 25.3232 31.4625 25.8231 30.0043 26.2377L30.2094 26.9591L30.4145 27.6805C31.9527 27.2432 33.3068 26.717 34.3877 26.2372L34.0834 25.5517ZM30.2094 26.9591L30.0043 26.2377C28.9224 26.5452 28.0598 26.7896 27.4106 27.0413C26.7664 27.2911 26.2084 27.592 25.8367 28.0841L26.4351 28.5361L27.0336 28.9881C27.1468 28.8382 27.3795 28.6622 27.9529 28.4399C28.5214 28.2194 29.3035 27.9963 30.4145 27.6805L30.2094 26.9591ZM26.4351 28.5361L25.8367 28.084C25.4754 28.5623 25.3318 29.1263 25.265 29.7568C25.1992 30.3778 25.2002 31.1627 25.2002 32.1301H25.9502H26.7002C26.7002 31.1295 26.7012 30.4383 26.7566 29.9148C26.8111 29.4009 26.9099 29.1519 27.0336 28.9881L26.4351 28.5361ZM25.9502 32.1301H25.2002V35.6137H25.9502H26.7002V32.1301H25.9502ZM25.9502 35.6137H25.2002C25.2002 39.2321 26.8328 42.1054 28.8164 44.2543C30.795 46.3976 33.1547 47.858 34.7129 48.6803L35.063 48.017L35.4131 47.3537C33.9338 46.573 31.7372 45.2068 29.9186 43.2368C28.1053 41.2724 26.7002 38.7455 26.7002 35.6137H25.9502ZM35.063 48.017L34.7129 48.6803C35.4194 49.0532 35.9425 49.3438 36.7502 49.3438V48.5938V47.8438C36.3689 47.8438 36.1636 47.7499 35.4131 47.3537L35.063 48.017ZM36.7502 48.5938V49.3438C37.5579 49.3438 38.081 49.0532 38.7875 48.6803L38.4374 48.017L38.0873 47.3537C37.3368 47.7499 37.1315 47.8438 36.7502 47.8438V48.5938ZM38.4374 48.017L38.7875 48.6803C40.3457 47.8579 42.7054 46.3976 44.6839 44.2543C46.6676 42.1054 48.3002 39.2321 48.3002 35.6137H47.5502H46.8002C46.8002 38.7455 45.3951 41.2724 43.5817 43.2368C41.7632 45.2068 39.5666 46.573 38.0873 47.3537L38.4374 48.017Z" fill="#2B73B8"/>
</svg>
