<svg width="72" height="73" viewBox="0 0 72 73" fill="none" xmlns="http://www.w3.org/2000/svg">
<rect y="0.59375" width="72" height="72" rx="36" fill="#2B73B8" fill-opacity="0.08"/>
<path d="M36 38.9938H37.2C38.52 38.9938 39.6 37.9138 39.6 36.5938M39.6 36.5938V24.5938H28.8C27 24.5938 25.428 25.5897 24.612 27.0537M39.6 36.5938V28.1938H41.808C42.672 28.1938 43.464 28.6618 43.896 29.4058L45.948 32.9938M24 42.5938C24 44.5858 25.608 46.1938 27.6 46.1938H28.8M28.8 46.1938C28.8 44.8738 29.88 43.7938 31.2 43.7938M28.8 46.1938C28.8 47.5192 29.8745 48.5938 31.2 48.5938C32.5255 48.5938 33.6 47.5192 33.6 46.1938M28.8 46.1938C28.8 44.8683 29.8745 43.7938 31.2 43.7938M31.2 43.7938C32.52 43.7938 33.6 44.8738 33.6 46.1938M31.2 43.7938C32.5255 43.7938 33.6 44.8683 33.6 46.1938M33.6 46.1938H38.4M38.4 46.1938C38.4 44.8738 39.48 43.7938 40.8 43.7938M38.4 46.1938C38.4 47.5192 39.4745 48.5938 40.8 48.5938C42.1255 48.5938 43.2 47.5192 43.2 46.1938M38.4 46.1938C38.4 44.8683 39.4745 43.7938 40.8 43.7938M40.8 43.7938C42.12 43.7938 43.2 44.8738 43.2 46.1938M40.8 43.7938C42.1255 43.7938 43.2 44.8683 43.2 46.1938M43.2 46.1938H44.4C46.392 46.1938 48 44.5858 48 42.5938V38.9938M48 38.9938H44.4C43.74 38.9938 43.2 38.4538 43.2 37.7938V34.1938C43.2 33.5338 43.74 32.9938 44.4 32.9938H45.948M48 38.9938V36.5938L45.948 32.9938M24 31.7938H31.2M24 35.3938H28.8M24 38.9938H26.4" stroke="#2B73B8" stroke-width="1.5" stroke-linecap="round" stroke-linejoin="round"/>
</svg>
