<svg width="72" height="73" viewBox="0 0 72 73" fill="none" xmlns="http://www.w3.org/2000/svg">
<rect y="0.59375" width="72" height="72" rx="36" fill="#2B73B8" fill-opacity="0.08"/>
<path d="M26.6668 32.5938C26.6668 28.1751 30.8455 24.5938 36.0001 24.5938C41.1548 24.5938 45.3335 28.1751 45.3335 32.5938M45.3335 43.2604V44.3271C45.3335 46.6831 42.9468 48.5938 40.0001 48.5938H37.3335M42.6668 35.0004C42.6668 34.5391 42.6668 34.3084 42.7361 34.1031C42.9375 33.5058 43.4695 33.2751 44.0028 33.0324C44.6001 32.7591 44.8988 32.6231 45.1961 32.5991C45.5321 32.5724 45.8695 32.6444 46.1575 32.8058C46.5388 33.0191 46.8055 33.4271 47.0775 33.7578C48.3348 35.2858 48.9641 36.0497 49.1935 36.8911C49.3801 37.5711 49.3801 38.2831 49.1935 38.9618C48.8588 40.1911 47.7988 41.2204 47.0135 42.1751C46.6121 42.6618 46.4108 42.9058 46.1575 43.0484C45.8645 43.2109 45.53 43.2828 45.1961 43.2551C44.8988 43.2311 44.6001 43.0951 44.0015 42.8217C43.4681 42.5791 42.9375 42.3484 42.7361 41.7511C42.6668 41.5458 42.6668 41.3151 42.6668 40.8538V35.0004ZM29.3335 35.0004C29.3335 34.4191 29.3175 33.8978 28.8481 33.4898C28.6775 33.3418 28.4508 33.2391 27.9988 33.0324C27.4001 32.7604 27.1015 32.6231 26.8041 32.5991C25.9148 32.5271 25.4361 33.1351 24.9241 33.7591C23.6655 35.2857 23.0361 36.0498 22.8055 36.8924C22.6199 37.5702 22.6199 38.2853 22.8055 38.9631C23.1415 40.1911 24.2028 41.2218 24.9868 42.1751C25.4815 42.7751 25.9548 43.3231 26.8041 43.2551C27.1015 43.2311 27.4001 43.0951 27.9988 42.8217C28.4521 42.6164 28.6775 42.5124 28.8481 42.3644C29.3175 41.9564 29.3335 41.4351 29.3335 40.8551V35.0004Z" stroke="#2B73B8" stroke-width="1.5" stroke-linecap="round" stroke-linejoin="round"/>
</svg>
