<svg width="72" height="73" viewBox="0 0 72 73" fill="none" xmlns="http://www.w3.org/2000/svg">
<rect y="0.59375" width="72" height="72" rx="36" fill="#2B73B8" fill-opacity="0.08"/>
<path d="M54.57 24.9885C54.0381 24.5895 53.3731 24.523 52.7747 24.656C42.1358 28.0472 31.3641 28.0472 20.7916 24.656C20.1266 24.523 19.4617 24.5895 18.9298 24.9885C18.4643 25.3874 18.1318 25.9859 18.1318 26.6508V43.5403C18.1318 44.4047 18.6638 45.2026 19.4617 45.4685C25.1803 47.5299 30.9649 48.5938 36.7499 48.5938C42.535 48.5938 48.32 47.5299 54.0382 45.4685C54.8361 45.2026 55.368 44.4047 55.368 43.5403V26.6508C55.368 25.9858 55.0355 25.3874 54.57 24.9885ZM54.0381 43.4738C54.0381 43.8063 53.8386 44.0722 53.5726 44.1387C42.4018 48.1948 31.0981 48.1948 19.9273 44.1387C19.6613 44.0722 19.4618 43.7398 19.4618 43.4738V26.6511C19.4618 26.4516 19.5948 26.1856 19.7278 26.0527C19.8607 25.9862 19.9937 25.9197 20.1267 25.9197H20.3262C31.2311 29.3774 42.2687 29.3774 53.1072 25.9197C53.3067 25.8532 53.5062 25.9197 53.7057 25.9862C53.9051 26.1192 53.9716 26.3187 53.9716 26.5846V43.4741L54.0381 43.4738Z" fill="#2B73B8"/>
<path d="M52.0435 30.3747C51.1791 30.3747 50.4477 29.8428 50.1817 29.0449C50.0487 28.7124 49.7162 28.5129 49.3838 28.5794C41.0054 30.3082 32.4943 30.3082 24.05 28.5794C23.7175 28.5129 23.385 28.7124 23.3185 29.0449C23.0525 29.8428 22.2546 30.3747 21.4567 30.3747C21.0577 30.3747 20.7918 30.6407 20.7918 31.0397V39.8168C20.7918 40.2157 21.0577 40.4817 21.4567 40.4817C22.5871 40.4817 23.4515 41.4126 23.4515 42.543C23.4515 42.809 23.385 43.0085 23.3185 43.2079C23.252 43.4074 23.252 43.5404 23.385 43.7399C23.4515 43.8729 23.651 44.0059 23.784 44.0724C28.1059 45.2692 32.4279 45.8677 36.7503 45.8677C41.0726 45.8677 45.3942 45.2693 49.7165 44.0724C49.916 44.0059 50.049 43.8729 50.1155 43.7399C50.182 43.6069 50.182 43.4074 50.182 43.2079C50.1155 43.0085 50.049 42.7425 50.049 42.543C50.049 41.4127 50.9134 40.4817 52.0438 40.4817C52.4428 40.4817 52.7087 40.2157 52.7087 39.8168V31.0397C52.7087 30.7072 52.4425 30.3747 52.0435 30.3747ZM51.3786 39.2182C49.8492 39.5507 48.7188 40.8805 48.7188 42.5429V42.9418C40.7397 45.0696 32.6941 45.0696 24.7149 42.9418V42.5429C24.7149 40.9471 23.5845 39.5507 22.0552 39.2182V31.6382C22.9861 31.4387 23.784 30.8403 24.3159 29.9759C32.5611 31.6382 40.8726 31.6382 49.1178 29.9759C49.5833 30.8403 50.3812 31.4388 51.3786 31.6382V39.2182Z" fill="#2B73B8"/>
<path d="M36.7498 32.5689C33.8241 32.5689 31.4304 34.9627 31.4304 37.8884C31.4304 40.8141 33.8241 43.2078 36.7498 43.2078C39.6756 43.2078 42.0693 40.8141 42.0693 37.8884C42.0693 34.9627 39.6756 32.5689 36.7498 32.5689ZM36.7498 41.878C34.5556 41.878 32.7603 40.0826 32.7603 37.8884C32.7603 35.6941 34.5556 33.8988 36.7498 33.8988C38.9441 33.8988 40.7394 35.6941 40.7394 37.8884C40.7394 40.0826 38.9441 41.878 36.7498 41.878Z" fill="#2B73B8"/>
<path d="M36.4175 36.5585H38.0798C38.4788 36.5585 38.7447 36.2925 38.7447 35.8936C38.7447 35.4946 38.4788 35.2286 38.0798 35.2286H37.4149C37.4149 34.8297 37.1489 34.5637 36.7499 34.5637C36.351 34.5637 36.085 34.8297 36.085 35.2286C35.3536 35.3616 34.7551 36.0266 34.7551 36.8245C34.7551 37.7554 35.4866 38.4868 36.4174 38.4868H37.0824C37.2819 38.4868 37.4148 38.6198 37.4148 38.8192C37.4148 39.0187 37.2819 39.2182 37.0824 39.2182H35.4201C35.0211 39.2182 34.7551 39.4842 34.7551 39.8831C34.7551 40.2821 35.0211 40.5481 35.4201 40.5481H36.085C36.085 40.947 36.351 41.213 36.7499 41.213C37.1489 41.213 37.4149 40.947 37.4149 40.5481V40.4816C38.1463 40.3486 38.7447 39.6837 38.7447 38.8857C38.7447 37.9548 38.0133 37.2234 37.0824 37.2234H36.4175C36.218 37.2234 36.085 37.0904 36.085 36.891C36.085 36.6915 36.218 36.5585 36.4175 36.5585Z" fill="#2B73B8"/>
</svg>
