<svg width="19" height="20" viewBox="0 0 19 20" fill="none" xmlns="http://www.w3.org/2000/svg">
<path d="M6.31284 13.4613L13.1876 6.53822M9.5 0.999756L11.9309 2.46745L14.7537 2.71806L15.8633 5.34468L18 7.21668L17.3648 9.99976L18 12.7814L15.8633 14.6548L14.7537 17.2814L11.9309 17.5321L9.5 18.9998L7.07045 17.5321L4.24628 17.2814L3.13806 14.6548L1 12.7814L1.63523 9.99976L1 7.21806L3.13806 5.34468L4.24628 2.71806L7.07045 2.46745L9.5 0.999756ZM8.37528 7.92283C8.37528 8.29006 8.23042 8.64224 7.97257 8.9019C7.71471 9.16157 7.36498 9.30745 7.00032 9.30745C6.63566 9.30745 6.28593 9.16157 6.02808 8.9019C5.77023 8.64224 5.62536 8.29006 5.62536 7.92283C5.62536 7.55561 5.77023 7.20343 6.02808 6.94376C6.28593 6.6841 6.63566 6.53822 7.00032 6.53822C7.36498 6.53822 7.71471 6.6841 7.97257 6.94376C8.23042 7.20343 8.37528 7.55561 8.37528 7.92283ZM13.8751 12.769C13.8751 13.1362 13.7303 13.4884 13.4724 13.7481C13.2145 14.0077 12.8648 14.1536 12.5002 14.1536C12.1355 14.1536 11.7858 14.0077 11.5279 13.7481C11.2701 13.4884 11.1252 13.1362 11.1252 12.769C11.1252 12.4018 11.2701 12.0496 11.5279 11.7899C11.7858 11.5303 12.1355 11.3844 12.5002 11.3844C12.8648 11.3844 13.2145 11.5303 13.4724 11.7899C13.7303 12.0496 13.8751 12.4018 13.8751 12.769Z" stroke="#2B73B8" stroke-width="1.5"/>
</svg>
