<svg width="16" height="17" viewBox="0 0 16 17" fill="none" xmlns="http://www.w3.org/2000/svg">
<path d="M14.2907 7.91463C14.1489 6.43917 13.4982 5.05903 12.4501 4.01091C11.4019 2.9628 10.0218 2.31203 8.54634 2.17024V1.08537C8.54634 0.930117 8.48467 0.781227 8.37489 0.67145C8.26511 0.561672 8.11622 0.5 7.96098 0.5C7.80573 0.5 7.65684 0.561672 7.54706 0.67145C7.43728 0.781227 7.37561 0.930117 7.37561 1.08537V2.17024C5.90661 2.31912 4.5348 2.97318 3.4943 4.0208C2.4538 5.06841 1.80911 6.44465 1.67024 7.91463H0.585366C0.508494 7.91463 0.432376 7.92977 0.361356 7.95919C0.290336 7.98861 0.225806 8.03173 0.17145 8.08608C0.117093 8.14044 0.0739757 8.20497 0.0445583 8.27599C0.0151409 8.34701 0 8.42313 0 8.5C0 8.57687 0.0151409 8.65299 0.0445583 8.72401C0.0739757 8.79503 0.117093 8.85956 0.17145 8.91392C0.225806 8.96827 0.290336 9.01139 0.361356 9.04081C0.432376 9.07022 0.508494 9.08537 0.585366 9.08537H1.67024C1.81203 10.5608 2.4628 11.941 3.51091 12.9891C4.55902 14.0372 5.93917 14.688 7.41463 14.8298V15.9146C7.41463 16.0699 7.47631 16.2188 7.58608 16.3286C7.69586 16.4383 7.84475 16.5 8 16.5C8.15525 16.5 8.30414 16.4383 8.41392 16.3286C8.52369 16.2188 8.58537 16.0699 8.58537 15.9146V14.8298C10.0603 14.6865 11.4396 14.0353 12.4875 12.9875C13.5353 11.9396 14.1865 10.5603 14.3298 9.08537H15.4146C15.4915 9.08537 15.5676 9.07022 15.6386 9.04081C15.7097 9.01139 15.7742 8.96827 15.8286 8.91392C15.8829 8.85956 15.926 8.79503 15.9554 8.72401C15.9849 8.65299 16 8.57687 16 8.5C16 8.42313 15.9849 8.34701 15.9554 8.27599C15.926 8.20497 15.8829 8.14044 15.8286 8.08608C15.7742 8.03173 15.7097 7.98861 15.6386 7.95919C15.5676 7.92977 15.4915 7.91463 15.4146 7.91463H14.2907ZM7.96098 13.6824C6.93599 13.6824 5.93401 13.3785 5.08177 12.809C4.22952 12.2396 3.56527 11.4302 3.17303 10.4832C2.78078 9.53627 2.67815 8.49425 2.87812 7.48896C3.07808 6.48366 3.57166 5.56024 4.29644 4.83546C5.02121 4.11068 5.94464 3.61711 6.94993 3.41714C7.95523 3.21717 8.99724 3.3198 9.94421 3.71205C10.8912 4.1043 11.7006 4.76854 12.27 5.62079C12.8395 6.47304 13.1434 7.47501 13.1434 8.5C13.1434 9.87519 12.5977 11.1942 11.626 12.1673C10.6543 13.1404 9.33616 13.6882 7.96098 13.6902V13.6824Z" fill="#6D0D26"/>
<path d="M11.4966 8.5078C11.4966 9.20896 11.2886 9.89435 10.8989 10.4772C10.5092 11.0601 9.9553 11.5143 9.30737 11.7822C8.65944 12.0502 7.94658 12.1199 7.25901 11.9826C6.57144 11.8452 5.94008 11.5069 5.44484 11.0106C4.94959 10.5143 4.61273 9.88216 4.47689 9.19429C4.34105 8.50642 4.41234 7.79372 4.68173 7.14638C4.95112 6.49904 5.4065 5.94618 5.99024 5.55777C6.57398 5.16935 7.25982 4.96285 7.96098 4.96439C8.42594 4.96439 8.88633 5.0561 9.3158 5.23427C9.74527 5.41244 10.1354 5.67356 10.4638 6.0027C10.7922 6.33184 11.0525 6.72253 11.2297 7.15239C11.4069 7.58225 11.4976 8.04285 11.4966 8.5078Z" fill="#6D0D26"/>
</svg>
