<svg width="28" height="28" viewBox="0 0 28 28" fill="none" xmlns="http://www.w3.org/2000/svg">
<g clip-path="url(#clip0_1475_7926)">
<path d="M14 28C21.732 28 28 21.732 28 14C28 6.26801 21.732 0 14 0C6.26801 0 0 6.26801 0 14C0 21.732 6.26801 28 14 28Z" fill="#F0F0F0"/>
<path d="M14.0001 0C7.98055 0 2.84895 3.79925 0.87085 9.13046H27.1293C25.1512 3.79925 20.0196 0 14.0001 0Z" fill="#D80027"/>
<path d="M14.0001 28C20.0196 28 25.1512 24.2008 27.1293 18.8696H0.87085C2.84895 24.2008 7.98055 28 14.0001 28Z" fill="black"/>
<path d="M18.8696 12.4783H15.2174C15.2174 11.8059 14.6723 11.2609 14 11.2609C13.3276 11.2609 12.7826 11.8059 12.7826 12.4783H9.13037C9.13037 13.1506 9.71602 13.6957 10.3883 13.6957H10.3478C10.3478 14.368 10.8928 14.9131 11.5652 14.9131C11.5652 15.5854 12.1102 16.1305 12.7826 16.1305H15.2174C15.8897 16.1305 16.4348 15.5854 16.4348 14.9131C17.1071 14.9131 17.6522 14.368 17.6522 13.6957H17.6116C18.284 13.6957 18.8696 13.1506 18.8696 12.4783Z" fill="#FF9811"/>
</g>
<defs>
<clipPath id="clip0_1475_7926">
<rect width="28" height="28" fill="white"/>
</clipPath>
</defs>
</svg>
