<svg width="15" height="15" viewBox="0 0 15 15" fill="none" xmlns="http://www.w3.org/2000/svg">
<path d="M7.34071 12.0186L3.55229 14.3063C3.44097 14.3613 3.33765 14.3835 3.24233 14.3731C3.14771 14.362 3.05552 14.3293 2.96576 14.275C2.87531 14.2193 2.80713 14.1407 2.76121 14.0391C2.71529 13.9375 2.71111 13.8266 2.74869 13.7062L3.75684 9.41684L0.422408 6.52595C0.32848 6.44942 0.266557 6.35793 0.23664 6.25147C0.206722 6.14502 0.213332 6.04309 0.256469 5.94569C0.299606 5.84828 0.357006 5.76827 0.42867 5.70565C0.501029 5.64512 0.598436 5.60407 0.72089 5.5825L5.12088 5.19844L6.83663 1.13658C6.88394 1.02178 6.95213 0.938988 7.04119 0.888198C7.13024 0.837407 7.23008 0.812012 7.34071 0.812012C7.45134 0.812012 7.55153 0.837407 7.64128 0.888198C7.73103 0.938988 7.79887 1.02178 7.84479 1.13658L9.56054 5.19844L13.9595 5.5825C14.0826 5.60337 14.1804 5.64477 14.2528 5.70669C14.3251 5.76792 14.3829 5.84758 14.426 5.94569C14.4684 6.04309 14.4747 6.14502 14.4448 6.25147C14.4149 6.35793 14.3529 6.44942 14.259 6.52595L10.9246 9.41684L11.9327 13.7062C11.9717 13.8252 11.9679 13.9358 11.9213 14.0381C11.8746 14.1404 11.8061 14.219 11.7157 14.2739C11.6266 14.3296 11.5344 14.3627 11.4391 14.3731C11.3445 14.3835 11.2415 14.3613 11.1302 14.3063L7.34071 12.0186Z" fill="#EF9C16"/>
</svg>
