<svg width="24" height="24" viewBox="0 0 24 24" fill="none" xmlns="http://www.w3.org/2000/svg">
<path d="M19.8677 11.9996H10.0259M6.55197 11.9996H5.13086M6.55197 11.9996C6.55197 11.539 6.73493 11.0973 7.06059 10.7717C7.38626 10.446 7.82796 10.263 8.28853 10.263C8.74909 10.263 9.19079 10.446 9.51646 10.7717C9.84213 11.0973 10.0251 11.539 10.0251 11.9996C10.0251 12.4602 9.84213 12.9019 9.51646 13.2275C9.19079 13.5532 8.74909 13.7362 8.28853 13.7362C7.82796 13.7362 7.38626 13.5532 7.06059 13.2275C6.73493 12.9019 6.55197 12.4602 6.55197 11.9996ZM19.8677 17.2626H15.2889M15.2889 17.2626C15.2889 17.7233 15.1055 18.1655 14.7798 18.4913C14.454 18.817 14.0122 19 13.5516 19C13.091 19 12.6493 18.8162 12.3236 18.4906C11.998 18.1649 11.815 17.7232 11.815 17.2626M15.2889 17.2626C15.2889 16.802 15.1055 16.3606 14.7798 16.0348C14.454 15.7091 14.0122 15.5261 13.5516 15.5261C13.091 15.5261 12.6493 15.709 12.3236 16.0347C11.998 16.3604 11.815 16.8021 11.815 17.2626M11.815 17.2626H5.13086M19.8677 6.73656H17.3943M13.9204 6.73656H5.13086M13.9204 6.73656C13.9204 6.27599 14.1033 5.83429 14.429 5.50863C14.7547 5.18296 15.1964 5 15.6569 5C15.885 5 16.1108 5.04492 16.3215 5.13219C16.5322 5.21946 16.7236 5.34737 16.8849 5.50863C17.0461 5.66988 17.174 5.86132 17.2613 6.07201C17.3486 6.28269 17.3935 6.50851 17.3935 6.73656C17.3935 6.96461 17.3486 7.19042 17.2613 7.40111C17.174 7.6118 17.0461 7.80323 16.8849 7.96449C16.7236 8.12574 16.5322 8.25366 16.3215 8.34093C16.1108 8.4282 15.885 8.47311 15.6569 8.47311C15.1964 8.47311 14.7547 8.29016 14.429 7.96449C14.1033 7.63882 13.9204 7.19712 13.9204 6.73656Z" stroke="black" stroke-miterlimit="10" stroke-linecap="round"/>
</svg>
