<svg width="48" height="48" viewBox="0 0 48 48" fill="none" xmlns="http://www.w3.org/2000/svg">
<rect width="48" height="48" rx="24" fill="#6D0D26" fill-opacity="0.08"/>
<path d="M22.1667 24.2C21.8353 24.2 21.5667 24.4686 21.5667 24.8C21.5667 25.1314 21.8353 25.4 22.1667 25.4L22.1667 24.2ZM23.7222 26.4L23.1826 26.6623C23.2783 26.8591 23.4735 26.9882 23.692 26.9992C23.9105 27.0103 24.1177 26.9015 24.2327 26.7153L23.7222 26.4ZM28.5943 22.1638C28.9056 22.0503 29.0661 21.706 28.9526 21.3946C28.8392 21.0833 28.4949 20.9228 28.1835 21.0362L28.5943 22.1638ZM31.1857 18.6282L30.7021 18.9834L30.7021 18.9834L31.1857 18.6282ZM28.7394 17.5769L28.9078 17.001L28.9078 17.001L28.7394 17.5769ZM26.2285 16.6386L26.4777 16.0928L26.4777 16.0928L26.2285 16.6386ZM22.7716 16.6386L22.5223 16.0928L22.5223 16.0928L22.7716 16.6386ZM20.2606 17.5769L20.429 18.1528L20.429 18.1528L20.2606 17.5769ZM17.8143 18.6282L18.2979 18.9834L18.2979 18.9834L17.8143 18.6282ZM23.4064 31.6155L23.1202 32.1428L23.1202 32.1428L23.4064 31.6155ZM25.5936 31.6155L25.8798 32.1428L25.8798 32.1428L25.5936 31.6155ZM22.1667 24.8C22.1667 25.4 22.1661 25.4 22.1655 25.4C22.1653 25.4 22.1647 25.4 22.1643 25.4C22.1635 25.4 22.1627 25.4 22.162 25.4C22.1604 25.4 22.159 25.4 22.1575 25.3999C22.1546 25.3999 22.1519 25.3998 22.1493 25.3997C22.1442 25.3996 22.1397 25.3993 22.1359 25.3991C22.1281 25.3986 22.1229 25.398 22.1201 25.3976C22.1143 25.3968 22.1184 25.3969 22.1312 25.4007C22.1558 25.4079 22.2199 25.4307 22.3135 25.4948C22.4999 25.6227 22.8277 25.9321 23.1826 26.6623L23.7222 26.4L24.2618 26.1377C23.839 25.2679 23.389 24.7773 22.9921 24.5052C22.794 24.3693 22.615 24.2921 22.4695 24.2493C22.3972 24.2281 22.3345 24.2157 22.2831 24.2087C22.2575 24.2052 22.2348 24.203 22.2153 24.2017C22.2056 24.2011 22.1966 24.2006 22.1885 24.2004C22.1844 24.2002 22.1806 24.2001 22.177 24.2001C22.1751 24.2001 22.1734 24.2 22.1716 24.2C22.1708 24.2 22.1699 24.2 22.1691 24.2C22.1687 24.2 22.1681 24.2 22.1679 24.2C22.1673 24.2 22.1667 24.2 22.1667 24.8ZM23.7222 26.4C24.2327 26.7153 24.2327 26.7154 24.2326 26.7154C24.2326 26.7154 24.2326 26.7154 24.2326 26.7154C24.2326 26.7154 24.2327 26.7153 24.2328 26.7152C24.2329 26.7149 24.2333 26.7144 24.2337 26.7136C24.2347 26.7121 24.2362 26.7097 24.2383 26.7063C24.2425 26.6996 24.249 26.6892 24.2578 26.6753C24.2753 26.6476 24.3017 26.6062 24.3363 26.5527C24.4056 26.4457 24.5077 26.2908 24.6373 26.102C24.8969 25.7237 25.2647 25.2123 25.698 24.6779C26.1326 24.1422 26.6257 23.5926 27.1351 23.133C27.6511 22.6676 28.1501 22.3255 28.5943 22.1638L28.3889 21.6L28.1835 21.0362C27.5296 21.2745 26.8963 21.7324 26.3314 22.242C25.76 22.7574 25.2237 23.3578 24.766 23.9221C24.3072 24.4877 23.9201 25.0263 23.6479 25.423C23.5115 25.6217 23.4035 25.7855 23.3291 25.9004C23.2918 25.9579 23.263 26.0031 23.2432 26.0344C23.2334 26.0501 23.2257 26.0622 23.2205 26.0707C23.2178 26.0749 23.2158 26.0782 23.2143 26.0806C23.2136 26.0817 23.213 26.0827 23.2126 26.0834C23.2124 26.0837 23.2122 26.084 23.212 26.0842C23.212 26.0843 23.2119 26.0844 23.2119 26.0845C23.2118 26.0846 23.2117 26.0847 23.7222 26.4ZM31.5 23.3466H32.1V21.0242H31.5H30.9V23.3466H31.5ZM31.5 21.0242H32.1C32.1 20.3812 32.1007 19.8527 32.0576 19.4333C32.0137 19.0072 31.9183 18.6122 31.6693 18.2731L31.1857 18.6282L30.7021 18.9834C30.7674 19.0723 30.8292 19.2193 30.8639 19.5562C30.8993 19.8998 30.9 20.3553 30.9 21.0242H31.5ZM31.1857 18.6282L31.6693 18.2731C31.4105 17.9207 31.0248 17.71 30.6 17.5406C30.1725 17.3701 29.6066 17.2053 28.9078 17.001L28.7394 17.5769L28.5711 18.1528C29.2935 18.364 29.7937 18.5109 30.1554 18.6552C30.5198 18.8005 30.6466 18.9078 30.7021 18.9834L31.1857 18.6282ZM28.7394 17.5769L28.9078 17.001C27.9695 16.7266 27.1407 16.3956 26.4777 16.0928L26.2285 16.6386L25.9792 17.1844C26.684 17.5062 27.5673 17.8593 28.5711 18.1528L28.7394 17.5769ZM26.2285 16.6386L26.4777 16.0928C26.0183 15.8831 25.6498 15.7146 25.3552 15.6003C25.0685 15.489 24.7822 15.4 24.5 15.4V16V16.6C24.5475 16.6 24.6593 16.6174 24.9212 16.719C25.1753 16.8176 25.5062 16.9684 25.9793 17.1844L26.2285 16.6386ZM24.5 16V15.4C24.2178 15.4 23.9315 15.489 23.6448 15.6003C23.3502 15.7146 22.9817 15.8831 22.5223 16.0928L22.7716 16.6386L23.0208 17.1844C23.4938 16.9684 23.8247 16.8176 24.0788 16.719C24.3407 16.6174 24.4525 16.6 24.5 16.6V16ZM22.7716 16.6386L22.5223 16.0928C21.8593 16.3956 21.0305 16.7266 20.0922 17.001L20.2606 17.5769L20.429 18.1528C21.4328 17.8593 22.316 17.5062 23.0208 17.1844L22.7716 16.6386ZM20.2606 17.5769L20.0922 17.001C19.3934 17.2053 18.8275 17.3701 18.4 17.5406C17.9752 17.71 17.5895 17.9207 17.3307 18.2731L17.8143 18.6282L18.2979 18.9834C18.3534 18.9078 18.4802 18.8005 18.8446 18.6552C19.2063 18.5109 19.7065 18.364 20.429 18.1528L20.2606 17.5769ZM17.8143 18.6282L17.3307 18.2731C17.0817 18.6122 16.9863 19.0072 16.9424 19.4333C16.8992 19.8527 16.9 20.3812 16.9 21.0242H17.5H18.1C18.1 20.3553 18.1008 19.8998 18.1361 19.5562C18.1708 19.2193 18.2326 19.0723 18.2979 18.9834L17.8143 18.6282ZM17.5 21.0242H16.9V23.3466H17.5H18.1V21.0242H17.5ZM17.5 23.3466H16.9C16.9 25.7857 17.9704 27.7223 19.2684 29.1686C20.5621 30.6101 22.1036 31.591 23.1202 32.1428L23.4064 31.6155L23.6927 31.0882C22.7406 30.5713 21.3289 29.6679 20.1615 28.3671C18.9984 27.0712 18.1 25.4078 18.1 23.3466H17.5ZM23.4064 31.6155L23.1202 32.1428C23.5736 32.3889 23.9396 32.6 24.5 32.6V32V31.4C24.2898 31.4 24.1837 31.3547 23.6927 31.0882L23.4064 31.6155ZM24.5 32V32.6C25.0604 32.6 25.4264 32.3889 25.8798 32.1428L25.5936 31.6155L25.3073 31.0882C24.8163 31.3547 24.7102 31.4 24.5 31.4V32ZM25.5936 31.6155L25.8798 32.1428C26.8964 31.591 28.4379 30.6101 29.7316 29.1686C31.0296 27.7223 32.1 25.7857 32.1 23.3466H31.5H30.9C30.9 25.4078 30.0016 27.0712 28.8385 28.3671C27.6711 29.6679 26.2594 30.5713 25.3073 31.0882L25.5936 31.6155Z" fill="#6D0D26"/>
</svg>
