<svg width="24" height="24" viewBox="0 0 24 24" fill="none" xmlns="http://www.w3.org/2000/svg">
<path d="M10.4716 4.70725C10.8622 4.5694 11.0671 4.14101 10.9293 3.7504C10.7914 3.3598 10.363 3.1549 9.97241 3.29275L10.222 4L10.4716 4.70725ZM9.63303 4.20786L9.38343 3.50061L9.38341 3.50062L9.63303 4.20786ZM5.54169 17.6556L4.92942 18.0888L4.92944 18.0888L5.54169 17.6556ZM9.63303 19.7922L9.3834 20.4994L9.38347 20.4994L9.63303 19.7922ZM9.97244 20.7073C10.3631 20.8451 10.7914 20.6402 10.9293 20.2496C11.0671 19.859 10.8622 19.4306 10.4716 19.2927L10.222 20L9.97244 20.7073ZM10.222 11.25C9.80779 11.25 9.472 11.5858 9.472 12C9.472 12.4142 9.80779 12.75 10.222 12.75V12V11.25ZM17.4114 9.23997C17.1144 8.95126 16.6396 8.95801 16.3509 9.25504C16.0622 9.55206 16.0689 10.0269 16.3659 10.3156L16.8887 9.77778L17.4114 9.23997ZM16.3659 13.6844C16.0689 13.9731 16.0622 14.4479 16.3508 14.7449C16.6395 15.042 17.1144 15.0487 17.4114 14.76L16.8887 14.2222L16.3659 13.6844ZM10.222 4L9.97241 3.29275L9.38343 3.50061L9.63303 4.20786L9.88262 4.91511L10.4716 4.70725L10.222 4ZM9.63303 4.20786L9.38341 3.50062C8.25338 3.89946 7.34681 4.21826 6.64528 4.55861C5.9266 4.90729 5.35542 5.3091 4.92943 5.91119L5.54169 6.34437L6.15394 6.77755C6.38097 6.45667 6.70935 6.19474 7.30004 5.90817C7.90788 5.61326 8.72047 5.32529 9.88265 4.9151L9.63303 4.20786ZM5.54169 6.34437L4.92943 5.91119C4.50344 6.51328 4.31464 7.18564 4.22503 7.9794C4.13756 8.75422 4.13867 9.71522 4.13867 10.9136H4.88867H5.63867C5.63867 9.68113 5.63978 8.819 5.71556 8.14766C5.78921 7.49527 5.92691 7.09843 6.15394 6.77755L5.54169 6.34437ZM4.88867 10.9136H4.13867V13.0864H4.88867H5.63867V10.9136H4.88867ZM4.88867 13.0864H4.13867C4.13867 14.2848 4.13756 15.2458 4.22503 16.0206C4.31464 16.8144 4.50344 17.4867 4.92942 18.0888L5.54169 17.6556L6.15395 17.2225C5.92691 16.9016 5.78921 16.5047 5.71556 15.8523C5.63978 15.181 5.63867 14.3189 5.63867 13.0864H4.88867ZM5.54169 17.6556L4.92944 18.0888C5.35542 18.6909 5.9266 19.0927 6.64528 19.4414C7.3468 19.7817 8.25337 20.1006 9.3834 20.4994L9.63303 19.7922L9.88266 19.0849C8.72048 18.6747 7.90788 18.3867 7.30004 18.0918C6.70935 17.8053 6.38096 17.5433 6.15393 17.2225L5.54169 17.6556ZM9.63303 19.7922L9.38347 20.4994L9.97244 20.7073L10.222 20L10.4716 19.2927L9.88259 19.0849L9.63303 19.7922ZM19.1109 12V11.25H10.222V12V12.75H19.1109V12ZM19.1109 12H19.8609C19.8609 11.7514 19.7753 11.5398 19.6951 11.3899C19.6117 11.234 19.5046 11.0907 19.3979 10.9653C19.1849 10.7153 18.9126 10.4669 18.6532 10.2471C18.3906 10.0246 18.1145 9.80929 17.8888 9.63199C17.6461 9.44132 17.4886 9.31502 17.4114 9.23997L16.8887 9.77778L16.3659 10.3156C16.5135 10.459 16.7462 10.6419 16.9623 10.8116C17.1953 10.9947 17.4467 11.1909 17.6835 11.3915C17.9235 11.5949 18.1224 11.7812 18.2559 11.9379C18.3224 12.016 18.3573 12.069 18.3726 12.0976C18.3911 12.1321 18.3609 12.093 18.3609 12H19.1109ZM19.1109 12H18.3609C18.3609 11.907 18.3911 11.8679 18.3726 11.9024C18.3573 11.931 18.3224 11.984 18.2559 12.0621C18.1224 12.2188 17.9235 12.4051 17.6835 12.6085C17.4467 12.8091 17.1953 13.0053 16.9623 13.1884C16.7462 13.3581 16.5135 13.541 16.3659 13.6844L16.8887 14.2222L17.4114 14.76C17.4886 14.685 17.6461 14.5587 17.8888 14.368C18.1145 14.1907 18.3906 13.9754 18.6532 13.7529C18.9126 13.5331 19.1849 13.2847 19.3979 13.0347C19.5046 12.9093 19.6117 12.766 19.6951 12.6101C19.7753 12.4602 19.8609 12.2486 19.8609 12H19.1109Z" fill="#FF4213" fill-opacity="0.9"/>
</svg>
