<svg width="24" height="24" viewBox="0 0 24 24" fill="none" xmlns="http://www.w3.org/2000/svg">
<path d="M8.66954 19.2076L8.37769 19.8985L8.37772 19.8985L8.66954 19.2076ZM4.75 8C4.75 7.58579 4.41421 7.25 4 7.25C3.58579 7.25 3.25 7.58579 3.25 8H4H4.75ZM11.95 11.4838C11.95 11.0696 11.6142 10.7338 11.2 10.7338C10.7858 10.7338 10.45 11.0696 10.45 11.4838H11.2H11.95ZM12.2306 20.5765C12.6248 20.4491 12.841 20.0263 12.7137 19.6322C12.5863 19.238 12.1635 19.0218 11.7694 19.1491L12 19.8628L12.2306 20.5765ZM19.15 8C19.15 7.58579 18.8142 7.25 18.4 7.25C17.9858 7.25 17.65 7.58579 17.65 8H18.4H19.15ZM17.65 11.6C17.65 12.0142 17.9858 12.35 18.4 12.35C18.8142 12.35 19.15 12.0142 19.15 11.6H18.4H17.65ZM8.26074 10.1531L8.58742 9.47799L8.58742 9.47799L8.26074 10.1531ZM5.92378 9.02228L5.59709 9.69739L5.5971 9.6974L5.92378 9.02228ZM5.92378 6.17772L5.5971 5.5026L5.59709 5.50261L5.92378 6.17772ZM8.26074 5.0469L8.58742 5.72201L8.58742 5.72201L8.26074 5.0469ZM14.1393 5.0469L13.8126 5.72201L13.8126 5.72201L14.1393 5.0469ZM16.4762 6.17772L16.8029 5.50261L16.8029 5.5026L16.4762 6.17772ZM16.4762 9.02228L16.8029 9.6974L16.8029 9.69739L16.4762 9.02228ZM14.1393 10.1531L13.8126 9.47799L13.8126 9.47799L14.1393 10.1531ZM6.73541 11.3292C6.36493 11.1439 5.91442 11.2941 5.72918 11.6646C5.54394 12.0351 5.69411 12.4856 6.06459 12.6708L6.4 12L6.73541 11.3292ZM7.66459 13.4708C8.03507 13.6561 8.48558 13.5059 8.67082 13.1354C8.85606 12.7649 8.70589 12.3144 8.33541 12.1292L8 12.8L7.66459 13.4708ZM15.5354 6.27082C15.9059 6.08558 16.0561 5.63507 15.8708 5.26459C15.6856 4.89411 15.2351 4.74394 14.8646 4.92918L15.2 5.6L15.5354 6.27082ZM6.86459 8.92918C6.49411 9.11442 6.34394 9.56493 6.52918 9.93541C6.71442 10.3059 7.16493 10.4561 7.53541 10.2708L7.2 9.6L6.86459 8.92918ZM19.0323 17.993C18.7373 17.7022 18.2624 17.7056 17.9716 18.0006C17.6808 18.2956 17.6843 18.7705 17.9793 19.0613L18.5058 18.5271L19.0323 17.993ZM19.4735 20.5341C19.7685 20.8249 20.2434 20.8215 20.5341 20.5265C20.8249 20.2315 20.8215 19.7566 20.5265 19.4659L20 20L19.4735 20.5341ZM11.2 20V19.25C10.7329 19.25 10.2704 19.0696 8.96137 18.5167L8.66954 19.2076L8.37772 19.8985C9.56993 20.4021 10.358 20.75 11.2 20.75V20ZM8.66954 19.2076L8.9614 18.5167C7.3817 17.8494 6.27487 17.3798 5.55329 16.9468C4.8082 16.4997 4.75 16.2529 4.75 16.129H4H3.25C3.25 17.1112 3.97006 17.7461 4.78148 18.233C5.61642 18.7341 6.84435 19.2508 8.37769 19.8985L8.66954 19.2076ZM4 16.129H4.75C4.75 16.1284 4.75 16.1278 4.75 16.1272C4.75 16.1265 4.75 16.1259 4.75 16.1252C4.75 16.1245 4.75 16.1238 4.75 16.1231C4.75 16.1224 4.75 16.1216 4.75 16.1209C4.75 16.1201 4.75 16.1193 4.75 16.1185C4.75 16.1177 4.75 16.1169 4.75 16.1161C4.75 16.1152 4.75 16.1144 4.75 16.1135C4.75 16.1127 4.75 16.1118 4.75 16.1109C4.75 16.1099 4.75 16.109 4.75 16.1081C4.75 16.1071 4.75 16.1062 4.75 16.1052C4.75 16.1042 4.75 16.1032 4.75 16.1022C4.75 16.1011 4.75 16.1001 4.75 16.099C4.75 16.098 4.75 16.0969 4.75 16.0958C4.75 16.0947 4.75 16.0936 4.75 16.0925C4.75 16.0913 4.75 16.0902 4.75 16.089C4.75 16.0878 4.75 16.0866 4.75 16.0854C4.75 16.0842 4.75 16.083 4.75 16.0818C4.75 16.0805 4.75 16.0793 4.75 16.078C4.75 16.0767 4.75 16.0754 4.75 16.0741C4.75 16.0728 4.75 16.0714 4.75 16.0701C4.75 16.0687 4.75 16.0673 4.75 16.066C4.75 16.0646 4.75 16.0632 4.75 16.0617C4.75 16.0603 4.75 16.0589 4.75 16.0574C4.75 16.0559 4.75 16.0545 4.75 16.053C4.75 16.0515 4.75 16.05 4.75 16.0484C4.75 16.0469 4.75 16.0453 4.75 16.0438C4.75 16.0422 4.75 16.0406 4.75 16.039C4.75 16.0374 4.75 16.0358 4.75 16.0342C4.75 16.0325 4.75 16.0309 4.75 16.0292C4.75 16.0275 4.75 16.0258 4.75 16.0241C4.75 16.0224 4.75 16.0207 4.75 16.0189C4.75 16.0172 4.75 16.0154 4.75 16.0136C4.75 16.0119 4.75 16.0101 4.75 16.0083C4.75 16.0064 4.75 16.0046 4.75 16.0028C4.75 16.0009 4.75 15.9991 4.75 15.9972C4.75 15.9953 4.75 15.9934 4.75 15.9915C4.75 15.9896 4.75 15.9876 4.75 15.9857C4.75 15.9837 4.75 15.9817 4.75 15.9798C4.75 15.9778 4.75 15.9758 4.75 15.9738C4.75 15.9717 4.75 15.9697 4.75 15.9676C4.75 15.9656 4.75 15.9635 4.75 15.9614C4.75 15.9593 4.75 15.9572 4.75 15.9551C4.75 15.953 4.75 15.9509 4.75 15.9487C4.75 15.9466 4.75 15.9444 4.75 15.9422C4.75 15.94 4.75 15.9378 4.75 15.9356C4.75 15.9334 4.75 15.9311 4.75 15.9289C4.75 15.9266 4.75 15.9243 4.75 15.9221C4.75 15.9198 4.75 15.9175 4.75 15.9151C4.75 15.9128 4.75 15.9105 4.75 15.9081C4.75 15.9058 4.75 15.9034 4.75 15.901C4.75 15.8986 4.75 15.8962 4.75 15.8938C4.75 15.8914 4.75 15.889 4.75 15.8865C4.75 15.8841 4.75 15.8816 4.75 15.8791C4.75 15.8766 4.75 15.8741 4.75 15.8716C4.75 15.8691 4.75 15.8666 4.75 15.864C4.75 15.8615 4.75 15.8589 4.75 15.8563C4.75 15.8538 4.75 15.8512 4.75 15.8485C4.75 15.8459 4.75 15.8433 4.75 15.8407C4.75 15.838 4.75 15.8354 4.75 15.8327C4.75 15.83 4.75 15.8273 4.75 15.8246C4.75 15.8219 4.75 15.8192 4.75 15.8164C4.75 15.8137 4.75 15.811 4.75 15.8082C4.75 15.8054 4.75 15.8026 4.75 15.7998C4.75 15.797 4.75 15.7942 4.75 15.7914C4.75 15.7886 4.75 15.7857 4.75 15.7828C4.75 15.78 4.75 15.7771 4.75 15.7742C4.75 15.7713 4.75 15.7684 4.75 15.7655C4.75 15.7626 4.75 15.7596 4.75 15.7567C4.75 15.7537 4.75 15.7507 4.75 15.7478C4.75 15.7448 4.75 15.7418 4.75 15.7388C4.75 15.7357 4.75 15.7327 4.75 15.7297C4.75 15.7266 4.75 15.7236 4.75 15.7205C4.75 15.7174 4.75 15.7143 4.75 15.7112C4.75 15.7081 4.75 15.705 4.75 15.7019C4.75 15.6987 4.75 15.6956 4.75 15.6924C4.75 15.6892 4.75 15.6861 4.75 15.6829C4.75 15.6797 4.75 15.6765 4.75 15.6732C4.75 15.67 4.75 15.6668 4.75 15.6635C4.75 15.6603 4.75 15.657 4.75 15.6537C4.75 15.6504 4.75 15.6471 4.75 15.6438C4.75 15.6405 4.75 15.6372 4.75 15.6339C4.75 15.6305 4.75 15.6272 4.75 15.6238C4.75 15.6204 4.75 15.617 4.75 15.6136C4.75 15.6102 4.75 15.6068 4.75 15.6034C4.75 15.6 4.75 15.5965 4.75 15.5931C4.75 15.5896 4.75 15.5861 4.75 15.5827C4.75 15.5792 4.75 15.5757 4.75 15.5722C4.75 15.5687 4.75 15.5651 4.75 15.5616C4.75 15.558 4.75 15.5545 4.75 15.5509C4.75 15.5474 4.75 15.5438 4.75 15.5402C4.75 15.5366 4.75 15.533 4.75 15.5293C4.75 15.5257 4.75 15.5221 4.75 15.5184C4.75 15.5148 4.75 15.5111 4.75 15.5074C4.75 15.5037 4.75 15.5001 4.75 15.4963C4.75 15.4926 4.75 15.4889 4.75 15.4852C4.75 15.4815 4.75 15.4777 4.75 15.4739C4.75 15.4702 4.75 15.4664 4.75 15.4626C4.75 15.4588 4.75 15.455 4.75 15.4512C4.75 15.4474 4.75 15.4436 4.75 15.4397C4.75 15.4359 4.75 15.432 4.75 15.4281C4.75 15.4243 4.75 15.4204 4.75 15.4165C4.75 15.4126 4.75 15.4087 4.75 15.4048C4.75 15.4008 4.75 15.3969 4.75 15.393C4.75 15.389 4.75 15.3851 4.75 15.3811C4.75 15.3771 4.75 15.3731 4.75 15.3691C4.75 15.3651 4.75 15.3611 4.75 15.3571C4.75 15.353 4.75 15.349 4.75 15.3449C4.75 15.3409 4.75 15.3368 4.75 15.3327C4.75 15.3287 4.75 15.3246 4.75 15.3205C4.75 15.3164 4.75 15.3122 4.75 15.3081C4.75 15.304 4.75 15.2998 4.75 15.2957C4.75 15.2915 4.75 15.2874 4.75 15.2832C4.75 15.279 4.75 15.2748 4.75 15.2706C4.75 15.2664 4.75 15.2622 4.75 15.2579C4.75 15.2537 4.75 15.2495 4.75 15.2452C4.75 15.2409 4.75 15.2367 4.75 15.2324C4.75 15.2281 4.75 15.2238 4.75 15.2195C4.75 15.2152 4.75 15.2109 4.75 15.2066C4.75 15.2022 4.75 15.1979 4.75 15.1935C4.75 15.1892 4.75 15.1848 4.75 15.1804C4.75 15.176 4.75 15.1716 4.75 15.1672C4.75 15.1628 4.75 15.1584 4.75 15.154C4.75 15.1496 4.75 15.1451 4.75 15.1407C4.75 15.1362 4.75 15.1318 4.75 15.1273C4.75 15.1228 4.75 15.1183 4.75 15.1138C4.75 15.1093 4.75 15.1048 4.75 15.1003C4.75 15.0957 4.75 15.0912 4.75 15.0867C4.75 15.0821 4.75 15.0776 4.75 15.073C4.75 15.0684 4.75 15.0638 4.75 15.0592C4.75 15.0546 4.75 15.05 4.75 15.0454C4.75 15.0408 4.75 15.0362 4.75 15.0315C4.75 15.0269 4.75 15.0222 4.75 15.0176C4.75 15.0129 4.75 15.0082 4.75 15.0036C4.75 14.9989 4.75 14.9942 4.75 14.9895C4.75 14.9848 4.75 14.98 4.75 14.9753C4.75 14.9706 4.75 14.9658 4.75 14.9611C4.75 14.9563 4.75 14.9516 4.75 14.9468C4.75 14.942 4.75 14.9372 4.75 14.9324C4.75 14.9276 4.75 14.9228 4.75 14.918C4.75 14.9132 4.75 14.9083 4.75 14.9035C4.75 14.8986 4.75 14.8938 4.75 14.8889C4.75 14.8841 4.75 14.8792 4.75 14.8743C4.75 14.8694 4.75 14.8645 4.75 14.8596C4.75 14.8547 4.75 14.8498 4.75 14.8448C4.75 14.8399 4.75 14.835 4.75 14.83C4.75 14.8251 4.75 14.8201 4.75 14.8151C4.75 14.8102 4.75 14.8052 4.75 14.8002C4.75 14.7952 4.75 14.7902 4.75 14.7852C4.75 14.7802 4.75 14.7751 4.75 14.7701C4.75 14.7651 4.75 14.76 4.75 14.755C4.75 14.7499 4.75 14.7448 4.75 14.7398C4.75 14.7347 4.75 14.7296 4.75 14.7245C4.75 14.7194 4.75 14.7143 4.75 14.7092C4.75 14.7041 4.75 14.6989 4.75 14.6938C4.75 14.6887 4.75 14.6835 4.75 14.6783C4.75 14.6732 4.75 14.668 4.75 14.6628C4.75 14.6577 4.75 14.6525 4.75 14.6473C4.75 14.6421 4.75 14.6369 4.75 14.6316C4.75 14.6264 4.75 14.6212 4.75 14.616C4.75 14.6107 4.75 14.6055 4.75 14.6002C4.75 14.595 4.75 14.5897 4.75 14.5844C4.75 14.5791 4.75 14.5738 4.75 14.5685C4.75 14.5632 4.75 14.5579 4.75 14.5526C4.75 14.5473 4.75 14.542 4.75 14.5366C4.75 14.5313 4.75 14.526 4.75 14.5206C4.75 14.5153 4.75 14.5099 4.75 14.5045C4.75 14.4991 4.75 14.4938 4.75 14.4884C4.75 14.483 4.75 14.4776 4.75 14.4722C4.75 14.4668 4.75 14.4613 4.75 14.4559C4.75 14.4505 4.75 14.445 4.75 14.4396C4.75 14.4341 4.75 14.4287 4.75 14.4232C4.75 14.4177 4.75 14.4123 4.75 14.4068C4.75 14.4013 4.75 14.3958 4.75 14.3903C4.75 14.3848 4.75 14.3793 4.75 14.3738C4.75 14.3682 4.75 14.3627 4.75 14.3572C4.75 14.3516 4.75 14.3461 4.75 14.3405C4.75 14.335 4.75 14.3294 4.75 14.3238C4.75 14.3183 4.75 14.3127 4.75 14.3071C4.75 14.3015 4.75 14.2959 4.75 14.2903C4.75 14.2847 4.75 14.2791 4.75 14.2734C4.75 14.2678 4.75 14.2622 4.75 14.2565C4.75 14.2509 4.75 14.2452 4.75 14.2396C4.75 14.2339 4.75 14.2283 4.75 14.2226C4.75 14.2169 4.75 14.2112 4.75 14.2055C4.75 14.1998 4.75 14.1941 4.75 14.1884C4.75 14.1827 4.75 14.177 4.75 14.1713C4.75 14.1655 4.75 14.1598 4.75 14.154C4.75 14.1483 4.75 14.1426 4.75 14.1368C4.75 14.131 4.75 14.1253 4.75 14.1195C4.75 14.1137 4.75 14.1079 4.75 14.1021C4.75 14.0963 4.75 14.0905 4.75 14.0847C4.75 14.0789 4.75 14.0731 4.75 14.0673C4.75 14.0615 4.75 14.0556 4.75 14.0498C4.75 14.044 4.75 14.0381 4.75 14.0323C4.75 14.0264 4.75 14.0205 4.75 14.0147C4.75 14.0088 4.75 14.0029 4.75 13.997C4.75 13.9911 4.75 13.9852 4.75 13.9793C4.75 13.9734 4.75 13.9675 4.75 13.9616C4.75 13.9557 4.75 13.9498 4.75 13.9438C4.75 13.9379 4.75 13.932 4.75 13.926C4.75 13.9201 4.75 13.9141 4.75 13.9082C4.75 13.9022 4.75 13.8962 4.75 13.8903C4.75 13.8843 4.75 13.8783 4.75 13.8723C4.75 13.8663 4.75 13.8603 4.75 13.8543C4.75 13.8483 4.75 13.8423 4.75 13.8363C4.75 13.8303 4.75 13.8242 4.75 13.8182C4.75 13.8122 4.75 13.8061 4.75 13.8001C4.75 13.794 4.75 13.788 4.75 13.7819C4.75 13.7759 4.75 13.7698 4.75 13.7637C4.75 13.7576 4.75 13.7516 4.75 13.7455C4.75 13.7394 4.75 13.7333 4.75 13.7272C4.75 13.7211 4.75 13.715 4.75 13.7089C4.75 13.7027 4.75 13.6966 4.75 13.6905C4.75 13.6844 4.75 13.6782 4.75 13.6721C4.75 13.6659 4.75 13.6598 4.75 13.6536C4.75 13.6475 4.75 13.6413 4.75 13.6352C4.75 13.629 4.75 13.6228 4.75 13.6166C4.75 13.6105 4.75 13.6043 4.75 13.5981C4.75 13.5919 4.75 13.5857 4.75 13.5795C4.75 13.5733 4.75 13.567 4.75 13.5608C4.75 13.5546 4.75 13.5484 4.75 13.5422C4.75 13.5359 4.75 13.5297 4.75 13.5234C4.75 13.5172 4.75 13.5109 4.75 13.5047C4.75 13.4984 4.75 13.4922 4.75 13.4859C4.75 13.4796 4.75 13.4734 4.75 13.4671C4.75 13.4608 4.75 13.4545 4.75 13.4482C4.75 13.4419 4.75 13.4356 4.75 13.4293C4.75 13.423 4.75 13.4167 4.75 13.4104C4.75 13.4041 4.75 13.3978 4.75 13.3914C4.75 13.3851 4.75 13.3788 4.75 13.3724C4.75 13.3661 4.75 13.3598 4.75 13.3534C4.75 13.3471 4.75 13.3407 4.75 13.3344C4.75 13.328 4.75 13.3216 4.75 13.3153C4.75 13.3089 4.75 13.3025 4.75 13.2961C4.75 13.2897 4.75 13.2834 4.75 13.277C4.75 13.2706 4.75 13.2642 4.75 13.2578C4.75 13.2514 4.75 13.245 4.75 13.2386C4.75 13.2321 4.75 13.2257 4.75 13.2193C4.75 13.2129 4.75 13.2064 4.75 13.2C4.75 13.1936 4.75 13.1871 4.75 13.1807C4.75 13.1742 4.75 13.1678 4.75 13.1613C4.75 13.1549 4.75 13.1484 4.75 13.142C4.75 13.1355 4.75 13.129 4.75 13.1226C4.75 13.1161 4.75 13.1096 4.75 13.1031C4.75 13.0966 4.75 13.0901 4.75 13.0837C4.75 13.0772 4.75 13.0707 4.75 13.0642C4.75 13.0577 4.75 13.0512 4.75 13.0446C4.75 13.0381 4.75 13.0316 4.75 13.0251C4.75 13.0186 4.75 13.012 4.75 13.0055C4.75 12.999 4.75 12.9924 4.75 12.9859C4.75 12.9794 4.75 12.9728 4.75 12.9663C4.75 12.9597 4.75 12.9532 4.75 12.9466C4.75 12.9401 4.75 12.9335 4.75 12.9269C4.75 12.9204 4.75 12.9138 4.75 12.9072C4.75 12.9007 4.75 12.8941 4.75 12.8875C4.75 12.8809 4.75 12.8743 4.75 12.8677C4.75 12.8612 4.75 12.8546 4.75 12.848C4.75 12.8414 4.75 12.8348 4.75 12.8282C4.75 12.8215 4.75 12.8149 4.75 12.8083C4.75 12.8017 4.75 12.7951 4.75 12.7885C4.75 12.7818 4.75 12.7752 4.75 12.7686C4.75 12.762 4.75 12.7553 4.75 12.7487C4.75 12.7421 4.75 12.7354 4.75 12.7288C4.75 12.7221 4.75 12.7155 4.75 12.7088C4.75 12.7022 4.75 12.6955 4.75 12.6889C4.75 12.6822 4.75 12.6755 4.75 12.6689C4.75 12.6622 4.75 12.6555 4.75 12.6489C4.75 12.6422 4.75 12.6355 4.75 12.6288C4.75 12.6222 4.75 12.6155 4.75 12.6088C4.75 12.6021 4.75 12.5954 4.75 12.5887C4.75 12.582 4.75 12.5753 4.75 12.5686C4.75 12.5619 4.75 12.5552 4.75 12.5485C4.75 12.5418 4.75 12.5351 4.75 12.5284C4.75 12.5217 4.75 12.515 4.75 12.5082C4.75 12.5015 4.75 12.4948 4.75 12.4881C4.75 12.4814 4.75 12.4746 4.75 12.4679C4.75 12.4612 4.75 12.4544 4.75 12.4477C4.75 12.441 4.75 12.4342 4.75 12.4275C4.75 12.4207 4.75 12.414 4.75 12.4073C4.75 12.4005 4.75 12.3938 4.75 12.387C4.75 12.3803 4.75 12.3735 4.75 12.3667C4.75 12.36 4.75 12.3532 4.75 12.3465C4.75 12.3397 4.75 12.3329 4.75 12.3262C4.75 12.3194 4.75 12.3126 4.75 12.3059C4.75 12.2991 4.75 12.2923 4.75 12.2855C4.75 12.2788 4.75 12.272 4.75 12.2652C4.75 12.2584 4.75 12.2516 4.75 12.2448C4.75 12.2381 4.75 12.2313 4.75 12.2245C4.75 12.2177 4.75 12.2109 4.75 12.2041C4.75 12.1973 4.75 12.1905 4.75 12.1837C4.75 12.1769 4.75 12.1701 4.75 12.1633C4.75 12.1565 4.75 12.1497 4.75 12.1429C4.75 12.1361 4.75 12.1293 4.75 12.1225C4.75 12.1156 4.75 12.1088 4.75 12.102C4.75 12.0952 4.75 12.0884 4.75 12.0816C4.75 12.0747 4.75 12.0679 4.75 12.0611C4.75 12.0543 4.75 12.0475 4.75 12.0406C4.75 12.0338 4.75 12.027 4.75 12.0202C4.75 12.0133 4.75 12.0065 4.75 11.9997C4.75 11.9928 4.75 11.986 4.75 11.9792C4.75 11.9723 4.75 11.9655 4.75 11.9587C4.75 11.9518 4.75 11.945 4.75 11.9381C4.75 11.9313 4.75 11.9245 4.75 11.9176C4.75 11.9108 4.75 11.9039 4.75 11.8971C4.75 11.8902 4.75 11.8834 4.75 11.8765C4.75 11.8697 4.75 11.8628 4.75 11.856C4.75 11.8491 4.75 11.8423 4.75 11.8354C4.75 11.8286 4.75 11.8217 4.75 11.8149C4.75 11.808 4.75 11.8012 4.75 11.7943C4.75 11.7875 4.75 11.7806 4.75 11.7737C4.75 11.7669 4.75 11.76 4.75 11.7532C4.75 11.7463 4.75 11.7394 4.75 11.7326C4.75 11.7257 4.75 11.7189 4.75 11.712C4.75 11.7051 4.75 11.6983 4.75 11.6914C4.75 11.6845 4.75 11.6777 4.75 11.6708C4.75 11.6639 4.75 11.6571 4.75 11.6502C4.75 11.6433 4.75 11.6365 4.75 11.6296C4.75 11.6227 4.75 11.6159 4.75 11.609C4.75 11.6021 4.75 11.5953 4.75 11.5884C4.75 11.5815 4.75 11.5747 4.75 11.5678C4.75 11.5609 4.75 11.554 4.75 11.5472C4.75 11.5403 4.75 11.5334 4.75 11.5266C4.75 11.5197 4.75 11.5128 4.75 11.506C4.75 11.4991 4.75 11.4922 4.75 11.4853C4.75 11.4785 4.75 11.4716 4.75 11.4647C4.75 11.4579 4.75 11.451 4.75 11.4441C4.75 11.4372 4.75 11.4304 4.75 11.4235C4.75 11.4166 4.75 11.4098 4.75 11.4029C4.75 11.396 4.75 11.3891 4.75 11.3823C4.75 11.3754 4.75 11.3685 4.75 11.3617C4.75 11.3548 4.75 11.3479 4.75 11.3411C4.75 11.3342 4.75 11.3273 4.75 11.3205C4.75 11.3136 4.75 11.3067 4.75 11.2999C4.75 11.293 4.75 11.2861 4.75 11.2793C4.75 11.2724 4.75 11.2655 4.75 11.2587C4.75 11.2518 4.75 11.2449 4.75 11.2381C4.75 11.2312 4.75 11.2243 4.75 11.2175C4.75 11.2106 4.75 11.2038 4.75 11.1969C4.75 11.19 4.75 11.1832 4.75 11.1763C4.75 11.1695 4.75 11.1626 4.75 11.1557C4.75 11.1489 4.75 11.142 4.75 11.1352C4.75 11.1283 4.75 11.1215 4.75 11.1146C4.75 11.1077 4.75 11.1009 4.75 11.094C4.75 11.0872 4.75 11.0803 4.75 11.0735C4.75 11.0666 4.75 11.0598 4.75 11.053C4.75 11.0461 4.75 11.0393 4.75 11.0324C4.75 11.0256 4.75 11.0187 4.75 11.0119C4.75 11.005 4.75 10.9982 4.75 10.9914C4.75 10.9845 4.75 10.9777 4.75 10.9709C4.75 10.964 4.75 10.9572 4.75 10.9503C4.75 10.9435 4.75 10.9367 4.75 10.9299C4.75 10.923 4.75 10.9162 4.75 10.9094C4.75 10.9025 4.75 10.8957 4.75 10.8889C4.75 10.8821 4.75 10.8752 4.75 10.8684C4.75 10.8616 4.75 10.8548 4.75 10.848C4.75 10.8411 4.75 10.8343 4.75 10.8275C4.75 10.8207 4.75 10.8139 4.75 10.8071C4.75 10.8003 4.75 10.7935 4.75 10.7867C4.75 10.7799 4.75 10.7731 4.75 10.7663C4.75 10.7595 4.75 10.7527 4.75 10.7459C4.75 10.7391 4.75 10.7323 4.75 10.7255C4.75 10.7187 4.75 10.7119 4.75 10.7051C4.75 10.6983 4.75 10.6915 4.75 10.6847C4.75 10.678 4.75 10.6712 4.75 10.6644C4.75 10.6576 4.75 10.6508 4.75 10.6441C4.75 10.6373 4.75 10.6305 4.75 10.6237C4.75 10.617 4.75 10.6102 4.75 10.6034C4.75 10.5967 4.75 10.5899 4.75 10.5832C4.75 10.5764 4.75 10.5696 4.75 10.5629C4.75 10.5561 4.75 10.5494 4.75 10.5426C4.75 10.5359 4.75 10.5291 4.75 10.5224C4.75 10.5156 4.75 10.5089 4.75 10.5022C4.75 10.4954 4.75 10.4887 4.75 10.4819C4.75 10.4752 4.75 10.4685 4.75 10.4618C4.75 10.455 4.75 10.4483 4.75 10.4416C4.75 10.4349 4.75 10.4281 4.75 10.4214C4.75 10.4147 4.75 10.408 4.75 10.4013C4.75 10.3946 4.75 10.3879 4.75 10.3812C4.75 10.3745 4.75 10.3678 4.75 10.3611C4.75 10.3544 4.75 10.3477 4.75 10.341C4.75 10.3343 4.75 10.3276 4.75 10.3209C4.75 10.3143 4.75 10.3076 4.75 10.3009C4.75 10.2942 4.75 10.2876 4.75 10.2809C4.75 10.2742 4.75 10.2675 4.75 10.2609C4.75 10.2542 4.75 10.2476 4.75 10.2409C4.75 10.2342 4.75 10.2276 4.75 10.2209C4.75 10.2143 4.75 10.2077 4.75 10.201C4.75 10.1944 4.75 10.1877 4.75 10.1811C4.75 10.1745 4.75 10.1678 4.75 10.1612C4.75 10.1546 4.75 10.148 4.75 10.1413C4.75 10.1347 4.75 10.1281 4.75 10.1215C4.75 10.1149 4.75 10.1083 4.75 10.1017C4.75 10.0951 4.75 10.0885 4.75 10.0819C4.75 10.0753 4.75 10.0687 4.75 10.0621C4.75 10.0555 4.75 10.0489 4.75 10.0424C4.75 10.0358 4.75 10.0292 4.75 10.0226C4.75 10.0161 4.75 10.0095 4.75 10.003C4.75 9.99639 4.75 9.98984 4.75 9.98328C4.75 9.97673 4.75 9.97018 4.75 9.96364C4.75 9.95709 4.75 9.95056 4.75 9.94402C4.75 9.93749 4.75 9.93096 4.75 9.92443C4.75 9.9179 4.75 9.91138 4.75 9.90487C4.75 9.89835 4.75 9.89184 4.75 9.88533C4.75 9.87882 4.75 9.87232 4.75 9.86582C4.75 9.85932 4.75 9.85283 4.75 9.84634C4.75 9.83985 4.75 9.83337 4.75 9.82689C4.75 9.82041 4.75 9.81394 4.75 9.80747C4.75 9.801 4.75 9.79453 4.75 9.78807C4.75 9.78161 4.75 9.77516 4.75 9.76871C4.75 9.76226 4.75 9.75582 4.75 9.74938C4.75 9.74294 4.75 9.7365 4.75 9.73007C4.75 9.72364 4.75 9.71722 4.75 9.7108C4.75 9.70438 4.75 9.69797 4.75 9.69156C4.75 9.68515 4.75 9.67875 4.75 9.67235C4.75 9.66595 4.75 9.65956 4.75 9.65317C4.75 9.64678 4.75 9.6404 4.75 9.63402C4.75 9.62765 4.75 9.62128 4.75 9.61491C4.75 9.60855 4.75 9.60218 4.75 9.59583C4.75 9.58948 4.75 9.58313 4.75 9.57678C4.75 9.57044 4.75 9.5641 4.75 9.55777C4.75 9.55144 4.75 9.54511 4.75 9.53879C4.75 9.53247 4.75 9.52615 4.75 9.51984C4.75 9.51353 4.75 9.50723 4.75 9.50093C4.75 9.49464 4.75 9.48834 4.75 9.48206C4.75 9.47577 4.75 9.46949 4.75 9.46322C4.75 9.45694 4.75 9.45067 4.75 9.44441C4.75 9.43815 4.75 9.43189 4.75 9.42564C4.75 9.41939 4.75 9.41315 4.75 9.40691C4.75 9.40067 4.75 9.39444 4.75 9.38822C4.75 9.38199 4.75 9.37577 4.75 9.36956C4.75 9.36334 4.75 9.35714 4.75 9.35094C4.75 9.34474 4.75 9.33854 4.75 9.33235C4.75 9.32617 4.75 9.31998 4.75 9.31381C4.75 9.30763 4.75 9.30147 4.75 9.2953C4.75 9.28914 4.75 9.28299 4.75 9.27684C4.75 9.27069 4.75 9.26454 4.75 9.25841C4.75 9.25227 4.75 9.24614 4.75 9.24002C4.75 9.2339 4.75 9.22778 4.75 9.22167C4.75 9.21556 4.75 9.20946 4.75 9.20336C4.75 9.19727 4.75 9.19118 4.75 9.1851C4.75 9.17902 4.75 9.17294 4.75 9.16687C4.75 9.1608 4.75 9.15474 4.75 9.14869C4.75 9.14263 4.75 9.13659 4.75 9.13054C4.75 9.1245 4.75 9.11847 4.75 9.11244C4.75 9.10642 4.75 9.1004 4.75 9.09439C4.75 9.08837 4.75 9.08237 4.75 9.07637C4.75 9.07037 4.75 9.06438 4.75 9.0584C4.75 9.05242 4.75 9.04644 4.75 9.04047C4.75 9.0345 4.75 9.02854 4.75 9.02259C4.75 9.01663 4.75 9.01069 4.75 9.00475C4.75 8.99881 4.75 8.99287 4.75 8.98695C4.75 8.98103 4.75 8.97511 4.75 8.9692C4.75 8.96329 4.75 8.95739 4.75 8.95149C4.75 8.9456 4.75 8.93971 4.75 8.93384C4.75 8.92796 4.75 8.92209 4.75 8.91622C4.75 8.91036 4.75 8.9045 4.75 8.89865C4.75 8.89281 4.75 8.88697 4.75 8.88113C4.75 8.8753 4.75 8.86948 4.75 8.86366C4.75 8.85784 4.75 8.85204 4.75 8.84624C4.75 8.84044 4.75 8.83464 4.75 8.82886C4.75 8.82307 4.75 8.8173 4.75 8.81153C4.75 8.80576 4.75 8.8 4.75 8.79425C4.75 8.7885 4.75 8.78275 4.75 8.77702C4.75 8.77128 4.75 8.76555 4.75 8.75983C4.75 8.75411 4.75 8.7484 4.75 8.7427C4.75 8.737 4.75 8.7313 4.75 8.72562C4.75 8.71993 4.75 8.71425 4.75 8.70858C4.75 8.70291 4.75 8.69725 4.75 8.6916C4.75 8.68595 4.75 8.68031 4.75 8.67467C4.75 8.66904 4.75 8.66341 4.75 8.65779C4.75 8.65217 4.75 8.64656 4.75 8.64096C4.75 8.63536 4.75 8.62977 4.75 8.62419C4.75 8.6186 4.75 8.61303 4.75 8.60746C4.75 8.6019 4.75 8.59634 4.75 8.59079C4.75 8.58525 4.75 8.57971 4.75 8.57418C4.75 8.56865 4.75 8.56313 4.75 8.55761C4.75 8.5521 4.75 8.5466 4.75 8.5411C4.75 8.53561 4.75 8.53012 4.75 8.52465C4.75 8.51917 4.75 8.51371 4.75 8.50825C4.75 8.50279 4.75 8.49734 4.75 8.4919C4.75 8.48646 4.75 8.48103 4.75 8.47561C4.75 8.47019 4.75 8.46478 4.75 8.45938C4.75 8.45397 4.75 8.44858 4.75 8.4432C4.75 8.43781 4.75 8.43244 4.75 8.42708C4.75 8.42171 4.75 8.41636 4.75 8.41101C4.75 8.40566 4.75 8.40033 4.75 8.395C4.75 8.38968 4.75 8.38436 4.75 8.37905C4.75 8.37374 4.75 8.36845 4.75 8.36316C4.75 8.35787 4.75 8.35259 4.75 8.34732C4.75 8.34205 4.75 8.3368 4.75 8.33155C4.75 8.3263 4.75 8.32106 4.75 8.31583C4.75 8.3106 4.75 8.30538 4.75 8.30017C4.75 8.29496 4.75 8.28976 4.75 8.28457C4.75 8.27938 4.75 8.2742 4.75 8.26903C4.75 8.26386 4.75 8.2587 4.75 8.25356C4.75 8.24841 4.75 8.24327 4.75 8.23814C4.75 8.23301 4.75 8.22789 4.75 8.22278C4.75 8.21767 4.75 8.21257 4.75 8.20749C4.75 8.2024 4.75 8.19732 4.75 8.19225C4.75 8.18719 4.75 8.18213 4.75 8.17708C4.75 8.17203 4.75 8.167 4.75 8.16197C4.75 8.15695 4.75 8.15193 4.75 8.14693C4.75 8.14192 4.75 8.13693 4.75 8.13194C4.75 8.12696 4.75 8.12199 4.75 8.11702C4.75 8.11206 4.75 8.10711 4.75 8.10217C4.75 8.09723 4.75 8.0923 4.75 8.08738C4.75 8.08246 4.75 8.07755 4.75 8.07265C4.75 8.06775 4.75 8.06287 4.75 8.05799C4.75 8.05311 4.75 8.04825 4.75 8.04339C4.75 8.03854 4.75 8.0337 4.75 8.02886C4.75 8.02403 4.75 8.01921 4.75 8.0144C4.75 8.00959 4.75 8.00479 4.75 8H4H3.25C3.25 8.00479 3.25 8.00959 3.25 8.0144C3.25 8.01921 3.25 8.02403 3.25 8.02886C3.25 8.0337 3.25 8.03854 3.25 8.04339C3.25 8.04825 3.25 8.05311 3.25 8.05799C3.25 8.06287 3.25 8.06775 3.25 8.07265C3.25 8.07755 3.25 8.08246 3.25 8.08738C3.25 8.0923 3.25 8.09723 3.25 8.10217C3.25 8.10711 3.25 8.11206 3.25 8.11702C3.25 8.12199 3.25 8.12696 3.25 8.13194C3.25 8.13693 3.25 8.14192 3.25 8.14693C3.25 8.15193 3.25 8.15695 3.25 8.16197C3.25 8.167 3.25 8.17203 3.25 8.17708C3.25 8.18213 3.25 8.18719 3.25 8.19225C3.25 8.19732 3.25 8.2024 3.25 8.20749C3.25 8.21257 3.25 8.21767 3.25 8.22278C3.25 8.22789 3.25 8.23301 3.25 8.23814C3.25 8.24327 3.25 8.24841 3.25 8.25356C3.25 8.2587 3.25 8.26386 3.25 8.26903C3.25 8.2742 3.25 8.27938 3.25 8.28457C3.25 8.28976 3.25 8.29496 3.25 8.30017C3.25 8.30538 3.25 8.3106 3.25 8.31583C3.25 8.32106 3.25 8.3263 3.25 8.33155C3.25 8.3368 3.25 8.34205 3.25 8.34732C3.25 8.35259 3.25 8.35787 3.25 8.36316C3.25 8.36845 3.25 8.37374 3.25 8.37905C3.25 8.38436 3.25 8.38968 3.25 8.395C3.25 8.40033 3.25 8.40566 3.25 8.41101C3.25 8.41636 3.25 8.42171 3.25 8.42708C3.25 8.43244 3.25 8.43781 3.25 8.4432C3.25 8.44858 3.25 8.45397 3.25 8.45938C3.25 8.46478 3.25 8.47019 3.25 8.47561C3.25 8.48103 3.25 8.48646 3.25 8.4919C3.25 8.49734 3.25 8.50279 3.25 8.50825C3.25 8.51371 3.25 8.51917 3.25 8.52465C3.25 8.53012 3.25 8.53561 3.25 8.5411C3.25 8.5466 3.25 8.5521 3.25 8.55761C3.25 8.56313 3.25 8.56865 3.25 8.57418C3.25 8.57971 3.25 8.58525 3.25 8.59079C3.25 8.59634 3.25 8.6019 3.25 8.60746C3.25 8.61303 3.25 8.6186 3.25 8.62419C3.25 8.62977 3.25 8.63536 3.25 8.64096C3.25 8.64656 3.25 8.65217 3.25 8.65779C3.25 8.66341 3.25 8.66904 3.25 8.67467C3.25 8.68031 3.25 8.68595 3.25 8.6916C3.25 8.69725 3.25 8.70291 3.25 8.70858C3.25 8.71425 3.25 8.71993 3.25 8.72562C3.25 8.7313 3.25 8.737 3.25 8.7427C3.25 8.7484 3.25 8.75411 3.25 8.75983C3.25 8.76555 3.25 8.77128 3.25 8.77702C3.25 8.78275 3.25 8.7885 3.25 8.79425C3.25 8.8 3.25 8.80576 3.25 8.81153C3.25 8.8173 3.25 8.82307 3.25 8.82886C3.25 8.83464 3.25 8.84044 3.25 8.84624C3.25 8.85204 3.25 8.85784 3.25 8.86366C3.25 8.86948 3.25 8.8753 3.25 8.88113C3.25 8.88697 3.25 8.89281 3.25 8.89865C3.25 8.9045 3.25 8.91036 3.25 8.91622C3.25 8.92209 3.25 8.92796 3.25 8.93384C3.25 8.93971 3.25 8.9456 3.25 8.95149C3.25 8.95739 3.25 8.96329 3.25 8.9692C3.25 8.97511 3.25 8.98103 3.25 8.98695C3.25 8.99287 3.25 8.99881 3.25 9.00475C3.25 9.01069 3.25 9.01663 3.25 9.02259C3.25 9.02854 3.25 9.0345 3.25 9.04047C3.25 9.04644 3.25 9.05242 3.25 9.0584C3.25 9.06438 3.25 9.07037 3.25 9.07637C3.25 9.08237 3.25 9.08837 3.25 9.09439C3.25 9.1004 3.25 9.10642 3.25 9.11244C3.25 9.11847 3.25 9.1245 3.25 9.13054C3.25 9.13659 3.25 9.14263 3.25 9.14869C3.25 9.15474 3.25 9.1608 3.25 9.16687C3.25 9.17294 3.25 9.17902 3.25 9.1851C3.25 9.19118 3.25 9.19727 3.25 9.20336C3.25 9.20946 3.25 9.21556 3.25 9.22167C3.25 9.22778 3.25 9.2339 3.25 9.24002C3.25 9.24614 3.25 9.25227 3.25 9.25841C3.25 9.26454 3.25 9.27069 3.25 9.27684C3.25 9.28299 3.25 9.28914 3.25 9.2953C3.25 9.30147 3.25 9.30763 3.25 9.31381C3.25 9.31998 3.25 9.32617 3.25 9.33235C3.25 9.33854 3.25 9.34474 3.25 9.35094C3.25 9.35714 3.25 9.36334 3.25 9.36956C3.25 9.37577 3.25 9.38199 3.25 9.38822C3.25 9.39444 3.25 9.40067 3.25 9.40691C3.25 9.41315 3.25 9.41939 3.25 9.42564C3.25 9.43189 3.25 9.43815 3.25 9.44441C3.25 9.45067 3.25 9.45694 3.25 9.46322C3.25 9.46949 3.25 9.47577 3.25 9.48206C3.25 9.48834 3.25 9.49464 3.25 9.50093C3.25 9.50723 3.25 9.51353 3.25 9.51984C3.25 9.52615 3.25 9.53247 3.25 9.53879C3.25 9.54511 3.25 9.55144 3.25 9.55777C3.25 9.5641 3.25 9.57044 3.25 9.57678C3.25 9.58313 3.25 9.58948 3.25 9.59583C3.25 9.60218 3.25 9.60855 3.25 9.61491C3.25 9.62128 3.25 9.62765 3.25 9.63402C3.25 9.6404 3.25 9.64678 3.25 9.65317C3.25 9.65956 3.25 9.66595 3.25 9.67235C3.25 9.67875 3.25 9.68515 3.25 9.69156C3.25 9.69797 3.25 9.70438 3.25 9.7108C3.25 9.71722 3.25 9.72364 3.25 9.73007C3.25 9.7365 3.25 9.74294 3.25 9.74938C3.25 9.75582 3.25 9.76226 3.25 9.76871C3.25 9.77516 3.25 9.78161 3.25 9.78807C3.25 9.79453 3.25 9.801 3.25 9.80747C3.25 9.81394 3.25 9.82041 3.25 9.82689C3.25 9.83337 3.25 9.83985 3.25 9.84634C3.25 9.85283 3.25 9.85932 3.25 9.86582C3.25 9.87232 3.25 9.87882 3.25 9.88533C3.25 9.89184 3.25 9.89835 3.25 9.90487C3.25 9.91138 3.25 9.9179 3.25 9.92443C3.25 9.93096 3.25 9.93749 3.25 9.94402C3.25 9.95056 3.25 9.95709 3.25 9.96364C3.25 9.97018 3.25 9.97673 3.25 9.98328C3.25 9.98984 3.25 9.99639 3.25 10.003C3.25 10.0095 3.25 10.0161 3.25 10.0226C3.25 10.0292 3.25 10.0358 3.25 10.0424C3.25 10.0489 3.25 10.0555 3.25 10.0621C3.25 10.0687 3.25 10.0753 3.25 10.0819C3.25 10.0885 3.25 10.0951 3.25 10.1017C3.25 10.1083 3.25 10.1149 3.25 10.1215C3.25 10.1281 3.25 10.1347 3.25 10.1413C3.25 10.148 3.25 10.1546 3.25 10.1612C3.25 10.1678 3.25 10.1745 3.25 10.1811C3.25 10.1877 3.25 10.1944 3.25 10.201C3.25 10.2077 3.25 10.2143 3.25 10.2209C3.25 10.2276 3.25 10.2342 3.25 10.2409C3.25 10.2476 3.25 10.2542 3.25 10.2609C3.25 10.2675 3.25 10.2742 3.25 10.2809C3.25 10.2876 3.25 10.2942 3.25 10.3009C3.25 10.3076 3.25 10.3143 3.25 10.3209C3.25 10.3276 3.25 10.3343 3.25 10.341C3.25 10.3477 3.25 10.3544 3.25 10.3611C3.25 10.3678 3.25 10.3745 3.25 10.3812C3.25 10.3879 3.25 10.3946 3.25 10.4013C3.25 10.408 3.25 10.4147 3.25 10.4214C3.25 10.4281 3.25 10.4349 3.25 10.4416C3.25 10.4483 3.25 10.455 3.25 10.4618C3.25 10.4685 3.25 10.4752 3.25 10.4819C3.25 10.4887 3.25 10.4954 3.25 10.5022C3.25 10.5089 3.25 10.5156 3.25 10.5224C3.25 10.5291 3.25 10.5359 3.25 10.5426C3.25 10.5494 3.25 10.5561 3.25 10.5629C3.25 10.5696 3.25 10.5764 3.25 10.5832C3.25 10.5899 3.25 10.5967 3.25 10.6034C3.25 10.6102 3.25 10.617 3.25 10.6237C3.25 10.6305 3.25 10.6373 3.25 10.6441C3.25 10.6508 3.25 10.6576 3.25 10.6644C3.25 10.6712 3.25 10.678 3.25 10.6847C3.25 10.6915 3.25 10.6983 3.25 10.7051C3.25 10.7119 3.25 10.7187 3.25 10.7255C3.25 10.7323 3.25 10.7391 3.25 10.7459C3.25 10.7527 3.25 10.7595 3.25 10.7663C3.25 10.7731 3.25 10.7799 3.25 10.7867C3.25 10.7935 3.25 10.8003 3.25 10.8071C3.25 10.8139 3.25 10.8207 3.25 10.8275C3.25 10.8343 3.25 10.8411 3.25 10.848C3.25 10.8548 3.25 10.8616 3.25 10.8684C3.25 10.8752 3.25 10.8821 3.25 10.8889C3.25 10.8957 3.25 10.9025 3.25 10.9094C3.25 10.9162 3.25 10.923 3.25 10.9299C3.25 10.9367 3.25 10.9435 3.25 10.9503C3.25 10.9572 3.25 10.964 3.25 10.9709C3.25 10.9777 3.25 10.9845 3.25 10.9914C3.25 10.9982 3.25 11.005 3.25 11.0119C3.25 11.0187 3.25 11.0256 3.25 11.0324C3.25 11.0393 3.25 11.0461 3.25 11.053C3.25 11.0598 3.25 11.0666 3.25 11.0735C3.25 11.0803 3.25 11.0872 3.25 11.094C3.25 11.1009 3.25 11.1077 3.25 11.1146C3.25 11.1215 3.25 11.1283 3.25 11.1352C3.25 11.142 3.25 11.1489 3.25 11.1557C3.25 11.1626 3.25 11.1695 3.25 11.1763C3.25 11.1832 3.25 11.19 3.25 11.1969C3.25 11.2038 3.25 11.2106 3.25 11.2175C3.25 11.2243 3.25 11.2312 3.25 11.2381C3.25 11.2449 3.25 11.2518 3.25 11.2587C3.25 11.2655 3.25 11.2724 3.25 11.2793C3.25 11.2861 3.25 11.293 3.25 11.2999C3.25 11.3067 3.25 11.3136 3.25 11.3205C3.25 11.3273 3.25 11.3342 3.25 11.3411C3.25 11.3479 3.25 11.3548 3.25 11.3617C3.25 11.3685 3.25 11.3754 3.25 11.3823C3.25 11.3891 3.25 11.396 3.25 11.4029C3.25 11.4098 3.25 11.4166 3.25 11.4235C3.25 11.4304 3.25 11.4372 3.25 11.4441C3.25 11.451 3.25 11.4579 3.25 11.4647C3.25 11.4716 3.25 11.4785 3.25 11.4853C3.25 11.4922 3.25 11.4991 3.25 11.506C3.25 11.5128 3.25 11.5197 3.25 11.5266C3.25 11.5334 3.25 11.5403 3.25 11.5472C3.25 11.554 3.25 11.5609 3.25 11.5678C3.25 11.5747 3.25 11.5815 3.25 11.5884C3.25 11.5953 3.25 11.6021 3.25 11.609C3.25 11.6159 3.25 11.6227 3.25 11.6296C3.25 11.6365 3.25 11.6433 3.25 11.6502C3.25 11.6571 3.25 11.6639 3.25 11.6708C3.25 11.6777 3.25 11.6845 3.25 11.6914C3.25 11.6983 3.25 11.7051 3.25 11.712C3.25 11.7189 3.25 11.7257 3.25 11.7326C3.25 11.7394 3.25 11.7463 3.25 11.7532C3.25 11.76 3.25 11.7669 3.25 11.7737C3.25 11.7806 3.25 11.7875 3.25 11.7943C3.25 11.8012 3.25 11.808 3.25 11.8149C3.25 11.8217 3.25 11.8286 3.25 11.8354C3.25 11.8423 3.25 11.8491 3.25 11.856C3.25 11.8628 3.25 11.8697 3.25 11.8765C3.25 11.8834 3.25 11.8902 3.25 11.8971C3.25 11.9039 3.25 11.9108 3.25 11.9176C3.25 11.9245 3.25 11.9313 3.25 11.9381C3.25 11.945 3.25 11.9518 3.25 11.9587C3.25 11.9655 3.25 11.9723 3.25 11.9792C3.25 11.986 3.25 11.9928 3.25 11.9997C3.25 12.0065 3.25 12.0133 3.25 12.0202C3.25 12.027 3.25 12.0338 3.25 12.0406C3.25 12.0475 3.25 12.0543 3.25 12.0611C3.25 12.0679 3.25 12.0747 3.25 12.0816C3.25 12.0884 3.25 12.0952 3.25 12.102C3.25 12.1088 3.25 12.1156 3.25 12.1225C3.25 12.1293 3.25 12.1361 3.25 12.1429C3.25 12.1497 3.25 12.1565 3.25 12.1633C3.25 12.1701 3.25 12.1769 3.25 12.1837C3.25 12.1905 3.25 12.1973 3.25 12.2041C3.25 12.2109 3.25 12.2177 3.25 12.2245C3.25 12.2313 3.25 12.2381 3.25 12.2448C3.25 12.2516 3.25 12.2584 3.25 12.2652C3.25 12.272 3.25 12.2788 3.25 12.2855C3.25 12.2923 3.25 12.2991 3.25 12.3059C3.25 12.3126 3.25 12.3194 3.25 12.3262C3.25 12.3329 3.25 12.3397 3.25 12.3465C3.25 12.3532 3.25 12.36 3.25 12.3667C3.25 12.3735 3.25 12.3803 3.25 12.387C3.25 12.3938 3.25 12.4005 3.25 12.4073C3.25 12.414 3.25 12.4207 3.25 12.4275C3.25 12.4342 3.25 12.441 3.25 12.4477C3.25 12.4544 3.25 12.4612 3.25 12.4679C3.25 12.4746 3.25 12.4814 3.25 12.4881C3.25 12.4948 3.25 12.5015 3.25 12.5082C3.25 12.515 3.25 12.5217 3.25 12.5284C3.25 12.5351 3.25 12.5418 3.25 12.5485C3.25 12.5552 3.25 12.5619 3.25 12.5686C3.25 12.5753 3.25 12.582 3.25 12.5887C3.25 12.5954 3.25 12.6021 3.25 12.6088C3.25 12.6155 3.25 12.6222 3.25 12.6288C3.25 12.6355 3.25 12.6422 3.25 12.6489C3.25 12.6555 3.25 12.6622 3.25 12.6689C3.25 12.6755 3.25 12.6822 3.25 12.6889C3.25 12.6955 3.25 12.7022 3.25 12.7088C3.25 12.7155 3.25 12.7221 3.25 12.7288C3.25 12.7354 3.25 12.7421 3.25 12.7487C3.25 12.7553 3.25 12.762 3.25 12.7686C3.25 12.7752 3.25 12.7818 3.25 12.7885C3.25 12.7951 3.25 12.8017 3.25 12.8083C3.25 12.8149 3.25 12.8215 3.25 12.8282C3.25 12.8348 3.25 12.8414 3.25 12.848C3.25 12.8546 3.25 12.8612 3.25 12.8677C3.25 12.8743 3.25 12.8809 3.25 12.8875C3.25 12.8941 3.25 12.9007 3.25 12.9072C3.25 12.9138 3.25 12.9204 3.25 12.9269C3.25 12.9335 3.25 12.9401 3.25 12.9466C3.25 12.9532 3.25 12.9597 3.25 12.9663C3.25 12.9728 3.25 12.9794 3.25 12.9859C3.25 12.9924 3.25 12.999 3.25 13.0055C3.25 13.012 3.25 13.0186 3.25 13.0251C3.25 13.0316 3.25 13.0381 3.25 13.0446C3.25 13.0512 3.25 13.0577 3.25 13.0642C3.25 13.0707 3.25 13.0772 3.25 13.0837C3.25 13.0901 3.25 13.0966 3.25 13.1031C3.25 13.1096 3.25 13.1161 3.25 13.1226C3.25 13.129 3.25 13.1355 3.25 13.142C3.25 13.1484 3.25 13.1549 3.25 13.1613C3.25 13.1678 3.25 13.1742 3.25 13.1807C3.25 13.1871 3.25 13.1936 3.25 13.2C3.25 13.2064 3.25 13.2129 3.25 13.2193C3.25 13.2257 3.25 13.2321 3.25 13.2386C3.25 13.245 3.25 13.2514 3.25 13.2578C3.25 13.2642 3.25 13.2706 3.25 13.277C3.25 13.2834 3.25 13.2897 3.25 13.2961C3.25 13.3025 3.25 13.3089 3.25 13.3153C3.25 13.3216 3.25 13.328 3.25 13.3344C3.25 13.3407 3.25 13.3471 3.25 13.3534C3.25 13.3598 3.25 13.3661 3.25 13.3724C3.25 13.3788 3.25 13.3851 3.25 13.3914C3.25 13.3978 3.25 13.4041 3.25 13.4104C3.25 13.4167 3.25 13.423 3.25 13.4293C3.25 13.4356 3.25 13.4419 3.25 13.4482C3.25 13.4545 3.25 13.4608 3.25 13.4671C3.25 13.4734 3.25 13.4796 3.25 13.4859C3.25 13.4922 3.25 13.4984 3.25 13.5047C3.25 13.5109 3.25 13.5172 3.25 13.5234C3.25 13.5297 3.25 13.5359 3.25 13.5422C3.25 13.5484 3.25 13.5546 3.25 13.5608C3.25 13.567 3.25 13.5733 3.25 13.5795C3.25 13.5857 3.25 13.5919 3.25 13.5981C3.25 13.6043 3.25 13.6105 3.25 13.6166C3.25 13.6228 3.25 13.629 3.25 13.6352C3.25 13.6413 3.25 13.6475 3.25 13.6536C3.25 13.6598 3.25 13.6659 3.25 13.6721C3.25 13.6782 3.25 13.6844 3.25 13.6905C3.25 13.6966 3.25 13.7027 3.25 13.7089C3.25 13.715 3.25 13.7211 3.25 13.7272C3.25 13.7333 3.25 13.7394 3.25 13.7455C3.25 13.7516 3.25 13.7576 3.25 13.7637C3.25 13.7698 3.25 13.7759 3.25 13.7819C3.25 13.788 3.25 13.794 3.25 13.8001C3.25 13.8061 3.25 13.8122 3.25 13.8182C3.25 13.8242 3.25 13.8303 3.25 13.8363C3.25 13.8423 3.25 13.8483 3.25 13.8543C3.25 13.8603 3.25 13.8663 3.25 13.8723C3.25 13.8783 3.25 13.8843 3.25 13.8903C3.25 13.8962 3.25 13.9022 3.25 13.9082C3.25 13.9141 3.25 13.9201 3.25 13.926C3.25 13.932 3.25 13.9379 3.25 13.9438C3.25 13.9498 3.25 13.9557 3.25 13.9616C3.25 13.9675 3.25 13.9734 3.25 13.9793C3.25 13.9852 3.25 13.9911 3.25 13.997C3.25 14.0029 3.25 14.0088 3.25 14.0147C3.25 14.0205 3.25 14.0264 3.25 14.0323C3.25 14.0381 3.25 14.044 3.25 14.0498C3.25 14.0556 3.25 14.0615 3.25 14.0673C3.25 14.0731 3.25 14.0789 3.25 14.0847C3.25 14.0905 3.25 14.0963 3.25 14.1021C3.25 14.1079 3.25 14.1137 3.25 14.1195C3.25 14.1253 3.25 14.131 3.25 14.1368C3.25 14.1426 3.25 14.1483 3.25 14.154C3.25 14.1598 3.25 14.1655 3.25 14.1713C3.25 14.177 3.25 14.1827 3.25 14.1884C3.25 14.1941 3.25 14.1998 3.25 14.2055C3.25 14.2112 3.25 14.2169 3.25 14.2226C3.25 14.2283 3.25 14.2339 3.25 14.2396C3.25 14.2452 3.25 14.2509 3.25 14.2565C3.25 14.2622 3.25 14.2678 3.25 14.2734C3.25 14.2791 3.25 14.2847 3.25 14.2903C3.25 14.2959 3.25 14.3015 3.25 14.3071C3.25 14.3127 3.25 14.3183 3.25 14.3238C3.25 14.3294 3.25 14.335 3.25 14.3405C3.25 14.3461 3.25 14.3516 3.25 14.3572C3.25 14.3627 3.25 14.3682 3.25 14.3738C3.25 14.3793 3.25 14.3848 3.25 14.3903C3.25 14.3958 3.25 14.4013 3.25 14.4068C3.25 14.4123 3.25 14.4177 3.25 14.4232C3.25 14.4287 3.25 14.4341 3.25 14.4396C3.25 14.445 3.25 14.4505 3.25 14.4559C3.25 14.4613 3.25 14.4668 3.25 14.4722C3.25 14.4776 3.25 14.483 3.25 14.4884C3.25 14.4938 3.25 14.4991 3.25 14.5045C3.25 14.5099 3.25 14.5153 3.25 14.5206C3.25 14.526 3.25 14.5313 3.25 14.5366C3.25 14.542 3.25 14.5473 3.25 14.5526C3.25 14.5579 3.25 14.5632 3.25 14.5685C3.25 14.5738 3.25 14.5791 3.25 14.5844C3.25 14.5897 3.25 14.595 3.25 14.6002C3.25 14.6055 3.25 14.6107 3.25 14.616C3.25 14.6212 3.25 14.6264 3.25 14.6316C3.25 14.6369 3.25 14.6421 3.25 14.6473C3.25 14.6525 3.25 14.6577 3.25 14.6628C3.25 14.668 3.25 14.6732 3.25 14.6783C3.25 14.6835 3.25 14.6887 3.25 14.6938C3.25 14.6989 3.25 14.7041 3.25 14.7092C3.25 14.7143 3.25 14.7194 3.25 14.7245C3.25 14.7296 3.25 14.7347 3.25 14.7398C3.25 14.7448 3.25 14.7499 3.25 14.755C3.25 14.76 3.25 14.7651 3.25 14.7701C3.25 14.7751 3.25 14.7802 3.25 14.7852C3.25 14.7902 3.25 14.7952 3.25 14.8002C3.25 14.8052 3.25 14.8102 3.25 14.8151C3.25 14.8201 3.25 14.8251 3.25 14.83C3.25 14.835 3.25 14.8399 3.25 14.8448C3.25 14.8498 3.25 14.8547 3.25 14.8596C3.25 14.8645 3.25 14.8694 3.25 14.8743C3.25 14.8792 3.25 14.8841 3.25 14.8889C3.25 14.8938 3.25 14.8986 3.25 14.9035C3.25 14.9083 3.25 14.9132 3.25 14.918C3.25 14.9228 3.25 14.9276 3.25 14.9324C3.25 14.9372 3.25 14.942 3.25 14.9468C3.25 14.9516 3.25 14.9563 3.25 14.9611C3.25 14.9658 3.25 14.9706 3.25 14.9753C3.25 14.98 3.25 14.9848 3.25 14.9895C3.25 14.9942 3.25 14.9989 3.25 15.0036C3.25 15.0082 3.25 15.0129 3.25 15.0176C3.25 15.0222 3.25 15.0269 3.25 15.0315C3.25 15.0362 3.25 15.0408 3.25 15.0454C3.25 15.05 3.25 15.0546 3.25 15.0592C3.25 15.0638 3.25 15.0684 3.25 15.073C3.25 15.0776 3.25 15.0821 3.25 15.0867C3.25 15.0912 3.25 15.0957 3.25 15.1003C3.25 15.1048 3.25 15.1093 3.25 15.1138C3.25 15.1183 3.25 15.1228 3.25 15.1273C3.25 15.1318 3.25 15.1362 3.25 15.1407C3.25 15.1451 3.25 15.1496 3.25 15.154C3.25 15.1584 3.25 15.1628 3.25 15.1672C3.25 15.1716 3.25 15.176 3.25 15.1804C3.25 15.1848 3.25 15.1892 3.25 15.1935C3.25 15.1979 3.25 15.2022 3.25 15.2066C3.25 15.2109 3.25 15.2152 3.25 15.2195C3.25 15.2238 3.25 15.2281 3.25 15.2324C3.25 15.2367 3.25 15.2409 3.25 15.2452C3.25 15.2495 3.25 15.2537 3.25 15.2579C3.25 15.2622 3.25 15.2664 3.25 15.2706C3.25 15.2748 3.25 15.279 3.25 15.2832C3.25 15.2874 3.25 15.2915 3.25 15.2957C3.25 15.2998 3.25 15.304 3.25 15.3081C3.25 15.3122 3.25 15.3164 3.25 15.3205C3.25 15.3246 3.25 15.3287 3.25 15.3327C3.25 15.3368 3.25 15.3409 3.25 15.3449C3.25 15.349 3.25 15.353 3.25 15.3571C3.25 15.3611 3.25 15.3651 3.25 15.3691C3.25 15.3731 3.25 15.3771 3.25 15.3811C3.25 15.3851 3.25 15.389 3.25 15.393C3.25 15.3969 3.25 15.4008 3.25 15.4048C3.25 15.4087 3.25 15.4126 3.25 15.4165C3.25 15.4204 3.25 15.4243 3.25 15.4281C3.25 15.432 3.25 15.4359 3.25 15.4397C3.25 15.4436 3.25 15.4474 3.25 15.4512C3.25 15.455 3.25 15.4588 3.25 15.4626C3.25 15.4664 3.25 15.4702 3.25 15.4739C3.25 15.4777 3.25 15.4815 3.25 15.4852C3.25 15.4889 3.25 15.4926 3.25 15.4963C3.25 15.5001 3.25 15.5037 3.25 15.5074C3.25 15.5111 3.25 15.5148 3.25 15.5184C3.25 15.5221 3.25 15.5257 3.25 15.5293C3.25 15.533 3.25 15.5366 3.25 15.5402C3.25 15.5438 3.25 15.5474 3.25 15.5509C3.25 15.5545 3.25 15.558 3.25 15.5616C3.25 15.5651 3.25 15.5687 3.25 15.5722C3.25 15.5757 3.25 15.5792 3.25 15.5827C3.25 15.5861 3.25 15.5896 3.25 15.5931C3.25 15.5965 3.25 15.6 3.25 15.6034C3.25 15.6068 3.25 15.6102 3.25 15.6136C3.25 15.617 3.25 15.6204 3.25 15.6238C3.25 15.6272 3.25 15.6305 3.25 15.6339C3.25 15.6372 3.25 15.6405 3.25 15.6438C3.25 15.6471 3.25 15.6504 3.25 15.6537C3.25 15.657 3.25 15.6603 3.25 15.6635C3.25 15.6668 3.25 15.67 3.25 15.6732C3.25 15.6765 3.25 15.6797 3.25 15.6829C3.25 15.6861 3.25 15.6892 3.25 15.6924C3.25 15.6956 3.25 15.6987 3.25 15.7019C3.25 15.705 3.25 15.7081 3.25 15.7112C3.25 15.7143 3.25 15.7174 3.25 15.7205C3.25 15.7236 3.25 15.7266 3.25 15.7297C3.25 15.7327 3.25 15.7357 3.25 15.7388C3.25 15.7418 3.25 15.7448 3.25 15.7478C3.25 15.7507 3.25 15.7537 3.25 15.7567C3.25 15.7596 3.25 15.7626 3.25 15.7655C3.25 15.7684 3.25 15.7713 3.25 15.7742C3.25 15.7771 3.25 15.78 3.25 15.7828C3.25 15.7857 3.25 15.7886 3.25 15.7914C3.25 15.7942 3.25 15.797 3.25 15.7998C3.25 15.8026 3.25 15.8054 3.25 15.8082C3.25 15.811 3.25 15.8137 3.25 15.8164C3.25 15.8192 3.25 15.8219 3.25 15.8246C3.25 15.8273 3.25 15.83 3.25 15.8327C3.25 15.8354 3.25 15.838 3.25 15.8407C3.25 15.8433 3.25 15.8459 3.25 15.8485C3.25 15.8512 3.25 15.8538 3.25 15.8563C3.25 15.8589 3.25 15.8615 3.25 15.864C3.25 15.8666 3.25 15.8691 3.25 15.8716C3.25 15.8741 3.25 15.8766 3.25 15.8791C3.25 15.8816 3.25 15.8841 3.25 15.8865C3.25 15.889 3.25 15.8914 3.25 15.8938C3.25 15.8962 3.25 15.8986 3.25 15.901C3.25 15.9034 3.25 15.9058 3.25 15.9081C3.25 15.9105 3.25 15.9128 3.25 15.9151C3.25 15.9175 3.25 15.9198 3.25 15.9221C3.25 15.9243 3.25 15.9266 3.25 15.9289C3.25 15.9311 3.25 15.9334 3.25 15.9356C3.25 15.9378 3.25 15.94 3.25 15.9422C3.25 15.9444 3.25 15.9466 3.25 15.9487C3.25 15.9509 3.25 15.953 3.25 15.9551C3.25 15.9572 3.25 15.9593 3.25 15.9614C3.25 15.9635 3.25 15.9656 3.25 15.9676C3.25 15.9697 3.25 15.9717 3.25 15.9738C3.25 15.9758 3.25 15.9778 3.25 15.9798C3.25 15.9817 3.25 15.9837 3.25 15.9857C3.25 15.9876 3.25 15.9896 3.25 15.9915C3.25 15.9934 3.25 15.9953 3.25 15.9972C3.25 15.9991 3.25 16.0009 3.25 16.0028C3.25 16.0046 3.25 16.0064 3.25 16.0083C3.25 16.0101 3.25 16.0119 3.25 16.0136C3.25 16.0154 3.25 16.0172 3.25 16.0189C3.25 16.0207 3.25 16.0224 3.25 16.0241C3.25 16.0258 3.25 16.0275 3.25 16.0292C3.25 16.0309 3.25 16.0325 3.25 16.0342C3.25 16.0358 3.25 16.0374 3.25 16.039C3.25 16.0406 3.25 16.0422 3.25 16.0438C3.25 16.0453 3.25 16.0469 3.25 16.0484C3.25 16.05 3.25 16.0515 3.25 16.053C3.25 16.0545 3.25 16.0559 3.25 16.0574C3.25 16.0589 3.25 16.0603 3.25 16.0617C3.25 16.0632 3.25 16.0646 3.25 16.066C3.25 16.0673 3.25 16.0687 3.25 16.0701C3.25 16.0714 3.25 16.0728 3.25 16.0741C3.25 16.0754 3.25 16.0767 3.25 16.078C3.25 16.0793 3.25 16.0805 3.25 16.0818C3.25 16.083 3.25 16.0842 3.25 16.0854C3.25 16.0866 3.25 16.0878 3.25 16.089C3.25 16.0902 3.25 16.0913 3.25 16.0925C3.25 16.0936 3.25 16.0947 3.25 16.0958C3.25 16.0969 3.25 16.098 3.25 16.099C3.25 16.1001 3.25 16.1011 3.25 16.1022C3.25 16.1032 3.25 16.1042 3.25 16.1052C3.25 16.1062 3.25 16.1071 3.25 16.1081C3.25 16.109 3.25 16.1099 3.25 16.1109C3.25 16.1118 3.25 16.1127 3.25 16.1135C3.25 16.1144 3.25 16.1152 3.25 16.1161C3.25 16.1169 3.25 16.1177 3.25 16.1185C3.25 16.1193 3.25 16.1201 3.25 16.1209C3.25 16.1216 3.25 16.1224 3.25 16.1231C3.25 16.1238 3.25 16.1245 3.25 16.1252C3.25 16.1259 3.25 16.1265 3.25 16.1272C3.25 16.1278 3.25 16.1284 3.25 16.129H4ZM11.2 20H11.95V11.4838H11.2H10.45V20H11.2ZM11.2 20V20.75C11.567 20.75 11.8905 20.6864 12.2306 20.5765L12 19.8628L11.7694 19.1491C11.5436 19.2221 11.3777 19.25 11.2 19.25V20ZM18.4 8H17.65V11.6H18.4H19.15V8H18.4ZM8.26074 10.1531L8.58742 9.47799L6.25046 8.34716L5.92378 9.02228L5.5971 9.6974L7.93406 10.8282L8.26074 10.1531ZM5.92378 9.02228L6.25046 8.34717C5.58647 8.02587 5.16564 7.82011 4.90074 7.64118C4.62578 7.45546 4.75 7.45076 4.75 7.6H4H3.25C3.25 8.24063 3.69484 8.63677 4.06114 8.88419C4.4375 9.1384 4.97857 9.39809 5.59709 9.69739L5.92378 9.02228ZM4 7.6H4.75C4.75 7.74924 4.62578 7.74454 4.90074 7.55882C5.16564 7.37989 5.58647 7.17413 6.25046 6.85283L5.92378 6.17772L5.59709 5.50261C4.97857 5.80191 4.4375 6.0616 4.06114 6.31581C3.69484 6.56323 3.25 6.95937 3.25 7.6H4ZM5.92378 6.17772L6.25046 6.85284L8.58742 5.72201L8.26074 5.0469L7.93406 4.37178L5.5971 5.5026L5.92378 6.17772ZM8.26074 5.0469L8.58742 5.72201C10.0947 4.99267 10.6364 4.75 11.2 4.75V4V3.25C10.2121 3.25 9.31146 3.70527 7.93406 4.37178L8.26074 5.0469ZM11.2 4V4.75C11.7636 4.75 12.3054 4.99266 13.8126 5.72201L14.1393 5.0469L14.466 4.37178C13.0886 3.70526 12.1879 3.25 11.2 3.25V4ZM14.1393 5.0469L13.8126 5.72201L16.1496 6.85284L16.4762 6.17772L16.8029 5.5026L14.466 4.37178L14.1393 5.0469ZM16.4762 6.17772L16.1496 6.85283C16.8135 7.17413 17.2343 7.37989 17.4993 7.55882C17.7742 7.74455 17.65 7.74925 17.65 7.6H18.4H19.15C19.15 6.95936 18.7051 6.56322 18.3389 6.31581C17.9625 6.0616 17.4214 5.80191 16.8029 5.50261L16.4762 6.17772ZM18.4 7.6H17.65C17.65 7.45075 17.7742 7.45545 17.4993 7.64118C17.2343 7.82011 16.8135 8.02587 16.1496 8.34717L16.4762 9.02228L16.8029 9.69739C17.4214 9.39809 17.9625 9.1384 18.3389 8.88419C18.7051 8.63678 19.15 8.24064 19.15 7.6H18.4ZM16.4762 9.02228L16.1496 8.34716L13.8126 9.47799L14.1393 10.1531L14.466 10.8282L16.8029 9.6974L16.4762 9.02228ZM14.1393 10.1531L13.8126 9.47799C12.3054 10.2073 11.7636 10.45 11.2 10.45V11.2V11.95C12.1879 11.95 13.0886 11.4947 14.466 10.8282L14.1393 10.1531ZM11.2 11.2V10.45C10.6364 10.45 10.0947 10.2073 8.58742 9.47799L8.26074 10.1531L7.93405 10.8282C9.31146 11.4947 10.2121 11.95 11.2 11.95V11.2ZM6.4 12L6.06459 12.6708L7.66459 13.4708L8 12.8L8.33541 12.1292L6.73541 11.3292L6.4 12ZM15.2 5.6L14.8646 4.92918L6.86459 8.92918L7.2 9.6L7.53541 10.2708L15.5354 6.27082L15.2 5.6ZM18.5058 18.5271L17.9793 19.0613L19.4735 20.5341L20 20L20.5265 19.4659L19.0323 17.993L18.5058 18.5271ZM19.3659 16.4771H18.6159C18.6159 17.6504 17.6624 18.6042 16.483 18.6042V19.3542V20.1042C18.488 20.1042 20.1159 18.4817 20.1159 16.4771H19.3659ZM16.483 19.3542V18.6042C15.3035 18.6042 14.35 17.6504 14.35 16.4771H13.6H12.85C12.85 18.4817 14.4779 20.1042 16.483 20.1042V19.3542ZM13.6 16.4771H14.35C14.35 15.3038 15.3035 14.35 16.483 14.35V13.6V12.85C14.4779 12.85 12.85 14.4725 12.85 16.4771H13.6ZM16.483 13.6V14.35C17.6624 14.35 18.6159 15.3038 18.6159 16.4771H19.3659H20.1159C20.1159 14.4725 18.488 12.85 16.483 12.85V13.6Z" fill="#333333" fill-opacity="0.9"/>
</svg>
