<svg width="48" height="48" viewBox="0 0 48 48" fill="none" xmlns="http://www.w3.org/2000/svg">
<rect width="48" height="48" rx="24" fill="#6D0D26" fill-opacity="0.08"/>
<path d="M26.8303 26.952L26.465 26.476L26.465 26.476L26.8303 26.952ZM27.0518 26.7305L26.5758 26.3652L26.5758 26.3652L27.0518 26.7305ZM27.0518 23.2695L26.5758 23.6348L26.5758 23.6348L27.0518 23.2695ZM26.8303 23.048L26.465 23.524L26.465 23.524L26.8303 23.048ZM22.1693 23.048L22.5345 23.524L22.5346 23.524L22.1693 23.048ZM21.9478 23.2695L22.4238 23.6348L22.4238 23.6348L21.9478 23.2695ZM21.9478 26.7305L22.4238 26.3652L22.4238 26.3652L21.9478 26.7305ZM22.1693 26.952L22.5346 26.476L22.5345 26.476L22.1693 26.952ZM31.3765 18.6282L30.8978 18.9899L30.8978 18.9899L31.3765 18.6282ZM28.8604 17.5769L29.0244 16.9997V16.9997L28.8604 17.5769ZM26.2776 16.6386L26.5211 16.0902L26.5211 16.0902L26.2776 16.6386ZM22.722 16.6386L22.4785 16.0902L22.4785 16.0902L22.722 16.6386ZM20.1393 17.5769L20.3033 18.154L20.3033 18.154L20.1393 17.5769ZM17.6231 18.6282L18.1019 18.9899L18.1019 18.9899L17.6231 18.6282ZM23.375 31.6155L23.095 32.1462L23.095 32.1462L23.375 31.6155ZM25.6246 31.6155L25.9046 32.1462L25.9047 32.1462L25.6246 31.6155ZM22.8998 22.8H23.4998V21.6H22.8998H22.2998V22.8H22.8998ZM22.8998 21.6H23.4998C23.4998 21.0477 23.9475 20.6 24.4998 20.6V20V19.4C23.2847 19.4 22.2998 20.385 22.2998 21.6H22.8998ZM24.4998 20V20.6C25.0521 20.6 25.4998 21.0477 25.4998 21.6H26.0998H26.6998C26.6998 20.385 25.7149 19.4 24.4998 19.4V20ZM26.0998 21.6H25.4998V22.8H26.0998H26.6998V21.6H26.0998ZM23.8998 27.2V27.8H25.0998V27.2V26.6H23.8998V27.2ZM25.0998 27.2V27.8C25.555 27.8 25.9466 27.8009 26.2629 27.7652C26.5914 27.7282 26.9122 27.6455 27.1956 27.428L26.8303 26.952L26.465 26.476C26.4253 26.5065 26.3499 26.5478 26.1285 26.5728C25.895 26.5991 25.5829 26.6 25.0998 26.6V27.2ZM26.8303 26.952L27.1955 27.428C27.3203 27.3323 27.4321 27.2205 27.5278 27.0957L27.0518 26.7305L26.5758 26.3652C26.5439 26.4068 26.5066 26.4441 26.465 26.476L26.8303 26.952ZM27.0518 26.7305L27.5278 27.0958C27.7453 26.8124 27.828 26.4916 27.865 26.1631C27.9007 25.8468 27.8998 25.4552 27.8998 25H27.2998H26.6998C26.6998 25.4831 26.6989 25.7952 26.6726 26.0287C26.6476 26.2501 26.6063 26.3255 26.5758 26.3652L27.0518 26.7305ZM27.2998 25H27.8998C27.8998 24.5448 27.9007 24.1532 27.865 23.8369C27.828 23.5084 27.7453 23.1876 27.5278 22.9042L27.0518 23.2695L26.5758 23.6348C26.6063 23.6745 26.6476 23.7499 26.6726 23.9713C26.6989 24.2048 26.6998 24.5169 26.6998 25H27.2998ZM27.0518 23.2695L27.5278 22.9043C27.4321 22.7795 27.3203 22.6677 27.1955 22.572L26.8303 23.048L26.465 23.524C26.5066 23.5559 26.5439 23.5932 26.5758 23.6348L27.0518 23.2695ZM26.8303 23.048L27.1956 22.572C26.9122 22.3545 26.5914 22.2718 26.2629 22.2348C25.9466 22.1991 25.555 22.2 25.0998 22.2V22.8V23.4C25.5829 23.4 25.895 23.4009 26.1285 23.4272C26.3499 23.4522 26.4253 23.4935 26.465 23.524L26.8303 23.048ZM25.0998 22.8V22.2H23.8998V22.8V23.4H25.0998V22.8ZM23.8998 22.8V22.2C23.4446 22.2 23.053 22.1991 22.7367 22.2348C22.4082 22.2718 22.0875 22.3545 21.804 22.572L22.1693 23.048L22.5346 23.524C22.5743 23.4935 22.6497 23.4522 22.8711 23.4272C23.1046 23.4009 23.4167 23.4 23.8998 23.4V22.8ZM22.1693 23.048L21.804 22.572C21.6792 22.6678 21.5675 22.7795 21.4718 22.9043L21.9478 23.2695L22.4238 23.6348C22.4557 23.5932 22.493 23.5559 22.5345 23.524L22.1693 23.048ZM21.9478 23.2695L21.4718 22.9042C21.2543 23.1877 21.1716 23.5084 21.1346 23.8369C21.0989 24.1532 21.0998 24.5448 21.0998 25H21.6998H22.2998C22.2998 24.5169 22.3007 24.2048 22.327 23.9713C22.352 23.7499 22.3933 23.6745 22.4238 23.6348L21.9478 23.2695ZM21.6998 25H21.0998C21.0998 25.4552 21.0989 25.8468 21.1346 26.1631C21.1716 26.4916 21.2543 26.8123 21.4718 27.0958L21.9478 26.7305L22.4238 26.3652C22.3933 26.3255 22.352 26.2501 22.327 26.0287C22.3007 25.7952 22.2998 25.4831 22.2998 25H21.6998ZM21.9478 26.7305L21.4718 27.0957C21.5675 27.2205 21.6792 27.3322 21.804 27.428L22.1693 26.952L22.5345 26.476C22.493 26.4441 22.4557 26.4068 22.4238 26.3652L21.9478 26.7305ZM22.1693 26.952L21.804 27.428C22.0875 27.6455 22.4082 27.7282 22.7367 27.7652C23.053 27.8009 23.4446 27.8 23.8998 27.8V27.2V26.6C23.4167 26.6 23.1046 26.5991 22.8711 26.5728C22.6497 26.5478 22.5743 26.5065 22.5346 26.476L22.1693 26.952ZM31.6998 23.3466H32.2998V21.0242H31.6998H31.0998V23.3466H31.6998ZM31.6998 21.0242H32.2998C32.2998 20.3815 32.3006 19.852 32.2561 19.4315C32.2107 19.0034 32.112 18.6064 31.8553 18.2666L31.3765 18.6282L30.8978 18.9899C30.9644 19.0781 31.0273 19.2231 31.0627 19.5579C31.099 19.9004 31.0998 20.3549 31.0998 21.0242H31.6998ZM31.3765 18.6282L31.8553 18.2666C31.5903 17.9157 31.1966 17.7069 30.7624 17.5385C30.3242 17.3686 29.7438 17.2042 29.0244 16.9997L28.8604 17.5769L28.6963 18.154C29.4389 18.3651 29.9549 18.5124 30.3285 18.6573C30.7061 18.8037 30.8395 18.9127 30.8978 18.9899L31.3765 18.6282ZM28.8604 17.5769L29.0244 16.9997C28.0577 16.7249 27.2039 16.3934 26.5211 16.0902L26.2776 16.6386L26.0342 17.187C26.7582 17.5084 27.6655 17.861 28.6963 18.154L28.8604 17.5769ZM26.2776 16.6386L26.5211 16.0902C26.0483 15.8803 25.6701 15.7122 25.368 15.5983C25.0733 15.4871 24.7836 15.4 24.4998 15.4V16V16.6C24.5553 16.6 24.6748 16.6193 24.9445 16.721C25.2068 16.82 25.5479 16.9712 26.0342 17.187L26.2776 16.6386ZM24.4998 16V15.4C24.2161 15.4 23.9263 15.4871 23.6316 15.5983C23.3296 15.7122 22.9514 15.8803 22.4785 16.0902L22.722 16.6386L22.9654 17.187C23.4517 16.9712 23.7928 16.82 24.0551 16.721C24.3248 16.6193 24.4444 16.6 24.4998 16.6V16ZM22.722 16.6386L22.4785 16.0902C21.7957 16.3934 20.942 16.7249 19.9752 16.9997L20.1393 17.5769L20.3033 18.154C21.3342 17.861 22.2414 17.5084 22.9654 17.187L22.722 16.6386ZM20.1393 17.5769L19.9752 16.9997C19.2559 17.2042 18.6754 17.3686 18.2373 17.5385C17.803 17.7069 17.4093 17.9157 17.1443 18.2666L17.6231 18.6282L18.1019 18.9899C18.1601 18.9127 18.2936 18.8037 18.6711 18.6573C19.0447 18.5124 19.5607 18.3651 20.3033 18.154L20.1393 17.5769ZM17.6231 18.6282L17.1443 18.2666C16.8877 18.6064 16.7889 19.0034 16.7436 19.4315C16.699 19.852 16.6998 20.3815 16.6998 21.0242H17.2998H17.8998C17.8998 20.3549 17.9006 19.9004 17.9369 19.5579C17.9723 19.2231 18.0352 19.0781 18.1019 18.9899L17.6231 18.6282ZM17.2998 21.0242H16.6998V23.3466H17.2998H17.8998V21.0242H17.2998ZM17.2998 23.3466H16.6998C16.6998 25.7914 17.8034 27.7299 19.1372 29.1748C20.4668 30.6153 22.0509 31.5951 23.095 32.1462L23.375 31.6155L23.6551 31.0849C22.6741 30.5672 21.2206 29.6627 20.0189 28.3609C18.8213 27.0636 17.8998 25.4021 17.8998 23.3466H17.2998ZM23.375 31.6155L23.095 32.1462C23.563 32.3932 23.9329 32.6 24.4998 32.6V32V31.4C24.274 31.4 24.1584 31.3505 23.655 31.0849L23.375 31.6155ZM24.4998 32V32.6C25.0667 32.6 25.4366 32.3932 25.9046 32.1462L25.6246 31.6155L25.3446 31.0849C24.8412 31.3505 24.7256 31.4 24.4998 31.4V32ZM25.6246 31.6155L25.9047 32.1462C26.9487 31.5951 28.5328 30.6153 29.8624 29.1748C31.1962 27.7299 32.2998 25.7914 32.2998 23.3466H31.6998H31.0998C31.0998 25.4021 30.1783 27.0636 28.9807 28.3609C27.779 29.6627 26.3255 30.5672 25.3446 31.0849L25.6246 31.6155Z" fill="#6D0D26"/>
</svg>
