<svg width="48" height="48" viewBox="0 0 48 48" fill="none" xmlns="http://www.w3.org/2000/svg">
<rect width="48" height="48" rx="24" fill="#6D0D26" fill-opacity="0.08"/>
<path d="M36.38 16.2631C36.0254 15.9972 35.5821 15.9528 35.1831 16.0415C28.0905 18.3023 20.9094 18.3023 13.861 16.0415C13.4178 15.9528 12.9745 15.9972 12.6198 16.2631C12.3095 16.5291 12.0879 16.9281 12.0879 17.3714V28.631C12.0879 29.2073 12.4425 29.7392 12.9745 29.9165C16.7869 31.2907 20.6433 32 24.5 32C28.3566 32 32.2133 31.2907 36.0254 29.9165C36.5574 29.7392 36.912 29.2073 36.912 28.631V17.3714C36.912 16.9281 36.6903 16.5291 36.38 16.2631ZM36.0254 28.5867C36.0254 28.8083 35.8924 28.9856 35.7151 29.03C28.2678 31.734 20.7321 31.734 13.2848 29.03C13.1075 28.9857 12.9745 28.764 12.9745 28.5867V17.3716C12.9745 17.2386 13.0632 17.0613 13.1518 16.9726C13.2405 16.9283 13.3292 16.884 13.4178 16.884H13.5508C20.8207 19.1891 28.1792 19.1891 35.4048 16.884C35.5378 16.8396 35.6708 16.884 35.8038 16.9283C35.9368 17.017 35.9811 17.1499 35.9811 17.3272V28.5869L36.0254 28.5867Z" fill="#6D0D26"/>
<path d="M34.6957 19.854C34.1194 19.854 33.6318 19.4994 33.4545 18.9674C33.3658 18.7458 33.1441 18.6128 32.9225 18.6571C27.3369 19.8096 21.6629 19.8096 16.0333 18.6571C15.8117 18.6128 15.59 18.7458 15.5457 18.9674C15.3684 19.4994 14.8364 19.854 14.3045 19.854C14.0385 19.854 13.8612 20.0313 13.8612 20.2973V26.1487C13.8612 26.4147 14.0385 26.592 14.3045 26.592C15.058 26.592 15.6343 27.2126 15.6343 27.9662C15.6343 28.1435 15.59 28.2765 15.5457 28.4095C15.5014 28.5424 15.5014 28.6311 15.59 28.7641C15.6343 28.8528 15.7673 28.9414 15.856 28.9857C18.7373 29.7837 21.6186 30.1826 24.5002 30.1826C27.3818 30.1826 30.2628 29.7837 33.1444 28.9857C33.2773 28.9414 33.366 28.8528 33.4103 28.7641C33.4547 28.6754 33.4547 28.5425 33.4547 28.4095C33.4103 28.2765 33.366 28.0991 33.366 27.9662C33.366 27.2126 33.9423 26.592 34.6959 26.592C34.9618 26.592 35.1392 26.4147 35.1392 26.1487V20.2973C35.1392 20.0756 34.9616 19.854 34.6957 19.854ZM34.2524 25.7497C33.2328 25.9713 32.4792 26.8579 32.4792 27.9661V28.2321C27.1598 29.6506 21.7961 29.6506 16.4766 28.2321V27.9661C16.4766 26.9022 15.723 25.9713 14.7034 25.7497V20.6963C15.324 20.5633 15.856 20.1644 16.2106 19.5881C21.7074 20.6963 27.2484 20.6963 32.7452 19.5881C33.0555 20.1644 33.5875 20.5633 34.2524 20.6963V25.7497Z" fill="#6D0D26"/>
<path d="M24.4999 21.3168C22.5494 21.3168 20.9536 22.9126 20.9536 24.8631C20.9536 26.8135 22.5494 28.4094 24.4999 28.4094C26.4504 28.4094 28.0462 26.8135 28.0462 24.8631C28.0462 22.9126 26.4504 21.3168 24.4999 21.3168ZM24.4999 27.5228C23.0371 27.5228 21.8402 26.3259 21.8402 24.8631C21.8402 23.4002 23.0371 22.2033 24.4999 22.2033C25.9627 22.2033 27.1596 23.4002 27.1596 24.8631C27.1596 26.3259 25.9627 27.5228 24.4999 27.5228Z" fill="#6D0D26"/>
<path d="M24.2783 23.9765H25.3865C25.6525 23.9765 25.8298 23.7992 25.8298 23.5332C25.8298 23.2672 25.6525 23.0899 25.3865 23.0899H24.9432C24.9432 22.824 24.7659 22.6466 24.5 22.6466C24.234 22.6466 24.0567 22.824 24.0567 23.0899C23.569 23.1786 23.1701 23.6219 23.1701 24.1538C23.1701 24.7744 23.6577 25.262 24.2783 25.262H24.7216C24.8546 25.262 24.9432 25.3507 24.9432 25.4837C24.9432 25.6167 24.8546 25.7496 24.7216 25.7496H23.6134C23.3474 25.7496 23.1701 25.927 23.1701 26.1929C23.1701 26.4589 23.3474 26.6362 23.6134 26.6362H24.0567C24.0567 26.9022 24.234 27.0795 24.5 27.0795C24.7659 27.0795 24.9432 26.9022 24.9432 26.6362V26.5919C25.4309 26.5032 25.8298 26.0599 25.8298 25.528C25.8298 24.9074 25.3422 24.4198 24.7216 24.4198H24.2783C24.1453 24.4198 24.0567 24.3311 24.0567 24.1981C24.0567 24.0652 24.1453 23.9765 24.2783 23.9765Z" fill="#6D0D26"/>
</svg>
