<svg width="24" height="24" viewBox="0 0 24 24" fill="none" xmlns="http://www.w3.org/2000/svg">
<path d="M6.32933 13.5735L5.89779 12.9601L5.89777 12.9601L6.32933 13.5735ZM7.98949 12.4056L7.55797 11.7921L7.55795 11.7921L7.98949 12.4056ZM9.47429 11.7124L9.66561 12.4376L9.66567 12.4376L9.47429 11.7124ZM15.5258 11.7124L15.3344 12.4376L15.3345 12.4376L15.5258 11.7124ZM17.0105 12.4056L16.579 13.0189L16.579 13.019L17.0105 12.4056ZM18.6707 13.5735L19.1022 12.9601L19.1022 12.9601L18.6707 13.5735ZM19.9666 14.7637L20.6428 14.4392L20.6427 14.4391L19.9666 14.7637ZM19.6946 19.4243L20.2571 19.9204L20.2571 19.9204L19.6946 19.4243ZM5.30543 19.4243L4.74287 19.9204L4.74288 19.9204L5.30543 19.4243ZM5.03347 14.7637L4.35733 14.4391L4.35732 14.4392L5.03347 14.7637ZM8.21612 4.58755L8.012 3.86587L8.01199 3.86587L8.21612 4.58755ZM5.55248 5.77225L5.14661 5.14156L5.14661 5.14157L5.55248 5.77225ZM4.02216 9.18327L3.27628 9.26173L3.27628 9.26173L4.02216 9.18327ZM5.04626 9.85647L5.2453 10.5796L5.24534 10.5796L5.04626 9.85647ZM6.22667 9.52728L6.01522 8.8077L6.01522 8.8077L6.22667 9.52728ZM7.80056 7.62009L7.0575 7.51826L7.0575 7.51826L7.80056 7.62009ZM16.7839 4.58755L16.9881 3.86587L16.988 3.86586L16.7839 4.58755ZM19.4475 5.77225L19.0416 6.40292L19.0416 6.40294L19.4475 5.77225ZM20.9778 9.18327L20.2319 9.10478L20.2319 9.10483L20.9778 9.18327ZM19.9537 9.85647L19.7547 10.5796L19.7547 10.5796L19.9537 9.85647ZM18.7733 9.52728L18.9848 8.80771L18.9848 8.8077L18.7733 9.52728ZM17.1995 7.62009L17.9425 7.51829L17.9425 7.51826L17.1995 7.62009ZM6.32933 13.5735L6.76086 14.1869L8.42102 13.019L7.98949 12.4056L7.55795 11.7921L5.89779 12.9601L6.32933 13.5735ZM7.98949 12.4056L8.42101 13.019C8.81726 12.7402 9.21087 12.5576 9.66561 12.4376L9.47429 11.7124L9.28298 10.9872C8.65433 11.1531 8.09831 11.412 7.55797 11.7921L7.98949 12.4056ZM9.47429 11.7124L9.66567 12.4376C10.0662 12.3319 10.4693 12.1414 10.7554 11.7641C11.0392 11.3899 11.125 10.9412 11.125 10.4935H10.375H9.625C9.625 10.7644 9.57137 10.8431 9.56031 10.8577C9.55158 10.8692 9.50433 10.9288 9.28292 10.9873L9.47429 11.7124ZM10.375 10.4935H11.125C11.125 10.3769 11.1789 10.234 11.4296 10.0811C11.6902 9.92218 12.0848 9.81322 12.5171 9.80335C12.9512 9.79344 13.3328 9.88528 13.5776 10.0309C13.7958 10.1606 13.875 10.3043 13.875 10.4935H14.625H15.375C15.375 9.67422 14.923 9.08578 14.3443 8.74163C13.7922 8.41331 13.1113 8.2894 12.4829 8.30374C11.8527 8.31812 11.1849 8.47339 10.6485 8.80051C10.1023 9.13366 9.625 9.69856 9.625 10.4935H10.375ZM14.625 10.4935H13.875C13.875 10.9412 13.9608 11.39 14.2446 11.7641C14.5308 12.1414 14.9339 12.3319 15.3344 12.4376L15.5258 11.7124L15.7171 10.9872C15.4957 10.9288 15.4484 10.8692 15.4397 10.8577C15.4286 10.8431 15.375 10.7644 15.375 10.4935H14.625ZM15.5258 11.7124L15.3345 12.4376C15.7928 12.5585 16.1858 12.7423 16.579 13.0189L17.0105 12.4056L17.4421 11.7922C16.906 11.415 16.3507 11.1544 15.717 10.9872L15.5258 11.7124ZM17.0105 12.4056L16.579 13.019L18.2391 14.1869L18.6707 13.5735L19.1022 12.9601L17.4421 11.7922L17.0105 12.4056ZM18.6707 13.5735L18.2391 14.1869C19.0446 14.7535 19.198 14.8957 19.2905 15.0884L19.9666 14.7637L20.6427 14.4391C20.345 13.8192 19.7992 13.4504 19.1022 12.9601L18.6707 13.5735ZM19.9666 14.7637L19.2904 15.0882C19.3825 15.28 19.4 15.5199 19.4 16.4904H20.15H20.9C20.9 15.6683 20.9175 15.0118 20.6428 14.4392L19.9666 14.7637ZM20.15 16.4904H19.4C19.4 17.3153 19.3987 17.8658 19.3486 18.2774C19.3004 18.6728 19.2176 18.8312 19.132 18.9283L19.6946 19.4243L20.2571 19.9204C20.627 19.5009 20.7719 18.9981 20.8376 18.4587C20.9013 17.9353 20.9 17.2771 20.9 16.4904H20.15ZM19.6946 19.4243L19.132 18.9283C19.055 19.0157 18.8139 19.1378 18.295 19.2003C17.8144 19.2582 17.2955 19.2462 16.828 19.2462V19.9962V20.7462C17.2412 20.7462 17.8799 20.7611 18.4744 20.6895C19.0307 20.6225 19.7825 20.4586 20.2571 19.9204L19.6946 19.4243ZM16.828 19.9962V19.2462H8.17208V19.9962V20.7462H16.828V19.9962ZM8.17208 19.9962V19.2462C7.69072 19.2462 7.18914 19.2664 6.71084 19.2121C6.20792 19.155 5.96168 19.0346 5.86798 18.9283L5.30543 19.4243L4.74288 19.9204C5.22998 20.4728 5.97661 20.6384 6.5416 20.7025C7.1312 20.7695 7.77254 20.7462 8.17208 20.7462V19.9962ZM5.30543 19.4243L5.868 18.9283C5.78237 18.8312 5.69959 18.6728 5.65143 18.2774C5.60131 17.8658 5.6 17.3153 5.6 16.4904H4.85H4.1C4.1 17.2771 4.09869 17.9353 4.16243 18.4587C4.22813 18.9981 4.37306 19.5009 4.74287 19.9204L5.30543 19.4243ZM4.85 16.4904H5.6C5.6 15.5199 5.61754 15.2801 5.70961 15.0882L5.03347 14.7637L4.35732 14.4392C4.08246 15.0118 4.1 15.6683 4.1 16.4904H4.85ZM5.03347 14.7637L5.7096 15.0883C5.80204 14.8957 5.95539 14.7536 6.76088 14.1869L6.32933 13.5735L5.89777 12.9601C5.20087 13.4504 4.6549 13.8193 4.35733 14.4391L5.03347 14.7637ZM14.2 15.7895H13.45C13.45 16.2989 13.0313 16.7237 12.5 16.7237V17.4737V18.2237C13.8465 18.2237 14.95 17.1405 14.95 15.7895H14.2ZM12.5 17.4737V16.7237C11.9687 16.7237 11.55 16.2989 11.55 15.7895H10.8H10.05C10.05 17.1405 11.1535 18.2237 12.5 18.2237V17.4737ZM10.8 15.7895H11.55C11.55 15.2801 11.9687 14.8553 12.5 14.8553V14.1053V13.3553C11.1535 13.3553 10.05 14.4385 10.05 15.7895H10.8ZM12.5 14.1053V14.8553C13.0313 14.8553 13.45 15.2801 13.45 15.7895H14.2H14.95C14.95 14.4385 13.8465 13.3553 12.5 13.3553V14.1053ZM8.21612 4.58755L8.01199 3.86587C6.81693 4.2039 5.94359 4.62868 5.14661 5.14156L5.55248 5.77225L5.95836 6.40294C6.63594 5.96689 7.37396 5.60519 8.42026 5.30924L8.21612 4.58755ZM5.55248 5.77225L5.14661 5.14157C3.69915 6.07307 3.11488 7.72737 3.27628 9.26173L4.02216 9.18327L4.76805 9.10481C4.65465 8.0268 5.07125 6.97383 5.95836 6.40294L5.55248 5.77225ZM4.02216 9.18327L3.27628 9.26173C3.32591 9.73357 3.55662 10.157 3.95858 10.413C4.35232 10.6638 4.81985 10.6967 5.2453 10.5796L5.04626 9.85647L4.84722 9.13336C4.80082 9.14613 4.77237 9.14533 4.76111 9.14404C4.75062 9.14283 4.75414 9.14132 4.76436 9.14783C4.76901 9.15079 4.77339 9.1544 4.777 9.15818C4.77873 9.15999 4.78002 9.16156 4.78093 9.16277C4.78183 9.16397 4.7822 9.16462 4.78216 9.16454C4.78214 9.16451 4.77988 9.16065 4.777 9.15149C4.77409 9.14226 4.77039 9.12707 4.76805 9.10481L4.02216 9.18327ZM5.04626 9.85647L5.24534 10.5796C5.63241 10.473 6.0383 10.3643 6.43813 10.2469L6.22667 9.52728L6.01522 8.8077C5.6318 8.92038 5.24826 9.02294 4.84718 9.13337L5.04626 9.85647ZM6.22667 9.52728L6.43812 10.2469C7.05638 10.0652 7.59365 9.82333 7.97029 9.35004C8.33632 8.89006 8.46187 8.31842 8.54361 7.72191L7.80056 7.62009L7.0575 7.51826C6.98008 8.08324 6.89135 8.29691 6.79657 8.41602C6.71238 8.52181 6.5423 8.65282 6.01522 8.8077L6.22667 9.52728ZM7.80056 7.62009L8.54361 7.72191L8.95918 4.68938L8.21612 4.58755L7.47307 4.48573L7.0575 7.51826L7.80056 7.62009ZM8.21612 4.58755L8.42025 5.30924C11.0565 4.56359 13.9435 4.56359 16.5798 5.30924L16.7839 4.58755L16.988 3.86586C14.0849 3.04471 10.9152 3.04471 8.012 3.86587L8.21612 4.58755ZM16.7839 4.58755L16.5798 5.30923C17.6261 5.60519 18.3641 5.96689 19.0416 6.40292L19.4475 5.77225L19.8534 5.14158C19.0565 4.62868 18.1831 4.2039 16.9881 3.86587L16.7839 4.58755ZM19.4475 5.77225L19.0416 6.40294C19.9288 6.97385 20.3454 8.02682 20.2319 9.10478L20.9778 9.18327L21.7237 9.26176C21.8852 7.72736 21.3008 6.07306 19.8534 5.14156L19.4475 5.77225ZM20.9778 9.18327L20.2319 9.10483C20.2296 9.1271 20.2259 9.14229 20.223 9.15152C20.2201 9.16068 20.2179 9.16453 20.2178 9.16457C20.2178 9.16465 20.2182 9.16399 20.2191 9.16279C20.22 9.16159 20.2213 9.16001 20.223 9.1582C20.2266 9.15442 20.231 9.1508 20.2356 9.14784C20.2459 9.14132 20.2494 9.14283 20.2389 9.14404C20.2277 9.14533 20.1992 9.14613 20.1528 9.13335L19.9537 9.85647L19.7547 10.5796C20.1802 10.6967 20.6477 10.6638 21.0415 10.413C21.4434 10.157 21.6741 9.73353 21.7237 9.26171L20.9778 9.18327ZM19.9537 9.85647L20.1528 9.13337C19.7517 9.02294 19.3682 8.92038 18.9848 8.80771L18.7733 9.52728L18.5619 10.2468C18.9617 10.3643 19.3676 10.473 19.7547 10.5796L19.9537 9.85647ZM18.7733 9.52728L18.9848 8.8077C18.4577 8.65281 18.2876 8.52181 18.2034 8.41603C18.1087 8.29693 18.0199 8.08327 17.9425 7.51829L17.1995 7.62009L16.4564 7.72188C16.5381 8.31839 16.6637 8.89004 17.0297 9.35003C17.4063 9.82333 17.9436 10.0652 18.5619 10.2469L18.7733 9.52728ZM17.1995 7.62009L17.9425 7.51826L17.527 4.48573L16.7839 4.58755L16.0409 4.68938L16.4564 7.72191L17.1995 7.62009Z" fill="#333333" fill-opacity="0.9"/>
</svg>
