<svg width="48" height="48" viewBox="0 0 48 48" fill="none" xmlns="http://www.w3.org/2000/svg">
<rect width="48" height="48" rx="24" fill="#6D0D26" fill-opacity="0.08"/>
<path d="M17.7779 21.3333C17.7779 18.3876 20.5636 16 24.0001 16C27.4365 16 30.2223 18.3876 30.2223 21.3333M30.2223 28.4444V29.1556C30.2223 30.7262 28.6312 32 26.6667 32H24.889M28.4445 22.9378C28.4445 22.6302 28.4445 22.4764 28.4907 22.3396C28.625 21.9413 28.9796 21.7876 29.3352 21.6258C29.7334 21.4436 29.9325 21.3529 30.1307 21.3369C30.3547 21.3191 30.5796 21.3671 30.7716 21.4747C31.0259 21.6169 31.2036 21.8889 31.385 22.1093C32.2232 23.128 32.6427 23.6373 32.7956 24.1982C32.9201 24.6516 32.9201 25.1262 32.7956 25.5787C32.5725 26.3982 31.8659 27.0844 31.3423 27.7209C31.0747 28.0453 30.9405 28.208 30.7716 28.3031C30.5763 28.4114 30.3533 28.4594 30.1307 28.4409C29.9325 28.4249 29.7334 28.3342 29.3343 28.152C28.9787 27.9902 28.625 27.8364 28.4907 27.4382C28.4445 27.3013 28.4445 27.1476 28.4445 26.84V22.9378ZM19.5556 22.9378C19.5556 22.5502 19.545 22.2027 19.2321 21.9307C19.1183 21.832 18.9672 21.7636 18.6659 21.6258C18.2667 21.4444 18.0676 21.3529 17.8694 21.3369C17.2765 21.2889 16.9574 21.6942 16.6161 22.1102C15.777 23.128 15.3574 23.6373 15.2036 24.1991C15.0799 24.6509 15.0799 25.1277 15.2036 25.5796C15.4276 26.3982 16.1352 27.0853 16.6579 27.7209C16.9876 28.1209 17.3032 28.4862 17.8694 28.4409C18.0676 28.4249 18.2667 28.3342 18.6659 28.152C18.9681 28.0151 19.1183 27.9458 19.2321 27.8471C19.545 27.5751 19.5556 27.2276 19.5556 26.8409V22.9378Z" stroke="#6D0D26" stroke-width="1.2" stroke-linecap="round" stroke-linejoin="round"/>
</svg>
