<svg width="24" height="24" viewBox="0 0 24 24" fill="none" xmlns="http://www.w3.org/2000/svg">
<path d="M14.4707 4.4V5.2C14.4707 6.7085 14.4707 7.46274 14.9531 7.93137C15.4355 8.4 16.2119 8.4 17.7647 8.4H18.5882M7.47053 6.4C6.1061 6.4 5 7.47452 5 8.8V15.2C5 17.4628 5 18.5942 5.7236 19.297C6.44721 20 7.61182 20 9.94107 20H14.0589C15.4233 20 16.5295 18.9254 16.5295 17.6M10.3533 11.2H13.6473M10.3533 14.4H16.1179M14.0589 17.6H12.4119C10.0827 17.6 8.91807 17.6 8.19447 16.897C7.47086 16.1941 7.47086 15.0627 7.47086 12.8V8.8C7.47086 6.53726 7.47086 5.40589 8.19447 4.70294C8.91807 4 10.0827 4 12.4119 4H13.5181C14.1913 4 14.5278 4 14.8306 4.12179C15.1332 4.24358 15.3712 4.47481 15.8473 4.93726L18.0352 7.06274C18.5112 7.52518 18.7492 7.75642 18.8747 8.05045C19 8.34448 19 8.67148 19 9.32548V12.8C19 15.0627 19 16.1941 18.2764 16.897C17.5528 17.6 16.3882 17.6 14.0589 17.6Z" stroke="#333333" stroke-opacity="0.9" stroke-width="1.5" stroke-linecap="round" stroke-linejoin="round"/>
</svg>
