<svg width="24" height="24" viewBox="0 0 24 24" fill="none" xmlns="http://www.w3.org/2000/svg">
<path d="M17.3004 18.4C17.3004 19.2837 15.1514 20 12.5004 20C9.84942 20 7.70039 19.2837 7.70039 18.4M14.5004 9.6C14.5004 10.7046 13.605 11.6 12.5004 11.6C11.3958 11.6 10.5004 10.7046 10.5004 9.6C10.5004 8.49543 11.3958 7.6 12.5004 7.6C13.605 7.6 14.5004 8.49543 14.5004 9.6ZM13.5063 16.3949C13.2365 16.6547 12.8758 16.8 12.5006 16.8C12.1252 16.8 11.7646 16.6547 11.4947 16.3949C9.02383 14.0006 5.71254 11.326 7.32736 7.44298C8.20047 5.34346 10.2963 4 12.5006 4C14.7047 4 16.8006 5.34346 17.6737 7.44298C19.2865 11.3211 15.9833 14.0089 13.5063 16.3949Z" stroke="#333333" stroke-opacity="0.9" stroke-width="1.5" stroke-linecap="round"/>
</svg>
