<svg width="24" height="24" viewBox="0 0 24 24" fill="none" xmlns="http://www.w3.org/2000/svg">
<path d="M7.78256 14.7853L8.17427 15.4249L8.17428 15.4249L7.78256 14.7853ZM5.55429 18.5573L5.02936 19.093L5.02938 19.093L5.55429 18.5573ZM18.4457 18.5573L18.9706 19.093L18.9706 19.093L18.4457 18.5573ZM16.2174 14.7853L15.8257 15.4249L15.8257 15.4249L16.2174 14.7853ZM7.78256 14.7853L7.39085 14.1457C6.92186 14.4329 5.7881 15.0214 5.0647 15.7497C4.69357 16.1234 4.32732 16.6289 4.26059 17.257C4.18927 17.9281 4.47622 18.5509 5.02936 19.093L5.55429 18.5573L6.07923 18.0216C5.75375 17.7027 5.74238 17.5077 5.75219 17.4155C5.76657 17.2801 5.86091 17.0766 6.12894 16.8068C6.6839 16.2481 7.54289 15.8115 8.17427 15.4249L7.78256 14.7853ZM5.55429 18.5573L5.02938 19.093C5.95316 19.9982 7.08804 20.75 8.57068 20.75V20V19.25C7.6494 19.25 6.87222 18.7986 6.07921 18.0216L5.55429 18.5573ZM8.57068 20V20.75H15.4293V20V19.25H8.57068V20ZM15.4293 20V20.75C16.912 20.75 18.0469 19.9982 18.9706 19.093L18.4457 18.5573L17.9208 18.0216C17.1278 18.7986 16.3506 19.25 15.4293 19.25V20ZM18.4457 18.5573L18.9706 19.093C19.5238 18.5509 19.8107 17.9281 19.7394 17.257C19.6727 16.6289 19.3064 16.1234 18.9353 15.7497C18.2119 15.0214 17.0782 14.4329 16.6091 14.1457L16.2174 14.7853L15.8257 15.4249C16.4571 15.8115 17.3161 16.2481 17.8711 16.8068C18.1391 17.0766 18.2334 17.2801 18.2478 17.4155C18.2576 17.5077 18.2463 17.7027 17.9208 18.0216L18.4457 18.5573ZM16.2174 14.7853L16.6092 14.1457C13.7884 12.4181 10.2116 12.4181 7.39084 14.1457L7.78256 14.7853L8.17428 15.4249C10.5143 13.9917 13.4858 13.9917 15.8257 15.4249L16.2174 14.7853ZM15.5 7.6H14.75C14.75 9.19407 13.499 10.45 12 10.45V11.2V11.95C14.367 11.95 16.25 9.98238 16.25 7.6H15.5ZM12 11.2V10.45C10.501 10.45 9.25001 9.19407 9.25001 7.6H8.50001H7.75001C7.75001 9.98238 9.63303 11.95 12 11.95V11.2ZM8.50001 7.6H9.25001C9.25001 6.00593 10.501 4.75 12 4.75V4V3.25C9.63303 3.25 7.75001 5.21762 7.75001 7.6H8.50001ZM12 4V4.75C13.499 4.75 14.75 6.00593 14.75 7.6H15.5H16.25C16.25 5.21762 14.367 3.25 12 3.25V4Z" fill="#333333" fill-opacity="0.9"/>
</svg>
