<svg width="24" height="24" viewBox="0 0 24 24" fill="none" xmlns="http://www.w3.org/2000/svg">
<path d="M16.0416 11.3056L15.3311 11.0656L15.331 11.0657L16.0416 11.3056ZM16.8009 10.6631L17.1118 11.3456L17.1118 11.3456L16.8009 10.6631ZM17.5175 10.4034L17.457 9.6558L17.457 9.6558L17.5175 10.4034ZM18.0944 10.5274L17.7274 11.1815L17.7275 11.1815L18.0944 10.5274ZM18.6463 11.0984L19.2253 10.6217L19.2253 10.6216L18.6463 11.0984ZM19.9164 12.9789L19.1929 13.1765L19.1929 13.1766L19.9164 12.9789ZM19.9164 14.2211L19.1929 14.0234L19.1929 14.0235L19.9164 14.2211ZM18.6079 16.1483L18.0289 15.6716L18.0289 15.6716L18.6079 16.1483ZM18.0944 16.6726L18.4615 17.3266L18.4615 17.3266L18.0944 16.6726ZM17.5175 16.7966L17.457 17.5442L17.4571 17.5442L17.5175 16.7966ZM16.8009 16.5369L17.1118 15.8544L17.1118 15.8544L16.8009 16.5369ZM16.0416 15.8944L15.331 16.1343L15.3311 16.1344L16.0416 15.8944ZM7.70873 10.9378L7.21657 11.5037L7.21657 11.5037L7.70873 10.9378ZM7.19913 10.6632L7.51007 9.98069L7.50993 9.98063L7.19913 10.6632ZM6.48253 10.4035L6.54303 9.65596L6.54303 9.65596L6.48253 10.4035ZM5.35371 11.0986L5.93271 11.5753L5.93273 11.5752L5.35371 11.0986ZM4.08357 12.979L3.36008 12.7813L3.36007 12.7813L4.08357 12.979ZM4.08357 14.2213L4.80706 14.0236L4.80705 14.0236L4.08357 14.2213ZM5.39217 16.1485L4.81314 16.6252L4.81317 16.6252L5.39217 16.1485ZM6.48253 16.7968L6.54293 17.5444L6.54303 17.5444L6.48253 16.7968ZM7.19913 16.537L7.50993 17.2196L7.51007 17.2195L7.19913 16.537ZM7.70873 16.2625L7.21657 15.6965L7.21657 15.6966L7.70873 16.2625ZM17.65 10.8C17.65 11.2142 17.9858 11.55 18.4 11.55C18.8142 11.55 19.15 11.2142 19.15 10.8H18.4H17.65ZM4.85 10.8C4.85 11.2142 5.18579 11.55 5.6 11.55C6.01422 11.55 6.35 11.2142 6.35 10.8H5.6H4.85ZM19.15 16.4C19.15 15.9858 18.8142 15.65 18.4 15.65C17.9858 15.65 17.65 15.9858 17.65 16.4H18.4H19.15ZM12 19.25C11.5858 19.25 11.25 19.5858 11.25 20C11.25 20.4142 11.5858 20.75 12 20.75V20V19.25ZM16 11.8436H16.75C16.75 11.6964 16.7503 11.6194 16.7538 11.5631C16.7567 11.5158 16.7601 11.522 16.7522 11.5455L16.0416 11.3056L15.331 11.0657C15.2406 11.3333 15.25 11.6197 15.25 11.8436H16ZM16.0416 11.3056L16.7522 11.5456C16.7529 11.5435 16.7535 11.5421 16.7538 11.5414C16.7541 11.5406 16.7543 11.5403 16.7543 11.5403C16.7543 11.5403 16.7543 11.5403 16.7543 11.5403C16.7543 11.5403 16.7543 11.5404 16.7543 11.5404C16.7543 11.5404 16.7543 11.5403 16.7543 11.5402C16.7544 11.5401 16.7545 11.54 16.7547 11.5397C16.7558 11.5384 16.7634 11.529 16.7869 11.5119C16.8117 11.494 16.8483 11.4717 16.905 11.4428C16.9637 11.4129 17.0263 11.3846 17.1118 11.3456L16.8009 10.6631L16.49 9.9806C16.2377 10.0955 15.5732 10.3487 15.3311 11.0656L16.0416 11.3056ZM16.8009 10.6631L17.1118 11.3456C17.2999 11.26 17.4096 11.2104 17.4942 11.1781C17.5713 11.1487 17.5868 11.1502 17.578 11.1509L17.5175 10.4034L17.457 9.6558C17.1163 9.68338 16.7948 9.84173 16.49 9.98061L16.8009 10.6631ZM17.5175 10.4034L17.5779 11.1509C17.6349 11.1463 17.6879 11.1594 17.7274 11.1815L18.0944 10.5274L18.4615 9.87339C18.1556 9.70177 17.804 9.62774 17.457 9.6558L17.5175 10.4034ZM18.0944 10.5274L17.7275 11.1815C17.734 11.1852 17.7652 11.2057 17.8299 11.2799C17.861 11.3155 17.8936 11.356 17.9338 11.4071C17.9703 11.4536 18.0194 11.517 18.0674 11.5752L18.6463 11.0984L19.2253 10.6216C19.1925 10.5818 19.0468 10.3929 18.9599 10.2934C18.8468 10.1638 18.6838 9.9981 18.4614 9.87334L18.0944 10.5274ZM18.6463 11.0984L18.0673 11.5751C18.4518 12.0421 18.7135 12.3608 18.8994 12.6247C19.0801 12.8812 19.1559 13.0411 19.1929 13.1765L19.9164 12.9789L20.6399 12.7812C20.5388 12.4112 20.357 12.0892 20.1258 11.761C19.8999 11.4402 19.5956 11.0713 19.2253 10.6217L18.6463 11.0984ZM19.9164 12.9789L19.1929 13.1766C19.269 13.455 19.269 13.745 19.1929 14.0234L19.9164 14.2211L20.6399 14.4188C20.7867 13.8815 20.7867 13.3185 20.6399 12.7812L19.9164 12.9789ZM19.9164 14.2211L19.1929 14.0235C19.1295 14.2558 18.9866 14.5043 18.7673 14.7913C18.5272 15.1055 18.3121 15.3276 18.0289 15.6716L18.6079 16.1483L19.1869 16.625C19.3746 16.397 19.713 16.0242 19.9592 15.702C20.2261 15.3528 20.502 14.9236 20.6399 14.4187L19.9164 14.2211ZM18.6079 16.1483L18.0289 15.6716C17.902 15.8256 17.8303 15.9121 17.7728 15.9729C17.7218 16.0269 17.7128 16.0267 17.7273 16.0185L18.0944 16.6726L18.4615 17.3266C18.7657 17.1558 18.9858 16.8693 19.1869 16.625L18.6079 16.1483ZM18.0944 16.6726L17.7274 16.0185C17.688 16.0406 17.635 16.0537 17.5779 16.0491L17.5175 16.7966L17.4571 17.5442C17.804 17.5722 18.1556 17.4983 18.4615 17.3266L18.0944 16.6726ZM17.5175 16.7966L17.578 16.0491C17.5868 16.0498 17.5713 16.0513 17.4942 16.0219C17.4096 15.9896 17.2999 15.94 17.1118 15.8544L16.8009 16.5369L16.49 17.2194C16.7948 17.3583 17.1163 17.5166 17.457 17.5442L17.5175 16.7966ZM16.8009 16.5369L17.1118 15.8544C17.0263 15.8154 16.9637 15.7871 16.905 15.7572C16.8483 15.7283 16.8117 15.706 16.7869 15.6881C16.7634 15.671 16.7558 15.6616 16.7547 15.6603C16.7545 15.66 16.7544 15.6599 16.7543 15.6598C16.7543 15.6597 16.7543 15.6596 16.7543 15.6596C16.7543 15.6596 16.7543 15.6597 16.7543 15.6597C16.7543 15.6597 16.7543 15.6597 16.7543 15.6597C16.7543 15.6597 16.7541 15.6594 16.7538 15.6586C16.7535 15.6579 16.7529 15.6565 16.7522 15.6544L16.0416 15.8944L15.3311 16.1344C15.5732 16.8513 16.2377 17.1045 16.49 17.2194L16.8009 16.5369ZM16.0416 15.8944L16.7522 15.6545C16.7601 15.678 16.7567 15.6842 16.7538 15.6369C16.7503 15.5806 16.75 15.5036 16.75 15.3564H16H15.25C15.25 15.5803 15.2406 15.8667 15.331 16.1343L16.0416 15.8944ZM16 15.3564H16.75V11.8436H16H15.25V15.3564H16ZM8 11.8437H8.75C8.75 11.5223 8.76783 10.8649 8.20089 10.3718L7.70873 10.9378L7.21657 11.5037C7.22712 11.5129 7.22753 11.5156 7.22571 11.5125C7.22438 11.5102 7.22744 11.5141 7.23181 11.5318C7.23667 11.5515 7.24214 11.584 7.24564 11.6381C7.24924 11.6937 7.25 11.7571 7.25 11.8437H8ZM7.70873 10.9378L8.2009 10.3718C7.99644 10.194 7.73729 10.0842 7.51007 9.98069L7.19913 10.6632L6.88819 11.3457C7.031 11.4108 7.1117 11.4478 7.17066 11.4785C7.22363 11.5061 7.2267 11.5125 7.21657 11.5037L7.70873 10.9378ZM7.19913 10.6632L7.50993 9.98063C7.20511 9.84183 6.88366 9.68353 6.54303 9.65596L6.48253 10.4035L6.42203 11.1511C6.41319 11.1504 6.42873 11.1489 6.50585 11.1783C6.59057 11.2106 6.70029 11.2601 6.88833 11.3458L7.19913 10.6632ZM6.48253 10.4035L6.54303 9.65596C5.55801 9.57625 5.02702 10.3154 4.77468 10.6219L5.35371 11.0986L5.93273 11.5752C6.1051 11.3659 6.19331 11.262 6.28266 11.1952C6.31744 11.1691 6.339 11.16 6.35129 11.1561C6.36171 11.1528 6.38185 11.1478 6.42203 11.1511L6.48253 10.4035ZM5.35371 11.0986L4.7747 10.6218C4.4045 11.0715 4.1002 11.4403 3.87426 11.761C3.64308 12.0892 3.46117 12.4113 3.36008 12.7813L4.08357 12.979L4.80706 13.1766C4.84405 13.0412 4.91985 12.8814 5.10054 12.6249C5.28647 12.3609 5.54821 12.0423 5.93271 11.5753L5.35371 11.0986ZM4.08357 12.979L3.36007 12.7813C3.21331 13.3186 3.2133 13.8817 3.36008 14.4189L4.08357 14.2213L4.80705 14.0236C4.73099 13.7452 4.73098 13.4551 4.80706 13.1766L4.08357 12.979ZM4.08357 14.2213L3.36008 14.4189C3.498 14.9238 3.77398 15.3529 4.04086 15.7022C4.28689 16.0242 4.62553 16.3973 4.81314 16.6252L5.39217 16.1485L5.9712 15.6718C5.68786 15.3276 5.47289 15.1057 5.23271 14.7914C5.01337 14.5044 4.87053 14.256 4.80706 14.0236L4.08357 14.2213ZM5.39217 16.1485L4.81317 16.6252C5.07885 16.9479 5.59643 17.6208 6.54293 17.5444L6.48253 16.7968L6.42213 16.0492C6.38297 16.0524 6.36301 16.0478 6.35302 16.0448C6.34174 16.0415 6.32273 16.0339 6.29217 16.0121C6.21434 15.9568 6.12904 15.8635 5.97117 15.6718L5.39217 16.1485ZM6.48253 16.7968L6.54303 17.5444C6.88372 17.5168 7.20534 17.3583 7.50993 17.2196L7.19913 16.537L6.88833 15.8545C6.70022 15.9401 6.59051 15.9897 6.50575 16.022C6.42858 16.0514 6.4131 16.05 6.42203 16.0492L6.48253 16.7968ZM7.19913 16.537L7.51007 17.2195C7.73729 17.116 7.99644 17.0062 8.2009 16.8284L7.70873 16.2625L7.21657 15.6966C7.2267 15.6877 7.22362 15.6941 7.17066 15.7217C7.1117 15.7524 7.03099 15.7895 6.88819 15.8545L7.19913 16.537ZM7.70873 16.2625L8.20089 16.8284C8.76782 16.3354 8.75 15.678 8.75 15.3566H8H7.25C7.25 15.4431 7.24924 15.5065 7.24564 15.5622C7.24214 15.6163 7.23667 15.6488 7.23181 15.6685C7.22745 15.6861 7.22439 15.69 7.22572 15.6878C7.22755 15.6846 7.22714 15.6874 7.21657 15.6965L7.70873 16.2625ZM8 15.3566H8.75V11.8437H8H7.25V15.3566H8ZM18.4 10.8H19.15V9.6H18.4H17.65V10.8H18.4ZM18.4 9.6H19.15C19.15 6.00206 15.8517 3.25 12 3.25V4V4.75C15.2176 4.75 17.65 7.01236 17.65 9.6H18.4ZM12 4V3.25C8.14837 3.25 4.85 6.00205 4.85 9.6H5.6H6.35C6.35 7.01236 8.78239 4.75 12 4.75V4ZM5.6 9.6H4.85V10.8H5.6H6.35V9.6H5.6ZM18.4 16.4H17.65C17.65 17.1884 17.4758 17.7037 17.2331 18.0547C16.9911 18.4048 16.6325 18.6618 16.1367 18.8478C15.0915 19.2397 13.6467 19.25 12 19.25V20V20.75C13.5533 20.75 15.3085 20.7603 16.6634 20.2522C17.3675 19.9882 18.0089 19.5702 18.4669 18.9078C18.9242 18.2463 19.15 17.4116 19.15 16.4H18.4Z" fill="#333333" fill-opacity="0.9"/>
</svg>
