<svg width="48" height="48" viewBox="0 0 48 48" fill="none" xmlns="http://www.w3.org/2000/svg">
<rect width="48" height="48" rx="24" fill="#6D0D26" fill-opacity="0.08"/>
<path d="M24 25.6H24.8C25.68 25.6 26.4 24.88 26.4 24M26.4 24V16H19.2C18 16 16.952 16.664 16.408 17.64M26.4 24V18.4H27.872C28.448 18.4 28.976 18.712 29.264 19.208L30.632 21.6M16 28C16 29.328 17.072 30.4 18.4 30.4H19.2M19.2 30.4C19.2 29.52 19.92 28.8 20.8 28.8M19.2 30.4C19.2 31.2837 19.9163 32 20.8 32C21.6837 32 22.4 31.2837 22.4 30.4M19.2 30.4C19.2 29.5163 19.9163 28.8 20.8 28.8M20.8 28.8C21.68 28.8 22.4 29.52 22.4 30.4M20.8 28.8C21.6837 28.8 22.4 29.5163 22.4 30.4M22.4 30.4H25.6M25.6 30.4C25.6 29.52 26.32 28.8 27.2 28.8M25.6 30.4C25.6 31.2837 26.3163 32 27.2 32C28.0837 32 28.8 31.2837 28.8 30.4M25.6 30.4C25.6 29.5163 26.3163 28.8 27.2 28.8M27.2 28.8C28.08 28.8 28.8 29.52 28.8 30.4M27.2 28.8C28.0837 28.8 28.8 29.5163 28.8 30.4M28.8 30.4H29.6C30.928 30.4 32 29.328 32 28V25.6M32 25.6H29.6C29.16 25.6 28.8 25.24 28.8 24.8V22.4C28.8 21.96 29.16 21.6 29.6 21.6H30.632M32 25.6V24L30.632 21.6M16 20.8H20.8M16 23.2H19.2M16 25.6H17.6" stroke="#6D0D26" stroke-width="1.2" stroke-linecap="round" stroke-linejoin="round"/>
</svg>
