<svg width="28" height="28" viewBox="0 0 28 28" fill="none" xmlns="http://www.w3.org/2000/svg">
<g clip-path="url(#clip0_1475_7921)">
<path d="M14 28C21.732 28 28 21.732 28 14C28 6.26801 21.732 0 14 0C6.26801 0 0 6.26801 0 14C0 21.732 6.26801 28 14 28Z" fill="#6DA544"/>
<path d="M7.91309 16.7391C7.91309 17.7476 8.73066 18.5652 9.73916 18.5652H15.2174C15.2174 19.4056 15.8987 20.0869 16.7392 20.0869H18.5652C19.4057 20.0869 20.087 19.4056 20.087 18.5652V16.7391H7.91309Z" fill="#F0F0F0"/>
<path d="M20.2391 7.91309V12.174C20.2391 12.8452 19.693 13.3914 19.0217 13.3914V15.2174C20.6999 15.2174 22.0652 13.8521 22.0652 12.174V7.91309H20.2391Z" fill="#F0F0F0"/>
<path d="M7.15221 12.174C7.15221 12.8452 6.6061 13.3914 5.93481 13.3914V15.2174C7.61301 15.2174 8.97828 13.8521 8.97828 12.174V7.91309H7.15221V12.174Z" fill="#F0F0F0"/>
<path d="M17.5 7.91309H19.3261V12.174H17.5V7.91309Z" fill="#F0F0F0"/>
<path d="M14.7609 10.3478C14.7609 10.5157 14.6243 10.6522 14.4566 10.6522C14.2888 10.6522 14.1522 10.5156 14.1522 10.3478V7.91302H12.3262V10.3478C12.3262 10.5157 12.1896 10.6522 12.0218 10.6522C11.854 10.6522 11.7175 10.5156 11.7175 10.3478V7.91302H9.89136V10.3478C9.89136 11.5226 10.8471 12.4783 12.0218 12.4783C12.4742 12.4783 12.8938 12.3361 13.2392 12.0946C13.5846 12.336 14.0042 12.4783 14.4566 12.4783C14.5477 12.4783 14.6373 12.4719 14.7254 12.4607C14.596 12.9938 14.1159 13.3913 13.5436 13.3913V15.2174C15.2217 15.2174 16.587 13.852 16.587 12.1739V10.3478V7.91302H14.761V10.3478H14.7609Z" fill="#F0F0F0"/>
<path d="M9.89136 13.3914H12.6305V15.2174H9.89136V13.3914Z" fill="#F0F0F0"/>
</g>
<defs>
<clipPath id="clip0_1475_7921">
<rect width="28" height="28" fill="white"/>
</clipPath>
</defs>
</svg>
