<svg width="28" height="28" viewBox="0 0 28 28" fill="none" xmlns="http://www.w3.org/2000/svg">
<g clip-path="url(#clip0_1475_7931)">
<path d="M27.1292 18.8696C27.6919 17.3529 28 15.7125 28 14C28 12.2875 27.6919 10.6471 27.1292 9.13048L14 7.91309L0.870789 9.13048C0.308055 10.6471 0 12.2875 0 14C0 15.7125 0.308055 17.3529 0.870789 18.8696L14 20.087L27.1292 18.8696Z" fill="#F0F0F0"/>
<path d="M14 28C20.0194 28 25.1511 24.2008 27.1291 18.8696H0.870728C2.84888 24.2008 7.98043 28 14 28Z" fill="#D80027"/>
<path d="M14 0C7.98043 0 2.84888 3.79925 0.870728 9.13046H27.1292C25.1511 3.79925 20.0194 0 14 0Z" fill="#6DA544"/>
<path d="M4.1005 4.10046C-1.36683 9.56779 -1.36683 18.4321 4.1005 23.8995C5.52757 22.4725 6.92046 21.0796 9.13043 18.8696V9.13046L4.1005 4.10046Z" fill="black"/>
</g>
<defs>
<clipPath id="clip0_1475_7931">
<rect width="28" height="28" fill="white"/>
</clipPath>
</defs>
</svg>
