<svg width="22" height="17" viewBox="0 0 22 17" fill="none" xmlns="http://www.w3.org/2000/svg">
<path d="M8.8 11.6888L14.509 8.26025L8.8 4.83168V11.6888ZM21.516 2.74025C21.659 3.2774 21.758 3.9974 21.824 4.91168C21.901 5.82597 21.934 6.61454 21.934 7.30025L22 8.26025C22 10.7631 21.824 12.6031 21.516 13.7803C21.241 14.8088 20.603 15.4717 19.613 15.7574C19.096 15.906 18.15 16.0088 16.698 16.0774C15.268 16.1574 13.959 16.1917 12.749 16.1917L11 16.2603C6.391 16.2603 3.52 16.0774 2.387 15.7574C1.397 15.4717 0.759 14.8088 0.484 13.7803C0.341 13.2431 0.242 12.5231 0.176 11.6088C0.0990001 10.6945 0.0659999 9.90597 0.0659999 9.22025L0 8.26025C0 5.7574 0.176 3.9174 0.484 2.74025C0.759 1.71168 1.397 1.04883 2.387 0.763111C2.904 0.61454 3.85 0.511682 5.302 0.443111C6.732 0.363111 8.041 0.328825 9.251 0.328825L11 0.260254C15.609 0.260254 18.48 0.443111 19.613 0.763111C20.603 1.04883 21.241 1.71168 21.516 2.74025Z" fill="black"/>
</svg>
