<svg width="16" height="17" viewBox="0 0 16 17" fill="none" xmlns="http://www.w3.org/2000/svg">
<path d="M4.64 0.260254H11.36C13.92 0.260254 16 2.34025 16 4.90025V11.6203C16 12.8509 15.5111 14.0311 14.641 14.9012C13.7708 15.7714 12.5906 16.2603 11.36 16.2603H4.64C2.08 16.2603 0 14.1803 0 11.6203V4.90025C0 3.66965 0.488856 2.48945 1.35902 1.61928C2.22919 0.74911 3.4094 0.260254 4.64 0.260254ZM4.48 1.86025C3.71618 1.86025 2.98364 2.16368 2.44353 2.70379C1.90343 3.24389 1.6 3.97643 1.6 4.74025V11.7803C1.6 13.3723 2.888 14.6603 4.48 14.6603H11.52C12.2838 14.6603 13.0164 14.3568 13.5565 13.8167C14.0966 13.2766 14.4 12.5441 14.4 11.7803V4.74025C14.4 3.14825 13.112 1.86025 11.52 1.86025H4.48ZM12.2 3.06025C12.4652 3.06025 12.7196 3.16561 12.9071 3.35315C13.0946 3.54068 13.2 3.79504 13.2 4.06025C13.2 4.32547 13.0946 4.57982 12.9071 4.76736C12.7196 4.9549 12.4652 5.06025 12.2 5.06025C11.9348 5.06025 11.6804 4.9549 11.4929 4.76736C11.3054 4.57982 11.2 4.32547 11.2 4.06025C11.2 3.79504 11.3054 3.54068 11.4929 3.35315C11.6804 3.16561 11.9348 3.06025 12.2 3.06025ZM8 4.26025C9.06087 4.26025 10.0783 4.68168 10.8284 5.43183C11.5786 6.18197 12 7.19939 12 8.26025C12 9.32112 11.5786 10.3385 10.8284 11.0887C10.0783 11.8388 9.06087 12.2603 8 12.2603C6.93913 12.2603 5.92172 11.8388 5.17157 11.0887C4.42143 10.3385 4 9.32112 4 8.26025C4 7.19939 4.42143 6.18197 5.17157 5.43183C5.92172 4.68168 6.93913 4.26025 8 4.26025ZM8 5.86025C7.36348 5.86025 6.75303 6.11311 6.30294 6.5632C5.85286 7.01328 5.6 7.62373 5.6 8.26025C5.6 8.89677 5.85286 9.50722 6.30294 9.95731C6.75303 10.4074 7.36348 10.6603 8 10.6603C8.63652 10.6603 9.24697 10.4074 9.69706 9.95731C10.1471 9.50722 10.4 8.89677 10.4 8.26025C10.4 7.62373 10.1471 7.01328 9.69706 6.5632C9.24697 6.11311 8.63652 5.86025 8 5.86025Z" fill="black"/>
</svg>
