<svg width="10" height="17" viewBox="0 0 10 17" fill="none" xmlns="http://www.w3.org/2000/svg">
<path d="M3.11562 15.4569V9.63783H0.92821C0.814642 9.63783 0.705725 9.5919 0.62542 9.51013C0.545115 9.42837 0.5 9.31747 0.5 9.20184V6.9003C0.5 6.78467 0.545115 6.67378 0.62542 6.59201C0.705725 6.51025 0.814642 6.46432 0.92821 6.46432H3.10697V4.23638C3.05485 3.70803 3.11698 3.17448 3.28898 2.67318C3.46099 2.17189 3.7387 1.71502 4.10261 1.33466C4.46653 0.954298 4.90782 0.659672 5.3955 0.471474C5.88317 0.283277 6.4054 0.206072 6.92551 0.245283H8.74835C8.863 0.245054 8.97314 0.290723 9.05501 0.372437C9.13688 0.45415 9.18393 0.565359 9.18599 0.682071V2.63082C9.18352 2.74732 9.13633 2.85821 9.05452 2.93971C8.97271 3.02121 8.8628 3.06683 8.74835 3.06681H7.60907C6.37866 3.06681 6.14216 3.66039 6.14216 4.53317V6.46352H9.06735C9.12814 6.46147 9.18865 6.47292 9.24465 6.49709C9.30066 6.52126 9.35082 6.55757 9.39165 6.60348C9.43248 6.64939 9.46299 6.7038 9.48107 6.76294C9.49915 6.82207 9.50436 6.88451 9.49634 6.9459L9.23156 9.25624C9.2183 9.36206 9.16739 9.45926 9.08848 9.52943C9.00956 9.59961 8.90812 9.63789 8.80335 9.63703H6.16023V15.4561C6.16172 15.5589 6.14291 15.661 6.10493 15.7562C6.06695 15.8515 6.01056 15.938 5.93912 16.0107C5.86767 16.0834 5.78262 16.1407 5.68901 16.1793C5.5954 16.2178 5.49514 16.2369 5.39417 16.2353H3.87225C3.77207 16.2356 3.67282 16.2156 3.58031 16.1764C3.4878 16.1373 3.40388 16.0798 3.33344 16.0072C3.263 15.9347 3.20746 15.8486 3.17006 15.754C3.13267 15.6593 3.11416 15.5589 3.11562 15.4569Z" fill="black"/>
</svg>
