<svg width="48" height="49" viewBox="0 0 48 49" fill="none" xmlns="http://www.w3.org/2000/svg">
<path d="M24 48.2603C37.2552 48.2603 48 37.5155 48 24.2603V7.46025C48 5.5507 47.2414 3.71935 45.8912 2.36909C44.5409 1.01882 42.7096 0.260254 40.8 0.260254L25.2 0.260254V10.7891C25.2 13.1915 25.3464 15.6803 26.6064 17.7251C27.5084 19.1905 28.7151 20.4448 30.1446 21.4028C31.5741 22.3608 33.1929 23.0002 34.8912 23.2775L35.3508 23.3519C35.5403 23.4166 35.7048 23.539 35.8212 23.7019C35.9377 23.8648 36.0003 24.06 36.0003 24.2603C36.0003 24.4605 35.9377 24.6557 35.8212 24.8186C35.7048 24.9815 35.5403 25.1039 35.3508 25.1687L34.8912 25.2431C32.4098 25.6484 30.1184 26.8229 28.3406 28.6008C26.5627 30.3787 25.3882 32.6701 24.9828 35.1515L24.9084 35.6111C24.8436 35.8005 24.7213 35.965 24.5584 36.0815C24.3955 36.1979 24.2002 36.2606 24 36.2606C23.7998 36.2606 23.6045 36.1979 23.4417 36.0815C23.2788 35.965 23.1564 35.8005 23.0916 35.6111L23.0172 35.1515C22.7399 33.4532 22.1005 31.8344 21.1425 30.4049C20.1845 28.9754 18.9302 27.7687 17.4648 26.8667C15.42 25.6067 12.9312 25.4603 10.5288 25.4603H0.0288086C0.656409 38.1575 11.148 48.2603 24 48.2603Z" fill="white"/>
</svg>
