<svg width="28" height="28" viewBox="0 0 28 28" fill="none" xmlns="http://www.w3.org/2000/svg">
<g clip-path="url(#clip0_1475_7989)">
<path d="M14 28C21.732 28 28 21.732 28 14C28 6.26801 21.732 0 14 0C6.26801 0 0 6.26801 0 14C0 21.732 6.26801 28 14 28Z" fill="#F0F0F0"/>
<path d="M0 14C0 19.3066 2.95258 23.9233 7.30434 26.2978V1.70227C2.95258 4.07669 0 8.69341 0 14Z" fill="#D80027"/>
<path d="M27.1293 18.8696C27.692 17.3529 28 15.7125 28 14C28 12.2875 27.692 10.6471 27.1293 9.13049H0.870844C0.308055 10.6471 0 12.2875 0 14C0 15.7125 0.308055 17.3529 0.870844 18.8696L14 20.087L27.1293 18.8696Z" fill="#D80027"/>
<path d="M14 28C20.0196 28 25.1511 24.2008 27.1293 18.8696H0.87085C2.8489 24.2008 7.98055 28 14 28V28Z" fill="#6DA544"/>
<path d="M0 14C0 20.4684 4.38709 25.9112 10.3478 27.5177V0.4823C4.38709 2.0888 0 7.53163 0 14Z" fill="#D80027"/>
<path d="M8.56499 6.16079L7.27376 4.86957L6.41298 5.73046L5.5522 4.86957L4.26097 6.16079L5.12181 7.02163L4.26086 7.88252L5.55209 9.17375L6.41293 8.31286L7.27376 9.17375L8.56499 7.88252L7.70415 7.02163L8.56499 6.16079Z" fill="#F0F0F0"/>
</g>
<defs>
<clipPath id="clip0_1475_7989">
<rect width="28" height="28" fill="white"/>
</clipPath>
</defs>
</svg>
