<svg width="28" height="28" viewBox="0 0 28 28" fill="none" xmlns="http://www.w3.org/2000/svg">
<g clip-path="url(#clip0_1475_7981)">
<path d="M14 28C21.732 28 28 21.732 28 14C28 6.26801 21.732 0 14 0C6.26801 0 0 6.26801 0 14C0 21.732 6.26801 28 14 28Z" fill="#F0F0F0"/>
<path d="M28 14C28 6.26806 21.7319 0 14 0C11.2613 0 8.70658 0.787226 6.54872 2.14654L9.6174 3.45034L5.47827 5.20898L9.6174 6.96757L5.47827 8.7261L9.6174 10.4846L5.47827 12.2428L9.6174 14.001L5.47827 15.7595L9.6174 17.5179L5.47827 19.2762L9.6174 21.0346L5.47827 22.7931L9.6174 24.5514L6.55009 25.8545C8.70768 27.2132 11.2618 28 14 28C21.7319 28 28 21.7319 28 14Z" fill="#751A46"/>
</g>
<defs>
<clipPath id="clip0_1475_7981">
<rect width="28" height="28" fill="white"/>
</clipPath>
</defs>
</svg>
