<?xml version="1.0" encoding="UTF-8"?>
<svg id="Layer_1" data-name="Layer 1" xmlns="http://www.w3.org/2000/svg" viewBox="0 0 1997.39 366.25">
  <defs>
    <style>
      .cls-1 {
        fill: #6d0d26;
      }
    </style>
  </defs>
  <g>
    <path class="cls-1" d="M86.13,228.98c1.27,5.25,4.58,9.39,9.3,12.47,6.26,4.09,13.71,5.51,21.08,5.51s16.95-.65,23.4-4.43c5.27-3.09,8.31-7.81,8.31-13.98,0-3.75-1.35-6.96-4.16-9.46l-.08-.07c-2.91-2.43-6.61-4.08-10.19-5.27-4.83-1.7-10.03-2.9-15.12-3.9-6.71-1.32-13.38-2.8-20.06-4.25-3.75-.81-7.52-1.56-11.26-2.44-3.99-.93-7.89-2.24-11.68-3.8-3.9-1.61-7.64-3.54-11.17-5.84-3.53-2.29-6.56-5.16-9.19-8.44-2.86-3.57-4.93-7.7-6.38-12.03-1.78-5.35-2.39-11.17-2.39-16.79,0-7.96,1.36-15.73,4.61-23.02,3.07-6.87,7.69-12.54,13.71-17.06,7-5.26,15.41-8.68,23.82-10.93,11.11-2.97,23.02-3.91,34.48-3.91,9.72,0,19.56,1.09,28.84,4.1,7.78,2.52,15.08,6.23,21.31,11.55,5.69,4.86,10.13,10.77,13.17,17.6,2.73,6.11,4.16,12.52,4.52,19.13l-46.69-.15c-1.05-4.12-3.48-7.56-6.88-10.38-5.04-4.18-11.61-5.5-18.01-5.5s-14.52.91-20.01,5.13c-4.21,3.23-7.08,7.6-6.91,13.03,0,2.8.83,5.55,2.72,7.78l.05.06c1.99,2.25,4.73,3.78,7.52,4.83,3.52,1.39,7.46,2.3,11.23,3.01,5.19.98,10.46,1.71,15.69,2.42,8.76,1.47,17.56,3.35,26.26,5.64,7.5,1.97,14.82,4.79,21.45,8.84,5.91,3.61,10.61,8.3,14.15,14.25,3.95,6.64,5.19,14.64,5.19,22.26,0,9.05-1.6,18.04-5.95,26.05-4.03,7.41-9.62,13.46-16.61,18.19-7.84,5.3-16.77,8.74-25.96,10.89-11.04,2.58-22.45,3.59-33.77,3.59s-23.26-1.27-33.94-5.27c-8.33-3.12-16.39-7.43-22.92-13.54-5.65-5.28-10.1-11.46-13.01-18.64-2.26-5.58-3.69-11.39-4.08-17.37l45.61.15Z"/>
    <path class="cls-1" d="M418.36,192.38c0,12.22-2.21,24.11-6.97,35.39-4.62,10.95-11.17,20.62-19.63,28.96-8.68,8.56-18.99,14.92-30.28,19.46-12.46,5.01-25.67,7.11-39.06,7.11s-26.16-2.19-38.39-7.22c-11.21-4.61-21.35-10.98-30.02-19.48-8.43-8.26-14.91-17.96-19.5-28.83-4.76-11.26-7.03-23.16-7.03-35.39s2.19-24.09,6.91-35.34c4.61-10.97,11.08-20.61,19.56-28.95,8.67-8.53,18.84-14.92,30.07-19.53,12.33-5.06,25.45-7.22,38.74-7.22s26.44,2.16,38.81,7.22c11.25,4.6,21.51,10.97,30.18,19.53,8.45,8.34,15,18.01,19.63,28.96,4.75,11.24,6.97,23.13,6.97,35.33ZM277.43,213.69c2.46,6.19,5.98,11.83,10.63,16.61,4.52,4.65,9.82,8.29,15.81,10.79,6.15,2.56,12.6,3.76,19.26,3.76s13.22-1.18,19.38-3.76c5.96-2.49,11.19-6.09,15.65-10.75,4.58-4.78,8-10.4,10.44-16.55,2.71-6.84,3.85-14.14,3.85-21.48s-1.16-14.43-3.85-21.19c-2.44-6.14-5.9-11.73-10.51-16.49-4.5-4.65-9.79-8.24-15.76-10.74-6.16-2.58-12.72-3.76-19.38-3.76s-13.11,1.2-19.26,3.76c-5.98,2.49-11.19,6.1-15.7,10.73-4.64,4.76-8.12,10.33-10.57,16.5-2.69,6.76-3.79,13.94-3.79,21.19s1.09,14.56,3.79,21.37Z"/>
    <path class="cls-1" d="M625.57,195.3c0,48.52-39.71,88.23-88.24,88.23s-88.23-39.71-88.23-88.23v-88.12h47.58v91.65c0,22.37,18.29,40.66,40.65,40.66s40.66-18.29,40.66-40.66v-91.65h47.58v88.12Z"/>
    <path class="cls-1" d="M800.78,265.63l-5.19,3.4c-13.89,9.1-29.15,14.15-45.86,14.28-13.71.1-26.88-1.83-39.55-7.19-10.88-4.6-20.63-10.98-28.89-19.44-16.78-17.17-24.77-40.48-24.77-64.28,0-37.87,21.59-69.46,56.55-83.82,23.57-9.68,53.97-9.63,77.55,0,34.97,14.29,56.78,45.92,56.78,83.82v140.24h-46.61v-67.01ZM751.98,140.17c-20.68,0-37.89,11.81-45.53,30.99-5.09,12.78-5.09,29.78,0,42.56,4.95,12.43,14.09,22.18,26.48,27.36,11.12,4.65,23.88,5.09,35.31,1.25,7.19-2.41,13.72-6.46,18.95-11.96,7.24-7.61,11.94-17.8,13.55-28.15,4.97-31.99-14.75-62.05-48.76-62.05Z"/>
  </g>
  <g>
    <path class="cls-1" d="M977.98,280.24c-10.96,5.54-24.52,8.31-40.67,8.31-17.3,0-31.49-4.33-42.57-12.98-11.08-8.65-16.61-20.94-16.61-36.86,0-14.3,4.5-25.72,13.5-34.26,9-8.53,23.88-14.54,44.64-18l43.95-7.27c9.69-1.61,16.38-3.81,20.07-6.58,3.69-2.77,5.54-7.15,5.54-13.15,0-8.77-3.17-15.57-9.52-20.42-6.35-4.85-17.02-7.27-32.01-7.27-30.23,0-45.34,11.76-45.34,35.3h-37.03c0-19.15,7.21-34.26,21.63-45.34,14.42-11.08,34.55-16.61,60.39-16.61s44.7,4.96,57.28,14.88c12.57,9.92,21.05,23.88,21.28,41.87v122.17h-33.92l-1.04-25.61h-4.5c-5.77,9-14.14,16.27-25.09,21.8ZM948.38,262.93c12.23,0,22.72-2.6,31.5-7.79,8.76-5.19,15.34-12.11,19.73-20.76,4.38-8.65,6.58-17.82,6.58-27.52v-11.07l-56.41,10.38c-11.08,2.08-19.38,5.54-24.92,10.38-5.54,4.85-8.31,11.31-8.31,19.38,0,18,10.61,27,31.84,27Z"/>
    <path class="cls-1" d="M1601.1,280.24c-10.96,5.54-24.52,8.31-40.67,8.31-17.3,0-31.49-4.33-42.57-12.98-11.08-8.65-16.61-20.94-16.61-36.86,0-14.3,4.5-25.72,13.5-34.26,9-8.53,23.88-14.54,44.64-18l43.95-7.27c9.69-1.61,16.38-3.81,20.07-6.58,3.69-2.77,5.54-7.15,5.54-13.15,0-8.77-3.17-15.57-9.52-20.42-6.35-4.85-17.02-7.27-32.01-7.27-30.23,0-45.34,11.76-45.34,35.3h-37.03c0-19.15,7.21-34.26,21.63-45.34,14.42-11.08,34.55-16.61,60.39-16.61s44.7,4.96,57.28,14.88c12.57,9.92,21.05,23.88,21.28,41.87v122.17h-33.92l-1.04-25.61h-4.5c-5.77,9-14.14,16.27-25.09,21.8ZM1571.51,262.93c12.23,0,22.72-2.6,31.5-7.79,8.76-5.19,15.34-12.11,19.73-20.76,4.38-8.65,6.58-17.82,6.58-27.52v-11.07l-56.41,10.38c-11.08,2.08-19.38,5.54-24.92,10.38-5.54,4.85-8.31,11.31-8.31,19.38,0,18,10.61,27,31.84,27Z"/>
    <path class="cls-1" d="M1112.02,254.63h29.42v29.42h-21.11c-17.3,0-29.48-3.57-36.51-10.73-7.04-7.15-10.55-18.34-10.55-33.57V55.28h38.76v199.35Z"/>
    <path class="cls-1" d="M1172.19,108.58h38.76v23.19h3.81c6-8.77,13.78-15.51,23.36-20.25,9.57-4.73,20.47-7.1,32.7-7.1,14.07,0,26.65,2.59,37.72,7.79,11.07,5.19,19.38,12.75,24.92,22.67h4.5c12.69-20.3,32.3-30.46,58.84-30.46,22.61,0,40.55,6.12,53.82,18.34,13.27,12.23,19.9,29.88,19.9,52.95v108.33h-38.76v-104.17c0-14.54-4.21-25.72-12.63-33.57-8.42-7.84-19.55-11.77-33.4-11.77-11.31,0-21,2.94-29.07,8.83-8.08,5.88-13.27,14.14-15.57,24.74v115.94h-38.07v-105.9c0-14.54-3.93-25.44-11.77-32.71-7.85-7.27-18.69-10.9-32.53-10.9-14.77,0-26.42,4.5-34.95,13.5-8.54,9-12.81,22.15-12.81,39.45v96.56h-38.76V108.58Z"/>
    <path class="cls-1" d="M1795.02,106.85h99.31l6.14,34.95h-109.95c-17.3,0-30.92,5.36-40.84,16.09-9.92,10.73-14.88,26.36-14.88,46.9v79.25h-38.42V108.58h37.38v28.03h4.15c11.53-19.84,30.57-29.77,57.1-29.77Z"/>
    <path class="cls-1" d="M1799.62,136.96h-34.95,0c.19-15.73,13-28.38,28.73-28.38h87.79v28.38h-43.49l26.53,166.27h65.33l4.42,29.42h-74.67c-15.96,0-29.57-11.56-32.14-27.31l-27.54-168.37Z"/>
  </g>
  <rect class="cls-1" x="1789.81" y="32.28" width="46" height="46" transform="translate(570.05 -1265.66) rotate(45)"/>
</svg>