<svg width="15" height="15" viewBox="0 0 15 15" fill="none" xmlns="http://www.w3.org/2000/svg">
<path d="M7.53003 1.3335C7.53925 1.3335 7.54663 1.33648 7.55249 1.3374L7.55347 1.33936L9.26929 5.40186L9.39136 5.69092L9.70483 5.71826L14.0691 6.09814C14.0887 6.10181 14.1006 6.10644 14.1072 6.10889C14.1098 6.1115 14.1125 6.11607 14.1169 6.12256L14.113 6.12646L14.1072 6.13135L10.7722 9.02295L10.5339 9.229L10.6062 9.53662L11.614 13.8257L11.616 13.8354C11.6003 13.8441 11.5894 13.8481 11.5808 13.8501C11.5757 13.8483 11.5691 13.8453 11.5603 13.8413L7.80054 11.5718L7.53003 11.4087L7.2605 11.5718L3.50269 13.8413C3.49304 13.8458 3.48557 13.8483 3.48022 13.8501C3.47039 13.8477 3.45856 13.8434 3.44312 13.8354L3.44604 13.8257L4.45483 9.53662L4.5271 9.229L4.28882 9.02295L0.953857 6.13135L0.947998 6.12646L0.944092 6.12354C0.948354 6.11706 0.951399 6.11178 0.954834 6.10791C0.961874 6.10542 0.97283 6.10146 0.989014 6.09814L5.3562 5.71826L5.6687 5.69092L5.79175 5.40186L7.50659 1.33936V1.3374C7.51245 1.33634 7.51983 1.33351 7.53003 1.3335Z" stroke="#EF9C16" stroke-width="1.04364"/>
</svg>
