<svg width="32" height="32" viewBox="0 0 32 32" fill="none" xmlns="http://www.w3.org/2000/svg">
<path d="M16 9.25C15.3813 9.25 14.875 9.75625 14.875 10.375C14.875 10.9937 15.3813 11.5 16 11.5C16.6187 11.5 17.125 10.9937 17.125 10.375C17.125 9.75625 16.6187 9.25 16 9.25ZM16 20.5C15.3813 20.5 14.875 21.0063 14.875 21.625C14.875 22.2437 15.3813 22.75 16 22.75C16.6187 22.75 17.125 22.2437 17.125 21.625C17.125 21.0063 16.6187 20.5 16 20.5ZM16 14.875C15.3813 14.875 14.875 15.3812 14.875 16C14.875 16.6188 15.3813 17.125 16 17.125C16.6187 17.125 17.125 16.6188 17.125 16C17.125 15.3812 16.6187 14.875 16 14.875Z" fill="#525866"/>
</svg>
