<svg width="18" height="20" viewBox="0 0 18 20" fill="none" xmlns="http://www.w3.org/2000/svg">
<path d="M4.11972 13.1334L4.50342 13.7779L4.50344 13.7778L4.11972 13.1334ZM1.5413 17.3769L1.02396 17.9199L1.02398 17.92L1.5413 17.3769ZM16.4585 17.3769L16.9758 17.92L16.9758 17.9199L16.4585 17.3769ZM13.8801 13.1334L13.4963 13.7778L13.4964 13.7779L13.8801 13.1334ZM4.11972 13.1334L3.73601 12.489C3.18074 12.8197 1.89033 13.4701 1.06589 14.2771C0.645306 14.6887 0.236262 15.2399 0.161733 15.9217C0.0821431 16.6499 0.401425 17.3268 1.02396 17.9199L1.5413 17.3769L2.05864 16.8339C1.66449 16.4584 1.63857 16.2154 1.65285 16.0847C1.6722 15.9078 1.7961 15.6613 2.11513 15.349C2.76992 14.7081 3.7854 14.2054 4.50342 13.7779L4.11972 13.1334ZM1.5413 17.3769L1.02398 17.92C2.08505 18.9308 3.36791 19.75 5.03169 19.75V19V18.25C3.91378 18.25 2.98412 17.7156 2.05862 16.8339L1.5413 17.3769ZM5.03169 19V19.75H12.9681V19V18.25H5.03169V19ZM12.9681 19V19.75C14.6319 19.75 15.9148 18.9308 16.9758 17.92L16.4585 17.3769L15.9411 16.8339C15.0157 17.7156 14.086 18.25 12.9681 18.25V19ZM16.4585 17.3769L16.9758 17.9199C17.5983 17.3268 17.9176 16.6499 17.838 15.9217C17.7635 15.2399 17.3545 14.6887 16.9339 14.2771C16.1095 13.4701 14.8191 12.8197 14.2638 12.489L13.8801 13.1334L13.4964 13.7779C14.2144 14.2054 15.2299 14.7081 15.8847 15.349C16.2037 15.6613 16.3276 15.9078 16.3469 16.0847C16.3612 16.2154 16.3353 16.4584 15.9411 16.8339L16.4585 17.3769ZM13.8801 13.1334L14.2638 12.489C11.0415 10.5703 6.9583 10.5703 3.736 12.489L4.11972 13.1334L4.50344 13.7778C7.25285 12.1407 10.7469 12.1407 13.4963 13.7778L13.8801 13.1334ZM13.0499 5.05H12.2999C12.2999 6.87254 10.8225 8.35 8.9999 8.35V9.1V9.85C11.6509 9.85 13.7999 7.70096 13.7999 5.05H13.0499ZM8.9999 9.1V8.35C7.17737 8.35 5.6999 6.87254 5.6999 5.05H4.9499H4.1999C4.1999 7.70097 6.34894 9.85 8.9999 9.85V9.1ZM4.9499 5.05H5.6999C5.6999 3.22746 7.17737 1.75 8.9999 1.75V1V0.25C6.34894 0.25 4.1999 2.39903 4.1999 5.05H4.9499ZM8.9999 1V1.75C10.8225 1.75 12.2999 3.22746 12.2999 5.05H13.0499H13.7999C13.7999 2.39904 11.6509 0.25 8.9999 0.25V1Z" fill="#333333"/>
</svg>
