<svg width="8" height="9" viewBox="0 0 8 9" fill="none" xmlns="http://www.w3.org/2000/svg">
<path d="M3.99995 7.19675L1.87238 8.54605C1.80986 8.57846 1.75184 8.5916 1.69831 8.58544C1.64517 8.57887 1.5934 8.55959 1.54299 8.52758C1.49219 8.49475 1.4539 8.44838 1.42811 8.38846C1.40232 8.32855 1.39998 8.26309 1.42108 8.1921L1.98726 5.66217L0.114648 3.95708C0.0618984 3.91194 0.0271228 3.85798 0.010321 3.79519C-0.00648068 3.7324 -0.00276864 3.67228 0.0214571 3.61483C0.0456829 3.55738 0.0779187 3.51019 0.118165 3.47325C0.158801 3.43755 0.213505 3.41334 0.282275 3.40062L2.7533 3.17409L3.71686 0.778352C3.74343 0.710641 3.78172 0.661807 3.83174 0.63185C3.88175 0.601893 3.93782 0.586914 3.99995 0.586914C4.06208 0.586914 4.11834 0.601893 4.16875 0.63185C4.21915 0.661807 4.25725 0.710641 4.28304 0.778352L5.2466 3.17409L7.71704 3.40062C7.7862 3.41293 7.8411 3.43735 7.88174 3.47387C7.92237 3.50998 7.9548 3.55697 7.97903 3.61483C8.00286 3.67228 8.00638 3.7324 7.98958 3.79519C7.97278 3.85798 7.938 3.91194 7.88525 3.95708L6.01264 5.66217L6.57882 8.1921C6.6007 8.26227 6.59855 8.32752 6.57237 8.38785C6.54619 8.44817 6.50771 8.49454 6.45691 8.52696C6.4069 8.55979 6.35512 8.57929 6.30159 8.58544C6.24845 8.5916 6.19062 8.57846 6.1281 8.54605L3.99995 7.19675Z" fill="white"/>
</svg>
