<svg width="124" height="24" viewBox="0 0 124 24" fill="none" xmlns="http://www.w3.org/2000/svg">
<g id="Logo">
<path id="Vector" d="M78.3078 6.39011H78.3037C76.2907 6.12546 74.7302 6.90297 73.662 8.7199L69.8252 16.2057V0.260529H65.8348V23.6668H69.688L76.4306 10.5944C76.6267 10.2201 76.9201 10.0953 77.3699 10.1844C77.5249 10.2187 77.5825 10.2941 77.6154 10.3572C77.6867 10.4916 77.7223 10.6246 77.7223 10.7631V23.6654H81.7498V10.541C81.7498 9.59478 81.5098 8.71442 81.0353 7.9232C80.5375 7.09358 79.6202 6.5766 78.3092 6.39011H78.3078Z" fill="#1E1E1E"/>
<path id="Vector_2" d="M87.2321 0.259155H83.2417V23.6654H87.2321V0.259155Z" fill="#1E1E1E"/>
<path id="Vector_3" d="M113.423 18.3023L117.507 23.6654H122.265L115.823 15.1388L113.423 18.3023Z" fill="#1E1E1E"/>
<path id="Vector_4" d="M107.198 10.109L108.052 11.2321L107.203 10.109H107.198Z" fill="#1E1E1E"/>
<path id="Vector_5" d="M104.64 23.6037V6.64517H100.75L94.0075 19.7175C93.8087 20.0946 93.5386 20.2166 93.1039 20.1261C92.9763 20.0973 92.8927 20.0398 92.831 19.9383C92.7528 19.808 92.7158 19.6805 92.7158 19.5475V6.64517H88.7254V19.7696C88.7254 20.7158 88.9654 21.5975 89.4398 22.3874C89.9376 23.217 90.8426 23.7326 92.133 23.9218C92.3922 23.9561 92.6431 23.9726 92.8872 23.9726C94.5629 23.9726 95.8793 23.1786 96.8118 21.592L100.612 14.1488L100.592 23.664H104.601L109.321 23.6654L113.395 18.3051L111 15.1361L104.639 23.6051L104.64 23.6037Z" fill="#1E1E1E"/>
<path id="Vector_6" d="M3.9904 6.73157L16.0919 23.6668H19.9369V0H15.9835V16.8694L3.81899 0H0V23.6668H3.9904V6.73157Z" fill="#1E1E1E"/>
<path id="Vector_7" d="M34.6178 7.55843C33.241 6.78092 31.7299 6.38736 30.1255 6.38736C28.5211 6.38736 26.9674 6.78092 25.5797 7.55843C24.1892 8.33731 23.0771 9.4165 22.2749 10.7686C21.47 12.122 21.0627 13.6112 21.0627 15.1937C21.0627 16.7761 21.4714 18.2612 22.2763 19.6023C23.0799 20.9407 24.1906 22.0199 25.5783 22.8097C26.9661 23.5996 28.4964 24 30.1268 24C31.7573 24 33.2451 23.5996 34.6205 22.8083C35.9959 22.0199 37.0998 20.9407 37.9033 19.6023C38.7083 18.2612 39.1155 16.7775 39.1155 15.1937C39.1155 13.6098 38.7083 12.122 37.9033 10.7686C37.0998 9.41787 35.9945 8.33731 34.6178 7.5598V7.55843ZM33.6729 18.9359C32.6747 19.9808 31.5146 20.4881 30.1255 20.4881C28.7364 20.4881 27.5392 19.9808 26.541 18.9359C25.5386 17.8868 25.0518 16.6623 25.0518 15.1923C25.0518 13.7223 25.5523 12.447 26.541 11.4117C27.5392 10.3668 28.7117 9.85942 30.1255 9.85942C31.5393 9.85942 32.6747 10.3668 33.6729 11.4117C34.6616 12.447 35.1621 13.7182 35.1621 15.1923C35.1621 16.6664 34.6753 17.8855 33.6729 18.9359Z" fill="#1E1E1E"/>
<path id="Vector_8" d="M63.4967 20.3867C63.3816 20.4155 63.1306 20.4498 62.5862 20.4498C61.8293 20.4498 61.2383 20.3332 60.8296 20.1042C60.4662 19.8039 60.2811 19.2691 60.2811 18.5218L60.2962 10.1584H63.4789L63.4666 6.68219H60.3031V4.54849H56.3579V6.68219H50.6575C48.8913 6.73704 47.6311 7.61603 46.9112 9.29584L44.5979 14.722V6.68219H40.6075V23.6668H44.4786L49.6154 11.5516L49.6551 11.4707C49.9006 10.9564 50.146 10.6013 50.3846 10.4148C50.5067 10.3188 50.8454 10.1584 51.7353 10.1584H52.8433H56.3401L56.325 18.5149C56.325 20.3469 56.9681 21.758 58.2379 22.711C59.3528 23.5406 60.8145 23.9616 62.5835 23.9616C62.9345 23.9616 63.3802 23.9355 63.9273 23.8834L64.9654 23.7285V20.1248L63.5173 20.3839L63.494 20.3894L63.4967 20.3867Z" fill="#1E1E1E"/>
<path id="Vector_9" d="M122.308 6.59033H117.514L113.408 11.9808L111.982 10.109H111.919H107.203L108.052 11.2321L111 15.1361L113.396 18.3051L113.408 18.3216L113.423 18.3024L115.823 15.1388L122.308 6.59033Z" fill="#2EB5AF"/>
<path id="Vector_10" d="M120.13 4.15221H119.696V2.62324H119.124V2.23792H120.702V2.62324H120.13V4.15221ZM122.083 3.69832H122.046L121.518 2.8591V4.15221H121.108V2.23792H121.567L122.071 3.0456L122.574 2.23792H123.021V4.15221H122.611V2.8591L122.083 3.69832Z" fill="#1E1E1E"/>
</g>
</svg>
