<svg width="20" height="20" viewBox="0 0 20 20" fill="none" xmlns="http://www.w3.org/2000/svg">
<path d="M10 3.25C9.175 3.25 8.5 3.925 8.5 4.75C8.5 5.575 9.175 6.25 10 6.25C10.825 6.25 11.5 5.575 11.5 4.75C11.5 3.925 10.825 3.25 10 3.25ZM10 13.75C9.175 13.75 8.5 14.425 8.5 15.25C8.5 16.075 9.175 16.75 10 16.75C10.825 16.75 11.5 16.075 11.5 15.25C11.5 14.425 10.825 13.75 10 13.75ZM10 8.5C9.175 8.5 8.5 9.175 8.5 10C8.5 10.825 9.175 11.5 10 11.5C10.825 11.5 11.5 10.825 11.5 10C11.5 9.175 10.825 8.5 10 8.5Z" fill="#525866"/>
</svg>
