<svg width="16" height="16" viewBox="0 0 16 16" fill="none" xmlns="http://www.w3.org/2000/svg">
<path d="M1.36842 10.9474L4.66186 7.65391C4.91206 7.40375 5.25142 7.26316 5.60526 7.26316C5.95911 7.26316 6.29846 7.40375 6.54864 7.65391L9.47368 10.5789M9.47368 10.5789L10.5789 11.6842M9.47368 10.5789L10.925 9.12759C11.1752 8.87743 11.5146 8.73684 11.8684 8.73684C12.2223 8.73684 12.5616 8.87743 12.8118 9.12759L14.6316 10.9474M10.5789 5.05263C10.7824 5.05263 10.9474 4.88768 10.9474 4.68421C10.9474 4.48074 10.7824 4.31579 10.5789 4.31579M10.5789 5.05263C10.3755 5.05263 10.2105 4.88768 10.2105 4.68421C10.2105 4.48074 10.3755 4.31579 10.5789 4.31579M10.5789 5.05263V4.31579M1.88271 13.7085C1 12.675 1 11.1166 1 8C1 4.88336 1 3.32503 1.88271 2.29151C2.00806 2.14474 2.14474 2.00806 2.29151 1.88271C3.32503 1 4.88336 1 8 1C11.1166 1 12.675 1 13.7085 1.88271C13.8552 2.00806 13.9919 2.14474 14.1173 2.29151C15 3.32503 15 4.88336 15 8C15 11.1166 15 12.675 14.1173 13.7085C13.9919 13.8552 13.8552 13.9919 13.7085 14.1173C12.675 15 11.1166 15 8 15C4.88336 15 3.32503 15 2.29151 14.1173C2.14474 13.9919 2.00806 13.8552 1.88271 13.7085Z" stroke="#2B73B8" stroke-width="1.06944" stroke-linecap="round" stroke-linejoin="round"/>
</svg>
