<svg width="20" height="16" viewBox="0 0 20 16" fill="none" xmlns="http://www.w3.org/2000/svg">
<path d="M14.5 5.29262L14.6133 5.20171C16.5175 3.6742 17.4696 2.91044 18.2348 3.27922C19 3.64799 19 4.87061 19 7.31584V8.68416C19 11.1294 19 12.352 18.2348 12.7208C17.4696 13.0895 16.5175 12.3258 14.6133 10.7982L14.5 10.7073M1 7.125C1 4.23765 1 2.79397 1.92262 1.89699C2.84522 1 4.33015 1 7.3 1H8.2C11.1698 1 12.6547 1 13.5774 1.89699C14.5 2.79397 14.5 4.23765 14.5 7.125V8.875C14.5 11.7623 14.5 13.206 13.5774 14.103C12.6547 15 11.1698 15 8.2 15H7.3C4.33015 15 2.84522 15 1.92262 14.103C1 13.206 1 11.7623 1 8.875V7.125ZM10.9 5.8125C10.9 6.53737 10.2956 7.125 9.55 7.125C8.80442 7.125 8.2 6.53737 8.2 5.8125C8.2 5.08763 8.80442 4.5 9.55 4.5C10.2956 4.5 10.9 5.08763 10.9 5.8125Z" stroke="#2B73B8" stroke-linecap="round"/>
</svg>
