<svg width="56" height="56" viewBox="0 0 56 56" fill="none" xmlns="http://www.w3.org/2000/svg">
<rect x="0.5" y="0.5" width="55" height="55" rx="7.5" stroke="#E1E4EA"/>
<path d="M20.4211 31.3684L24.185 27.6045C24.4709 27.3186 24.8588 27.1579 25.2632 27.1579C25.6676 27.1579 26.0554 27.3186 26.3413 27.6045L29.6842 30.9474M29.6842 30.9474L30.9474 32.2105M29.6842 30.9474L31.3429 29.2887C31.6288 29.0028 32.0167 28.8421 32.4211 28.8421C32.8254 28.8421 33.2133 29.0028 33.4992 29.2887L35.5789 31.3684M28 20C24.4381 20 22.6572 20 21.476 21.0088C21.3083 21.1521 21.1521 21.3083 21.0088 21.476C20 22.6572 20 24.4381 20 28C20 31.5619 20 33.3428 21.0088 34.524C21.1521 34.6917 21.3083 34.8479 21.476 34.9912C22.6572 36 24.4381 36 28 36C31.5619 36 33.3428 36 34.524 34.9912C34.6917 34.8479 34.8479 34.6917 34.9912 34.524C36 33.3428 36 31.5619 36 28M36 22.9474H33.0526M33.0526 22.9474H30.1053M33.0526 22.9474V20M33.0526 22.9474V25.8947" stroke="#2B73B8" stroke-width="1.25" stroke-linecap="round" stroke-linejoin="round"/>
</svg>
