<svg width="20" height="20" viewBox="0 0 20 20" fill="none" xmlns="http://www.w3.org/2000/svg">
<path d="M16.25 5C16.25 4.65482 15.9702 4.375 15.625 4.375H4.375C4.02982 4.375 3.75 4.65482 3.75 5V15C3.75 15.3452 4.02982 15.625 4.375 15.625H15.625C15.9702 15.625 16.25 15.3452 16.25 15V5ZM5 11.875H7.13502C7.61725 12.9787 8.71855 13.75 10 13.75C11.2814 13.75 12.3827 12.9787 12.865 11.875H15V14.375H5V11.875ZM5 5.625H15V10.625H11.875C11.875 11.6606 11.0356 12.5 10 12.5C8.96444 12.5 8.125 11.6606 8.125 10.625H5V5.625ZM12.5 8.125H10.625V6.25H9.375V8.125H7.5L10 10.9375L12.5 8.125Z" fill="#2B73B8"/>
</svg>
