<svg width="18" height="18" viewBox="0 0 18 18" fill="none" xmlns="http://www.w3.org/2000/svg">
<g clip-path="url(#clip0_1951_1745)">
<path d="M9.92871 16.4287C8.47356 16.4287 7.05458 15.9752 5.86914 15.1312C4.68371 14.2873 3.79074 13.0949 3.31444 11.7199C2.83814 10.3449 2.80219 8.85569 3.21159 7.45931C3.62098 6.06294 4.45538 4.82885 5.59871 3.92871M9.92871 2.42871C11.3839 2.42874 12.8028 2.88225 13.9883 3.72618C15.1737 4.5701 16.0667 5.76249 16.543 7.13748C17.0193 8.51248 17.0552 10.0017 16.6458 11.3981C16.2364 12.7945 15.402 14.0286 14.2587 14.9287M13.9287 11.9287V15.4287H17.4287M2.42871 3.42871H5.92871V6.92871" stroke="#2B73B8" stroke-width="1.28571" stroke-linecap="round" stroke-linejoin="round"/>
</g>
<defs>
<clipPath id="clip0_1951_1745">
<rect width="17.1429" height="17.1429" fill="white" transform="translate(0.428711 0.428711)"/>
</clipPath>
</defs>
</svg>
