<svg width="24" height="24" viewBox="0 0 24 24" fill="none" xmlns="http://www.w3.org/2000/svg">
<path d="M3 4.7999C3 4.56121 3.09482 4.33229 3.2636 4.16351C3.43239 3.99472 3.66131 3.8999 3.9 3.8999H20.1C20.3387 3.8999 20.5676 3.99472 20.7364 4.16351C20.9052 4.33229 21 4.56121 21 4.7999V9.7499C20.4033 9.7499 19.831 9.98696 19.409 10.4089C18.9871 10.8309 18.75 11.4032 18.75 11.9999C18.75 12.5966 18.9871 13.1689 19.409 13.5909C19.831 14.0128 20.4033 14.2499 21 14.2499V19.1999C21 19.4386 20.9052 19.6675 20.7364 19.8363C20.5676 20.0051 20.3387 20.0999 20.1 20.0999H3.9C3.66131 20.0999 3.43239 20.0051 3.2636 19.8363C3.09482 19.6675 3 19.4386 3 19.1999V4.7999ZM8.4765 18.2999C8.56926 18.0362 8.7416 17.8078 8.96971 17.6462C9.19782 17.4847 9.47046 17.3979 9.75 17.3979C10.0295 17.3979 10.3022 17.4847 10.5303 17.6462C10.7584 17.8078 10.9307 18.0362 11.0235 18.2999H19.2V15.6287C18.5239 15.2936 17.9549 14.7764 17.557 14.1352C17.1592 13.494 16.9484 12.7545 16.9484 11.9999C16.9484 11.2453 17.1592 10.5058 17.557 9.86462C17.9549 9.22345 18.5239 8.70617 19.2 8.3711V5.6999H11.0235C10.9307 5.9636 10.7584 6.19199 10.5303 6.35356C10.3022 6.51513 10.0295 6.60191 9.75 6.60191C9.47046 6.60191 9.19782 6.51513 8.96971 6.35356C8.7416 6.19199 8.56926 5.9636 8.4765 5.6999H4.8V18.2999H8.4765ZM9.75 11.0999C9.39196 11.0999 9.04858 10.9577 8.79541 10.7045C8.54223 10.4513 8.4 10.1079 8.4 9.7499C8.4 9.39186 8.54223 9.04848 8.79541 8.79531C9.04858 8.54213 9.39196 8.3999 9.75 8.3999C10.108 8.3999 10.4514 8.54213 10.7046 8.79531C10.9578 9.04848 11.1 9.39186 11.1 9.7499C11.1 10.1079 10.9578 10.4513 10.7046 10.7045C10.4514 10.9577 10.108 11.0999 9.75 11.0999ZM9.75 15.5999C9.39196 15.5999 9.04858 15.4577 8.79541 15.2045C8.54223 14.9513 8.4 14.6079 8.4 14.2499C8.4 13.8919 8.54223 13.5485 8.79541 13.2953C9.04858 13.0421 9.39196 12.8999 9.75 12.8999C10.108 12.8999 10.4514 13.0421 10.7046 13.2953C10.9578 13.5485 11.1 13.8919 11.1 14.2499C11.1 14.6079 10.9578 14.9513 10.7046 15.2045C10.4514 15.4577 10.108 15.5999 9.75 15.5999Z" fill="#525866"/>
</svg>
