<svg width="24" height="24" viewBox="0 0 24 24" fill="none" xmlns="http://www.w3.org/2000/svg">
<path d="M7.0499 3H16.9499C17.0896 3 17.2274 3.03253 17.3524 3.09502C17.4774 3.1575 17.5861 3.24822 17.6699 3.36L20.0999 6.6V20.1C20.0999 20.3387 20.0051 20.5676 19.8363 20.7364C19.6675 20.9052 19.4386 21 19.1999 21H4.7999C4.56121 21 4.33229 20.9052 4.16351 20.7364C3.99472 20.5676 3.8999 20.3387 3.8999 20.1V6.6L6.3299 3.36C6.41373 3.24822 6.52244 3.1575 6.64741 3.09502C6.77238 3.03253 6.91018 3 7.0499 3ZM18.2999 8.4H5.6999V19.2H18.2999V8.4ZM17.8499 6.6L16.4999 4.8H7.4999L6.1499 6.6H17.8499ZM9.2999 10.2V12C9.2999 12.7161 9.58437 13.4028 10.0907 13.9092C10.5971 14.4155 11.2838 14.7 11.9999 14.7C12.716 14.7 13.4027 14.4155 13.9091 13.9092C14.4154 13.4028 14.6999 12.7161 14.6999 12V10.2H16.4999V12C16.4999 13.1935 16.0258 14.3381 15.1819 15.182C14.338 16.0259 13.1934 16.5 11.9999 16.5C10.8064 16.5 9.66184 16.0259 8.81792 15.182C7.97401 14.3381 7.4999 13.1935 7.4999 12V10.2H9.2999Z" fill="#2
</svg>
